font.ufo
<glyph name="numbersign.S" format="2">
	<unicode hex="0023"/>
	<advance width="497"/>
	<outline>
		<contour>
			<point x="92" y="-9" type="line"/>
			<point x="146" y="-9" type="line"/>
			<point x="169" y="156" type="line"/>
			<point x="301" y="156" type="line"/>
			<point x="279" y="-9" type="line"/>
			<point x="332" y="-9" type="line"/>
			<point x="355" y="156" type="line"/>
			<point x="447" y="156" type="line"/>
			<point x="447" y="214" type="line"/>
			<point x="362" y="214" type="line"/>
			<point x="380" y="362" type="line"/>
			<point x="467" y="362" type="line"/>
			<point x="467" y="419" type="line"/>
			<point x="386" y="419" type="line"/>
			<point x="405" y="564" type="line"/>
			<point x="352" y="564" type="line"/>
			<point x="333" y="419" type="line"/>
			<point x="200" y="419" type="line"/>
			<point x="219" y="564" type="line"/>
			<point x="166" y="564" type="line"/>
			<point x="147" y="419" type="line"/>
			<point x="55" y="419" type="line"/>
			<point x="55" y="362" type="line"/>
			<point x="140" y="362" type="line"/>
			<point x="122" y="214" type="line"/>
			<point x="35" y="214" type="line"/>
			<point x="35" y="156" type="line"/>
			<point x="115" y="156" type="line"/>
		</contour>
		<contour>
			<point x="176" y="214" type="line"/>
			<point x="194" y="362" type="line"/>
			<point x="326" y="362" type="line"/>
			<point x="308" y="214" type="line"/>
		</contour>
	</outline>
</glyph>
<glyph name="dollar.S" format="2">
	<unicode hex="0024"/>
	<advance width="497"/>
	<outline>
		<contour>
			<point x="251" y="-12" type="curve" smooth="yes"/>
			<point x="360" y="-12"/>
			<point x="431" y="51"/>
			<point x="431" y="148" type="curve" smooth="yes"/>
			<point x="431" y="324"/>
			<point x="154" y="310"/>
			<point x="154" y="413" type="curve" smooth="yes"/>
			<point x="154" y="459"/>
			<point x="193" y="491"/>
			<point x="252" y="491" type="curve" smooth="yes"/>
			<point x="304" y="491"/>
			<point x="336" y="480"/>
			<point x="381" y="447" type="curve"/>
			<point x="419" y="506" type="line"/>
			<point x="372" y="547"/>
			<point x="321" y="566"/>
			<point x="251" y="566" type="curve" smooth="yes"/>
			<point x="150" y="566"/>
			<point x="81" y="506"/>
			<point x="81" y="415" type="curve" smooth="yes"/>
			<point x="81" y="247"/>
			<point x="358" y="260"/>
			<point x="358" y="147" type="curve" smooth="yes"/>
			<point x="358" y="97"/>
			<point x="319" y="63"/>
			<point x="245" y="63" type="curve" smooth="yes"/>
			<point x="187" y="63"/>
			<point x="143" y="74"/>
			<point x="90" y="118" type="curve"/>
			<point x="52" y="59" type="line"/>
			<point x="107" y="8"/>
			<point x="176" y="-12"/>
		</contour>
		<contour>
			<point x="222" y="-110" type="line"/>
			<point x="281" y="-110" type="line"/>
			<point x="281" y="17" type="line"/>
			<point x="222" y="17" type="line"/>
		</contour>
		<contour>
			<point x="220" y="536" type="line"/>
			<point x="279" y="536" type="line"/>
			<point x="279" y="664" type="line"/>
			<point x="220" y="664" type="line"/>
		</contour>
	</outline>
</glyph>
<glyph name="gampersand" format="2">
	<unicode hex="0026"/>
	<advance width="591"/>
	<outline>
		<contour>
			<point x="34" y="-119" type="curve"/>
			<point x="112" y="-111" type="line"/>
			<point x="122" y="143"/>
			<point x="269" y="241"/>
			<point x="374" y="241" type="curve" smooth="yes"/>
			<point x="444" y="241"/>
			<point x="482" y="207"/>
			<point x="482" y="153" type="curve" smooth="yes"/>
			<point x="482" y="95"/>
			<point x="426" y="60"/>
			<point x="362" y="60" type="curve" smooth="yes"/>
			<point x="294" y="60"/>
			<point x="182" y="96"/>
			<point x="182" y="249" type="curve" smooth="yes"/>
			<point x="182" y="375"/>
			<point x="284" y="449"/>
			<point x="436" y="449" type="curve" smooth="yes"/>
			<point x="467" y="449" type="line"/>
			<point x="481" y="509" type="line"/>
			<point x="384" y="561"/>
			<point x="327" y="602"/>
			<point x="295" y="677" type="curve"/>
			<point x="211" y="665" type="line"/>
			<point x="249" y="581"/>
			<point x="317" y="541"/>
			<point x="404" y="495" type="curve"/>
			<point x="433" y="520" type="line"/>
			<point x="254" y="520"/>
			<point x="118" y="419"/>
			<point x="118" y="249" type="curve" smooth="yes"/>
			<point x="118" y="50"/>
			<point x="261" y="-12"/>
			<point x="362" y="-12" type="curve" smooth="yes"/>
			<point x="465" y="-12"/>
			<point x="545" y="50"/>
			<point x="545" y="154" type="curve" smooth="yes"/>
			<point x="545" y="256"/>
			<point x="479" y="304"/>
			<point x="379" y="304" type="curve" smooth="yes"/>
			<point x="233" y="304"/>
			<point x="46" y="168"/>
		</contour>
	</outline>
</glyph>
<glyph name="zero.S" format="2">
	<unicode hex="0030"/>
	<advance width="497"/>
	<outline>
		<contour>
			<point x="249" y="-12" type="curve" smooth="yes"/>
			<point x="373" y="-12"/>
			<point x="448" y="93"/>
			<point x="448" y="280" type="curve" smooth="yes"/>
			<point x="448" y="467"/>
			<point x="373" y="566"/>
			<point x="249" y="566" type="curve" smooth="yes"/>
			<point x="125" y="566"/>
			<point x="49" y="467"/>
			<point x="49" y="280" type="curve" smooth="yes"/>
			<point x="49" y="93"/>
			<point x="125" y="-12"/>
		</contour>
		<contour>
			<point x="249" y="62" type="curve" smooth="yes"/>
			<point x="172" y="62"/>
			<point x="120" y="133"/>
			<point x="120" y="280" type="curve" smooth="yes"/>
			<point x="120" y="427"/>
			<point x="172" y="492"/>
			<point x="249" y="492" type="curve" smooth="yes"/>
			<point x="325" y="492"/>
			<point x="377" y="427"/>
			<point x="377" y="280" type="curve" smooth="yes"/>
			<point x="377" y="133"/>
			<point x="325" y="62"/>
		</contour>
	</outline>
</glyph>
<glyph name="one.S" format="2">
	<unicode hex="0031"/>
	<advance width="497"/>
	<outline>
		<contour>
			<point x="79" y="0" type="line"/>
			<point x="439" y="0" type="line"/>
			<point x="439" y="71" type="line"/>
			<point x="307" y="71" type="line"/>
			<point x="307" y="554" type="line"/>
			<point x="244" y="554" type="line"/>
			<point x="209" y="533"/>
			<point x="167" y="517"/>
			<point x="109" y="507" type="curve"/>
			<point x="109" y="452" type="line"/>
			<point x="225" y="452" type="line"/>
			<point x="225" y="71" type="line"/>
			<point x="79" y="71" type="line"/>
		</contour>
	</outline>
</glyph>
<glyph name="two.S" format="2">
	<unicode hex="0032"/>
	<advance width="497"/>
	<outline>
		<contour>
			<point x="44" y="0" type="line"/>
			<point x="449" y="0" type="line"/>
			<point x="449" y="71" type="line"/>
			<point x="273" y="71" type="line" smooth="yes"/>
			<point x="240" y="71"/>
			<point x="199" y="68"/>
			<point x="164" y="65" type="curve"/>
			<point x="292" y="176"/>
			<point x="412" y="292"/>
			<point x="412" y="405" type="curve" smooth="yes"/>
			<point x="412" y="504"/>
			<point x="342" y="566"/>
			<point x="230" y="566" type="curve" smooth="yes"/>
			<point x="156" y="566"/>
			<point x="109" y="551"/>
			<point x="49" y="514" type="curve"/>
			<point x="71" y="454" type="line"/>
			<point x="128" y="488"/>
			<point x="165" y="499"/>
			<point x="220" y="499" type="curve" smooth="yes"/>
			<point x="294" y="499"/>
			<point x="333" y="457"/>
			<point x="333" y="392" type="curve" smooth="yes"/>
			<point x="333" y="304"/>
			<point x="224" y="198"/>
			<point x="44" y="52" type="curve"/>
		</contour>
	</outline>
</glyph>
<glyph name="three.S" format="2">
	<unicode hex="0033"/>
	<advance width="497"/>
	<outline>
		<contour>
			<point x="228" y="-52" type="curve" smooth="yes"/>
			<point x="349" y="-52"/>
			<point x="438" y="9"/>
			<point x="438" y="123" type="curve" smooth="yes"/>
			<point x="438" y="213"/>
			<point x="380" y="252"/>
			<point x="306" y="267" type="curve"/>
			<point x="306" y="271" type="line"/>
			<point x="372" y="295"/>
			<point x="416" y="342"/>
			<point x="416" y="420" type="curve" smooth="yes"/>
			<point x="416" y="518"/>
			<point x="336" y="566"/>
			<point x="230" y="566" type="curve" smooth="yes"/>
			<point x="155" y="566"/>
			<point x="110" y="550"/>
			<point x="53" y="506" type="curve"/>
			<point x="85" y="443" type="line"/>
			<point x="140" y="483"/>
			<point x="176" y="492"/>
			<point x="229" y="492" type="curve" smooth="yes"/>
			<point x="299" y="492"/>
			<point x="344" y="463"/>
			<point x="344" y="408" type="curve" smooth="yes"/>
			<point x="344" y="347"/>
			<point x="298" y="299"/>
			<point x="159" y="299" type="curve"/>
			<point x="159" y="232" type="line"/>
			<point x="315" y="232"/>
			<point x="366" y="193"/>
			<point x="366" y="128" type="curve" smooth="yes"/>
			<point x="366" y="62"/>
			<point x="314" y="22"/>
			<point x="228" y="22" type="curve" smooth="yes"/>
			<point x="172" y="22"/>
			<point x="120" y="31"/>
			<point x="67" y="71" type="curve"/>
			<point x="34" y="8" type="line"/>
			<point x="91" y="-37"/>
			<point x="150" y="-52"/>
		</contour>
	</outline>
</glyph>
<glyph name="four.S" format="2">
	<unicode hex="0034"/>
	<advance width="497"/>
	<outline>
		<contour>
			<point x="310" y="-40" type="line"/>
			<point x="382" y="-40" type="line"/>
			<point x="382" y="554" type="line"/>
			<point x="290" y="554" type="line"/>
			<point x="20" y="162" type="line"/>
			<point x="20" y="112" type="line"/>
			<point x="469" y="112" type="line"/>
			<point x="469" y="181" type="line"/>
			<point x="108" y="181" type="line"/>
			<point x="253" y="385" type="line"/>
			<point x="273" y="416"/>
			<point x="294" y="451"/>
			<point x="310" y="480" type="curve"/>
			<point x="314" y="480" type="line"/>
			<point x="312" y="446"/>
			<point x="310" y="391"/>
			<point x="310" y="357" type="curve" smooth="yes"/>
		</contour>
	</outline>
</glyph>
<glyph name="five.S" format="2">
	<unicode hex="0035"/>
	<advance width="497"/>
	<outline>
		<contour>
			<point x="234" y="-52" type="curve" smooth="yes"/>
			<point x="346" y="-52"/>
			<point x="440" y="20"/>
			<point x="440" y="153" type="curve" smooth="yes"/>
			<point x="440" y="281"/>
			<point x="360" y="336"/>
			<point x="250" y="336" type="curve" smooth="yes"/>
			<point x="214" y="336"/>
			<point x="185" y="329"/>
			<point x="154" y="312" type="curve"/>
			<point x="171" y="480" type="line"/>
			<point x="415" y="480" type="line"/>
			<point x="415" y="554" type="line"/>
			<point x="103" y="554" type="line"/>
			<point x="82" y="262" type="line"/>
			<point x="125" y="234" type="line"/>
			<point x="162" y="258"/>
			<point x="196" y="268"/>
			<point x="239" y="268" type="curve" smooth="yes"/>
			<point x="321" y="268"/>
			<point x="368" y="227"/>
			<point x="368" y="151" type="curve" smooth="yes"/>
			<point x="368" y="67"/>
			<point x="308" y="22"/>
			<point x="234" y="22" type="curve" smooth="yes"/>
			<point x="178" y="22"/>
			<point x="132" y="31"/>
			<point x="78" y="71" type="curve"/>
			<point x="45" y="8" type="line"/>
			<point x="102" y="-37"/>
			<point x="156" y="-52"/>
		</contour>
	</outline>
</glyph>
<glyph name="six.S" format="2">
	<unicode hex="0036"/>
	<advance width="497"/>
	<outline>
		<contour>
			<point x="265" y="-12" type="curve" smooth="yes"/>
			<point x="370" y="-12"/>
			<point x="451" y="63"/>
			<point x="451" y="189" type="curve" smooth="yes"/>
			<point x="451" y="313"/>
			<point x="382" y="376"/>
			<point x="276" y="376" type="curve" smooth="yes"/>
			<point x="212" y="376"/>
			<point x="153" y="348"/>
			<point x="113" y="295" type="curve"/>
			<point x="116" y="224" type="line"/>
			<point x="163" y="290"/>
			<point x="216" y="312"/>
			<point x="264" y="312" type="curve" smooth="yes"/>
			<point x="345" y="312"/>
			<point x="378" y="260"/>
			<point x="378" y="187" type="curve" smooth="yes"/>
			<point x="378" y="104"/>
			<point x="331" y="53"/>
			<point x="265" y="53" type="curve" smooth="yes"/>
			<point x="176" y="53"/>
			<point x="129" y="131"/>
			<point x="129" y="285" type="curve" smooth="yes"/>
			<point x="129" y="469"/>
			<point x="201" y="538"/>
			<point x="297" y="538" type="curve" smooth="yes"/>
			<point x="338" y="538"/>
			<point x="367" y="532"/>
			<point x="411" y="511" type="curve"/>
			<point x="433" y="571" type="line"/>
			<point x="386" y="596"/>
			<point x="350" y="606"/>
			<point x="293" y="606" type="curve" smooth="yes"/>
			<point x="159" y="606"/>
			<point x="52" y="515"/>
			<point x="52" y="285" type="curve" smooth="yes"/>
			<point x="52" y="86"/>
			<point x="139" y="-12"/>
		</contour>
	</outline>
</glyph>
<glyph name="seven.S" format="2">
	<unicode hex="0037"/>
	<advance width="497"/>
	<outline>
		<contour>
			<point x="179" y="-40" type="curve"/>
			<point x="261" y="-40" type="line"/>
			<point x="271" y="188"/>
			<point x="312" y="322"/>
			<point x="455" y="504" type="curve"/>
			<point x="455" y="554" type="line"/>
			<point x="44" y="554" type="line"/>
			<point x="44" y="483" type="line"/>
			<point x="364" y="483" type="line"/>
			<point x="245" y="321"/>
			<point x="189" y="179"/>
		</contour>
	</outline>
</glyph>
<glyph name="eight.S" format="2">
	<unicode hex="0038"/>
	<advance width="497"/>
	<outline>
		<contour>
			<point x="253" y="-12" type="curve" smooth="yes"/>
			<point x="378" y="-12"/>
			<point x="454" y="56"/>
			<point x="454" y="146" type="curve" smooth="yes"/>
			<point x="454" y="224"/>
			<point x="409" y="261"/>
			<point x="344" y="293" type="curve"/>
			<point x="344" y="297" type="line"/>
			<point x="385" y="323"/>
			<point x="437" y="378"/>
			<point x="437" y="451" type="curve" smooth="yes"/>
			<point x="437" y="547"/>
			<point x="364" y="607"/>
			<point x="251" y="607" type="curve" smooth="yes"/>
			<point x="145" y="607"/>
			<point x="69" y="550"/>
			<point x="69" y="456" type="curve" smooth="yes"/>
			<point x="69" y="387"/>
			<point x="108" y="349"/>
			<point x="162" y="313" type="curve"/>
			<point x="162" y="309" type="line"/>
			<point x="105" y="281"/>
			<point x="42" y="236"/>
			<point x="42" y="148" type="curve" smooth="yes"/>
			<point x="42" y="45"/>
			<point x="129" y="-12"/>
		</contour>
		<contour>
			<point x="295" y="320" type="curve"/>
			<point x="212" y="353"/>
			<point x="146" y="382"/>
			<point x="146" y="456" type="curve" smooth="yes"/>
			<point x="146" y="512"/>
			<point x="190" y="546"/>
			<point x="250" y="546" type="curve" smooth="yes"/>
			<point x="320" y="546"/>
			<point x="364" y="505"/>
			<point x="364" y="446" type="curve" smooth="yes"/>
			<point x="364" y="395"/>
			<point x="339" y="356"/>
		</contour>
		<contour>
			<point x="254" y="49" type="curve" smooth="yes"/>
			<point x="174" y="49"/>
			<point x="117" y="88"/>
			<point x="117" y="157" type="curve" smooth="yes"/>
			<point x="117" y="221"/>
			<point x="156" y="254"/>
			<point x="205" y="281" type="curve"/>
			<point x="292" y="241"/>
			<point x="376" y="225"/>
			<point x="376" y="146" type="curve" smooth="yes"/>
			<point x="376" y="93"/>
			<point x="335" y="49"/>
		</contour>
	</outline>
</glyph>
<glyph name="nine.S" format="2">
	<unicode hex="0039"/>
	<advance width="497"/>
	<outline>
		<contour>
			<point x="206" y="-52" type="curve" smooth="yes"/>
			<point x="339" y="-52"/>
			<point x="445" y="33"/>
			<point x="445" y="269" type="curve" smooth="yes"/>
			<point x="445" y="468"/>
			<point x="358" y="566"/>
			<point x="232" y="566" type="curve" smooth="yes"/>
			<point x="127" y="566"/>
			<point x="46" y="491"/>
			<point x="46" y="365" type="curve" smooth="yes"/>
			<point x="46" y="240"/>
			<point x="115" y="177"/>
			<point x="221" y="177" type="curve" smooth="yes"/>
			<point x="285" y="177"/>
			<point x="344" y="204"/>
			<point x="384" y="258" type="curve"/>
			<point x="381" y="330" type="line"/>
			<point x="335" y="265"/>
			<point x="281" y="243"/>
			<point x="233" y="243" type="curve" smooth="yes"/>
			<point x="151" y="243"/>
			<point x="118" y="295"/>
			<point x="118" y="367" type="curve" smooth="yes"/>
			<point x="118" y="446"/>
			<point x="165" y="493"/>
			<point x="232" y="493" type="curve" smooth="yes"/>
			<point x="321" y="493"/>
			<point x="374" y="417"/>
			<point x="374" y="269" type="curve" smooth="yes"/>
			<point x="374" y="82"/>
			<point x="300" y="21"/>
			<point x="203" y="21" type="curve" smooth="yes"/>
			<point x="157" y="21"/>
			<point x="126" y="31"/>
			<point x="90" y="56" type="curve"/>
			<point x="56" y="-5" type="line"/>
			<point x="99" y="-36"/>
			<point x="142" y="-52"/>
		</contour>
	</outline>
</glyph>
<glyph name="question.S" format="2">
	<unicode hex="003F"/>
	<advance width="425"/>
	<outline>
		<contour>
			<point x="158" y="206" type="curve"/>
			<point x="160" y="202" type="line"/>
			<point x="232" y="202" type="line"/>
			<point x="306" y="298"/>
			<point x="362" y="367"/>
			<point x="362" y="462" type="curve" smooth="yes"/>
			<point x="362" y="544"/>
			<point x="299" y="596"/>
			<point x="204" y="596" type="curve" smooth="yes"/>
			<point x="137" y="596"/>
			<point x="88" y="570"/>
			<point x="45" y="529" type="curve"/>
			<point x="85" y="474" type="line"/>
			<point x="122" y="506"/>
			<point x="155" y="523"/>
			<point x="198" y="523" type="curve" smooth="yes"/>
			<point x="263" y="523"/>
			<point x="292" y="485"/>
			<point x="292" y="442" type="curve" smooth="yes"/>
			<point x="292" y="372"/>
			<point x="245" y="311"/>
		</contour>
		<contour>
			<point x="198" y="-12" type="curve" smooth="yes"/>
			<point x="231" y="-12"/>
			<point x="258" y="14"/>
			<point x="258" y="50" type="curve" smooth="yes"/>
			<point x="258" y="88"/>
			<point x="231" y="114"/>
			<point x="198" y="114" type="curve" smooth="yes"/>
			<point x="165" y="114"/>
			<point x="139" y="88"/>
			<point x="139" y="50" type="curve" smooth="yes"/>
			<point x="139" y="14"/>
			<point x="165" y="-12"/>
		</contour>
	</outline>
</glyph>
<glyph name="at.S" format="2">
	<unicode hex="0040"/>
	<advance width="755"/>
	<outline>
		<contour>
			<point x="350" y="-65" type="curve" smooth="yes"/>
			<point x="411" y="-65"/>
			<point x="470" y="-53"/>
			<point x="520" y="-24" type="curve"/>
			<point x="496" y="26" type="line"/>
			<point x="459" y="3"/>
			<point x="404" y="-6"/>
			<point x="356" y="-6" type="curve" smooth="yes"/>
			<point x="210" y="-6"/>
			<point x="105" y="70"/>
			<point x="105" y="239" type="curve" smooth="yes"/>
			<point x="105" y="433"/>
			<point x="254" y="558"/>
			<point x="413" y="558" type="curve" smooth="yes"/>
			<point x="571" y="558"/>
			<point x="651" y="468"/>
			<point x="651" y="341" type="curve" smooth="yes"/>
			<point x="651" y="214"/>
			<point x="589" y="148"/>
			<point x="538" y="148" type="curve" smooth="yes"/>
			<point x="489" y="148"/>
			<point x="476" y="181"/>
			<point x="493" y="262" type="curve" smooth="yes"/>
			<point x="534" y="440" type="line"/>
			<point x="487" y="440" type="line"/>
			<point x="474" y="399" type="line"/>
			<point x="472" y="399" type="line"/>
			<point x="456" y="433"/>
			<point x="429" y="448"/>
			<point x="397" y="448" type="curve" smooth="yes"/>
			<point x="299" y="448"/>
			<point x="222" y="344"/>
			<point x="222" y="225" type="curve" smooth="yes"/>
			<point x="222" y="143"/>
			<point x="269" y="100"/>
			<point x="325" y="100" type="curve" smooth="yes"/>
			<point x="370" y="100"/>
			<point x="409" y="130"/>
			<point x="439" y="168" type="curve"/>
			<point x="441" y="168" type="line"/>
			<point x="447" y="121"/>
			<point x="480" y="92"/>
			<point x="530" y="92" type="curve" smooth="yes"/>
			<point x="617" y="92"/>
			<point x="704" y="181"/>
			<point x="704" y="344" type="curve" smooth="yes"/>
			<point x="704" y="507"/>
			<point x="592" y="617"/>
			<point x="421" y="617" type="curve" smooth="yes"/>
			<point x="221" y="617"/>
			<point x="51" y="466"/>
			<point x="51" y="236" type="curve" smooth="yes"/>
			<point x="51" y="34"/>
			<point x="180" y="-65"/>
		</contour>
		<contour>
			<point x="343" y="162" type="curve" smooth="yes"/>
			<point x="307" y="162"/>
			<point x="279" y="189"/>
			<point x="279" y="243" type="curve" smooth="yes"/>
			<point x="279" y="312"/>
			<point x="325" y="386"/>
			<point x="395" y="386" type="curve" smooth="yes"/>
			<point x="423" y="386"/>
			<point x="438" y="377"/>
			<point x="457" y="351" type="curve"/>
			<point x="429" y="213" type="line"/>
			<point x="397" y="178"/>
			<point x="368" y="162"/>
		</contour>
	</outline>
</glyph>
<glyph name="I" format="2">
	<unicode hex="0049"/>
	<advance width="263"/>
	<outline>
		<contour>
			<point x="90" y="0" type="line"/>
			<point x="173" y="0" type="line"/>
			<point x="173" y="656" type="line"/>
			<point x="90" y="656" type="line"/>
		</contour>
	</outline>
	<anchor name="aboveUC" x="131" y="676"/>
	<anchor name="belowLC" x="131" y="-20"/>
	<anchor name="ogonekUC" x="108" y="0"/>
	<anchor name="baseLC" x="132" y="0"/>
</glyph>
<glyph name="c" format="2">
	<unicode hex="0063"/>
	<advance width="456"/>
	<outline>
		<contour>
			<point x="277" y="-12" type="curve" smooth="yes"/>
			<point x="340" y="-12"/>
			<point x="390" y="14"/>
			<point x="431" y="53" type="curve"/>
			<point x="395" y="102" type="line"/>
			<point x="366" y="75"/>
			<point x="326" y="56"/>
			<point x="282" y="56" type="curve" smooth="yes"/>
			<point x="192" y="56"/>
			<point x="131" y="131"/>
			<point x="131" y="242" type="curve" smooth="yes"/>
			<point x="131" y="354"/>
			<point x="196" y="430"/>
			<point x="283" y="430" type="curve" smooth="yes"/>
			<point x="325" y="430"/>
			<point x="357" y="415"/>
			<point x="382" y="391" type="curve"/>
			<point x="421" y="440" type="line"/>
			<point x="388" y="474"/>
			<point x="343" y="498"/>
			<point x="280" y="498" type="curve" smooth="yes"/>
			<point x="155" y="498"/>
			<point x="46" y="405"/>
			<point x="46" y="242" type="curve" smooth="yes"/>
			<point x="46" y="81"/>
			<point x="146" y="-12"/>
		</contour>
	</outline>
	<anchor name="aboveLC" x="274" y="509"/>
	<anchor name="aboverightLC" x="414" y="509"/>
	<anchor name="baseLC" x="266" y="0"/>
	<anchor name="belowLC" x="266" y="-22"/>
</glyph>
<glyph name="e" format="2">
	<unicode hex="0065"/>
	<advance width="496"/>
	<outline>
		<contour>
			<point x="279" y="-12" type="curve" smooth="yes"/>
			<point x="345" y="-12"/>
			<point x="397" y="11"/>
			<point x="439" y="38" type="curve"/>
			<point x="410" y="92" type="line"/>
			<point x="374" y="69"/>
			<point x="335" y="54"/>
			<point x="289" y="54" type="curve" smooth="yes"/>
			<point x="200" y="54"/>
			<point x="124" y="116"/>
			<point x="124" y="242" type="curve" smooth="yes"/>
			<point x="124" y="375"/>
			<point x="196" y="433"/>
			<point x="266" y="433" type="curve" smooth="yes"/>
			<point x="342" y="433"/>
			<point x="386" y="380"/>
			<point x="386" y="282" type="curve"/>
			<point x="109" y="282" type="line"/>
			<point x="110" y="223" type="line"/>
			<point x="455" y="223" type="line"/>
			<point x="457" y="235"/>
			<point x="458" y="253"/>
			<point x="458" y="270" type="curve" smooth="yes"/>
			<point x="458" y="409"/>
			<point x="388" y="498"/>
			<point x="264" y="498" type="curve" smooth="yes"/>
			<point x="153" y="498"/>
			<point x="46" y="401"/>
			<point x="46" y="242" type="curve" smooth="yes"/>
			<point x="46" y="83"/>
			<point x="149" y="-12"/>
		</contour>
	</outline>
	<anchor name="aboveLC" x="267" y="507"/>
	<anchor name="belowLC" x="257" y="-20"/>
	<anchor name="ogonekLC" x="370" y="0"/>
	<anchor name="baseLC" x="257" y="0"/>
</glyph>
<glyph name="i" format="2">
	<unicode hex="0069"/>
	<advance width="246"/>
	<outline>
		<contour>
			<point x="82" y="0" type="line"/>
			<point x="164" y="0" type="line"/>
			<point x="164" y="486" type="line"/>
			<point x="82" y="486" type="line"/>
		</contour>
		<contour>
			<point x="124" y="586" type="curve" smooth="yes"/>
			<point x="155" y="586"/>
			<point x="178" y="608"/>
			<point x="178" y="640" type="curve" smooth="yes"/>
			<point x="178" y="671"/>
			<point x="155" y="694"/>
			<point x="124" y="694" type="curve" smooth="yes"/>
			<point x="93" y="694"/>
			<point x="70" y="671"/>
			<point x="70" y="640" type="curve" smooth="yes"/>
			<point x="70" y="608"/>
			<point x="93" y="586"/>
		</contour>
	</outline>
	<anchor name="belowLC" x="123" y="-20"/>
	<anchor name="ogonekLC" x="152" y="0"/>
	<anchor name="aboveUC" x="123" y="585"/>
	<anchor name="baseLC" x="123" y="0"/>
</glyph>
<glyph name="z" format="2">
	<unicode hex="007A"/>
	<advance width="425"/>
	<outline>
		<contour>
			<point x="31" y="0" type="line"/>
			<point x="399" y="0" type="line"/>
			<point x="399" y="67" type="line"/>
			<point x="135" y="67" type="line"/>
			<point x="391" y="442" type="line"/>
			<point x="391" y="486" type="line"/>
			<point x="59" y="486" type="line"/>
			<point x="59" y="419" type="line"/>
			<point x="287" y="419" type="line"/>
			<point x="31" y="44" type="line"/>
		</contour>
	</outline>
	<anchor name="aboveLC" x="232" y="507"/>
	<anchor name="belowLC" x="227" y="-20"/>
	<anchor name="baseLC" x="217" y="0"/>
</glyph>
<glyph name="cent.S" format="2">
	<unicode hex="00A2"/>
	<advance width="497"/>
	<outline>
		<contour>
			<point x="309" y="35" type="curve" smooth="yes"/>
			<point x="370" y="35"/>
			<point x="422" y="59"/>
			<point x="463" y="94" type="curve"/>
			<point x="426" y="152" type="line"/>
			<point x="394" y="127"/>
			<point x="355" y="110"/>
			<point x="311" y="110" type="curve" smooth="yes"/>
			<point x="211" y="110"/>
			<point x="137" y="163"/>
			<point x="137" y="281" type="curve" smooth="yes"/>
			<point x="137" y="394"/>
			<point x="214" y="443"/>
			<point x="302" y="443" type="curve" smooth="yes"/>
			<point x="345" y="443"/>
			<point x="376" y="432"/>
			<point x="413" y="404" type="curve"/>
			<point x="450" y="463" type="line"/>
			<point x="406" y="499"/>
			<point x="360" y="517"/>
			<point x="300" y="517" type="curve" smooth="yes"/>
			<point x="173" y="517"/>
			<point x="67" y="442"/>
			<point x="67" y="279" type="curve" smooth="yes"/>
			<point x="67" y="113"/>
			<point x="170" y="35"/>
		</contour>
		<contour>
			<point x="265" y="-67" type="line"/>
			<point x="316" y="-67" type="line"/>
			<point x="316" y="620" type="line"/>
			<point x="265" y="620" type="line"/>
		</contour>
	</outline>
</glyph>
<glyph name="cent" format="2">
	<unicode hex="00A2"/>
	<advance width="497"/>
	<outline>
		<contour>
			<point x="293" y="69" type="curve" smooth="yes"/>
			<point x="359" y="69"/>
			<point x="412" y="97"/>
			<point x="454" y="135" type="curve"/>
			<point x="419" y="185" type="line"/>
			<point x="386" y="157"/>
			<point x="345" y="138"/>
			<point x="298" y="138" type="curve" smooth="yes"/>
			<point x="205" y="138"/>
			<point x="143" y="206"/>
			<point x="143" y="310" type="curve" smooth="yes"/>
			<point x="143" y="414"/>
			<point x="209" y="482"/>
			<point x="300" y="482" type="curve" smooth="yes"/>
			<point x="343" y="482"/>
			<point x="377" y="466"/>
			<point x="405" y="441" type="curve"/>
			<point x="445" y="490" type="line"/>
			<point x="410" y="524"/>
			<point x="363" y="550"/>
			<point x="296" y="550" type="curve" smooth="yes"/>
			<point x="172" y="550"/>
			<point x="62" y="464"/>
			<point x="62" y="310" type="curve" smooth="yes"/>
			<point x="62" y="156"/>
			<point x="162" y="69"/>
		</contour>
		<contour>
			<point x="262" y="-33" type="line"/>
			<point x="314" y="-33" type="line"/>
			<point x="314" y="653" type="line"/>
			<point x="262" y="653" type="line"/>
		</contour>
	</outline>
</glyph>
<glyph name="sterling.S" format="2">
	<unicode hex="00A3"/>
	<advance width="497"/>
	<outline>
		<contour>
			<point x="54" y="0" type="line"/>
			<point x="453" y="0" type="line"/>
			<point x="453" y="69" type="line"/>
			<point x="173" y="69" type="line"/>
			<point x="173" y="73" type="line"/>
			<point x="209" y="112"/>
			<point x="229" y="154"/>
			<point x="229" y="216" type="curve" smooth="yes"/>
			<point x="229" y="283"/>
			<point x="185" y="330"/>
			<point x="185" y="392" type="curve" smooth="yes"/>
			<point x="185" y="460"/>
			<point x="234" y="492"/>
			<point x="293" y="492" type="curve" smooth="yes"/>
			<point x="336" y="492"/>
			<point x="366" y="480"/>
			<point x="406" y="452" type="curve"/>
			<point x="443" y="511" type="line"/>
			<point x="397" y="549"/>
			<point x="349" y="566"/>
			<point x="287" y="566" type="curve" smooth="yes"/>
			<point x="190" y="566"/>
			<point x="111" y="514"/>
			<point x="111" y="405" type="curve" smooth="yes"/>
			<point x="111" y="338"/>
			<point x="161" y="283"/>
			<point x="161" y="217" type="curve" smooth="yes"/>
			<point x="161" y="147"/>
			<point x="122" y="91"/>
			<point x="54" y="54" type="curve"/>
		</contour>
		<contour>
			<point x="53" y="248" type="line"/>
			<point x="375" y="248" type="line"/>
			<point x="375" y="304" type="line"/>
			<point x="120" y="304" type="line"/>
			<point x="53" y="301" type="line"/>
		</contour>
	</outline>
</glyph>
<glyph name="yen.S" format="2">
	<unicode hex="00A5"/>
	<advance width="497"/>
	<outline>
		<contour>
			<point x="212" y="0" type="line"/>
			<point x="285" y="0" type="line"/>
			<point x="285" y="145" type="line"/>
			<point x="452" y="145" type="line"/>
			<point x="452" y="194" type="line"/>
			<point x="285" y="194" type="line"/>
			<point x="285" y="262" type="line"/>
			<point x="452" y="262" type="line"/>
			<point x="452" y="311" type="line"/>
			<point x="310" y="311" type="line"/>
			<point x="474" y="554" type="line"/>
			<point x="388" y="554" type="line"/>
			<point x="313" y="433" type="line" smooth="yes"/>
			<point x="290" y="394"/>
			<point x="274" y="366"/>
			<point x="251" y="321" type="curve"/>
			<point x="247" y="321" type="line"/>
			<point x="224" y="366"/>
			<point x="207" y="394"/>
			<point x="186" y="433" type="curve" smooth="yes"/>
			<point x="111" y="554" type="line"/>
			<point x="23" y="554" type="line"/>
			<point x="186" y="311" type="line"/>
			<point x="45" y="311" type="line"/>
			<point x="45" y="262" type="line"/>
			<point x="212" y="262" type="line"/>
			<point x="212" y="194" type="line"/>
			<point x="45" y="194" type="line"/>
			<point x="45" y="145" type="line"/>
			<point x="212" y="145" type="line"/>
		</contour>
	</outline>
</glyph>
<glyph name="copyright.S" format="2">
	<unicode hex="00A9"/>
	<advance width="744"/>
	<outline>
		<contour>
			<point x="372" y="-54" type="curve" smooth="yes"/>
			<point x="549" y="-54"/>
			<point x="694" y="73"/>
			<point x="694" y="277" type="curve" smooth="yes"/>
			<point x="694" y="481"/>
			<point x="549" y="608"/>
			<point x="372" y="608" type="curve" smooth="yes"/>
			<point x="196" y="608"/>
			<point x="50" y="481"/>
			<point x="50" y="277" type="curve" smooth="yes"/>
			<point x="50" y="73"/>
			<point x="196" y="-54"/>
		</contour>
		<contour>
			<point x="372" y="-8" type="curve" smooth="yes"/>
			<point x="217" y="-8"/>
			<point x="93" y="105"/>
			<point x="93" y="277" type="curve" smooth="yes"/>
			<point x="93" y="450"/>
			<point x="217" y="562"/>
			<point x="372" y="562" type="curve" smooth="yes"/>
			<point x="527" y="562"/>
			<point x="652" y="450"/>
			<point x="652" y="277" type="curve" smooth="yes"/>
			<point x="652" y="105"/>
			<point x="527" y="-8"/>
		</contour>
		<contour>
			<point x="381" y="84" type="curve" smooth="yes"/>
			<point x="437" y="84"/>
			<point x="471" y="101"/>
			<point x="507" y="135" type="curve"/>
			<point x="477" y="182" type="line"/>
			<point x="446" y="157"/>
			<point x="426" y="146"/>
			<point x="384" y="146" type="curve" smooth="yes"/>
			<point x="311" y="146"/>
			<point x="261" y="195"/>
			<point x="261" y="278" type="curve" smooth="yes"/>
			<point x="261" y="359"/>
			<point x="312" y="410"/>
			<point x="382" y="410" type="curve" smooth="yes"/>
			<point x="416" y="410"/>
			<point x="438" y="402"/>
			<point x="466" y="378" type="curve"/>
			<point x="497" y="423" type="line"/>
			<point x="466" y="454"/>
			<point x="428" y="471"/>
			<point x="381" y="471" type="curve" smooth="yes"/>
			<point x="283" y="471"/>
			<point x="204" y="399"/>
			<point x="204" y="276" type="curve" smooth="yes"/>
			<point x="204" y="155"/>
			<point x="282" y="84"/>
		</contour>
	</outline>
</glyph>
<glyph name="paragraph.S" format="2">
	<unicode hex="00B6"/>
	<advance width="560"/>
	<outline>
		<contour>
			<point x="380" y="-120" type="line"/>
			<point x="464" y="-120" type="line"/>
			<point x="464" y="554" type="line"/>
			<point x="380" y="554" type="line"/>
		</contour>
		<contour>
			<point x="293" y="124" type="curve" smooth="yes"/>
			<point x="326" y="124" type="line"/>
			<point x="326" y="554" type="line"/>
			<point x="282" y="554" type="line" smooth="yes"/>
			<point x="144" y="554"/>
			<point x="41" y="498"/>
			<point x="41" y="341" type="curve" smooth="yes"/>
			<point x="41" y="190"/>
			<point x="148" y="124"/>
		</contour>
	</outline>
</glyph>
<glyph name="Eth" format="2">
	<unicode hex="00D0"/>
	<advance width="635"/>
	<outline>
		<contour>
			<point x="22" y="316" type="line"/>
			<point x="342" y="316" type="line"/>
			<point x="342" y="375" type="line"/>
			<point x="112" y="375" type="line"/>
			<point x="22" y="370" type="line"/>
		</contour>
		<component base="D" xOffset="20"/>
	</outline>
	<anchor name="aboveUC" x="331" y="678"/>
	<anchor name="belowLC" x="321" y="-22"/>
</glyph>
<glyph name="hbar" format="2">
	<unicode hex="0127"/>
	<advance width="557"/>
	<outline>
		<contour>
			<point x="95" y="0" type="line"/>
			<point x="177" y="0" type="line"/>
			<point x="177" y="313" type="line"/>
			<point x="226" y="363"/>
			<point x="260" y="388"/>
			<point x="310" y="388" type="curve" smooth="yes"/>
			<point x="374" y="388"/>
			<point x="402" y="349"/>
			<point x="402" y="259" type="curve" smooth="yes"/>
			<point x="402" y="0" type="line"/>
			<point x="484" y="0" type="line"/>
			<point x="484" y="269" type="line" smooth="yes"/>
			<point x="484" y="393"/>
			<point x="438" y="459"/>
			<point x="335" y="459" type="curve" smooth="yes"/>
			<point x="269" y="459"/>
			<point x="219" y="423"/>
			<point x="174" y="379" type="curve"/>
			<point x="177" y="479" type="line"/>
			<point x="177" y="712" type="line"/>
			<point x="95" y="712" type="line"/>
		</contour>
		<contour>
			<point x="11" y="560" type="line"/>
			<point x="359" y="560" type="line"/>
			<point x="359" y="619" type="line"/>
			<point x="98" y="619" type="line"/>
			<point x="11" y="614" type="line"/>
		</contour>
	</outline>
</glyph>
<glyph name="ismall" format="2">
	<unicode hex="026A"/>
	<advance width="341"/>
	<outline>
		<contour>
			<point x="46" y="0" type="line"/>
			<point x="295" y="0" type="line"/>
			<point x="295" y="67" type="line"/>
			<point x="212" y="67" type="line"/>
			<point x="212" y="419" type="line"/>
			<point x="295" y="419" type="line"/>
			<point x="295" y="486" type="line"/>
			<point x="46" y="486" type="line"/>
			<point x="46" y="419" type="line"/>
			<point x="130" y="419" type="line"/>
			<point x="130" y="67" type="line"/>
			<point x="46" y="67" type="line"/>
		</contour>
	</outline>
	<anchor name="aboveLC" x="171" y="507"/>
	<anchor name="belowLC" x="171" y="-20"/>
	<anchor name="ogonekUC" x="148" y="0"/>
</glyph>
<glyph name="dezh" format="2">
	<unicode hex="02A4"/>
	<advance width="885"/>
	<outline>
		<contour>
			<point x="427" y="419" type="line"/>
			<point x="568" y="419" type="line"/>
			<point x="568" y="486" type="line"/>
			<point x="427" y="486" type="line"/>
		</contour>
		<component base="d"/>
		<component base="ezh" xOffset="461"/>
	</outline>
	<anchor name="aboveUC" x="441" y="730"/>
	<anchor name="belowLC" x="360" y="-20"/>
</glyph>
<glyph name="primemod" format="2">
	<unicode hex="02B9"/>
	<advance width="249"/>
	<outline>
		<contour>
			<point x="131" y="481" type="line"/>
			<point x="171" y="630" type="line"/>
			<point x="188" y="719" type="line"/>
			<point x="108" y="725" type="line"/>
			<point x="78" y="486" type="line"/>
		</contour>
	</outline>
</glyph>
<glyph name="dotaccentcmb" format="2">
	<unicode hex="0307"/>
	<outline>
		<contour>
			<point x="0" y="586" type="curve" smooth="yes"/>
			<point x="31" y="586"/>
			<point x="54" y="608"/>
			<point x="54" y="640" type="curve" smooth="yes"/>
			<point x="54" y="671"/>
			<point x="31" y="694"/>
			<point x="0" y="694" type="curve" smooth="yes"/>
			<point x="-31" y="694"/>
			<point x="-54" y="671"/>
			<point x="-54" y="640" type="curve" smooth="yes"/>
			<point x="-54" y="608"/>
			<point x="-31" y="586"/>
		</contour>
	</outline>
	<anchor name="_aboveLC" x="0" y="507"/>
	<anchor name="aboveLC" x="0" y="695"/>
</glyph>
<glyph name="heHatafSegol" format="2">
	<unicode hex="05B1"/>
	<outline>
		<contour>
			<point x="124" y="-274" type="curve" smooth="yes"/>
			<point x="145" y="-274"/>
			<point x="159" y="-258"/>
			<point x="159" y="-238" type="curve" smooth="yes"/>
			<point x="159" y="-218"/>
			<point x="145" y="-204"/>
			<point x="124" y="-204" type="curve" smooth="yes"/>
			<point x="104" y="-204"/>
			<point x="90" y="-218"/>
			<point x="90" y="-238" type="curve" smooth="yes"/>
			<point x="90" y="-258"/>
			<point x="104" y="-274"/>
		</contour>
		<contour>
			<point x="124" y="-150" type="curve" smooth="yes"/>
			<point x="145" y="-150"/>
			<point x="159" y="-136"/>
			<point x="159" y="-116" type="curve" smooth="yes"/>
			<point x="159" y="-96"/>
			<point x="145" y="-81"/>
			<point x="124" y="-81" type="curve" smooth="yes"/>
			<point x="104" y="-81"/>
			<point x="90" y="-96"/>
			<point x="90" y="-116" type="curve" smooth="yes"/>
			<point x="90" y="-136"/>
			<point x="104" y="-150"/>
		</contour>
		<contour>
			<point x="1" y="-150" type="curve" smooth="yes"/>
			<point x="22" y="-150"/>
			<point x="35" y="-136"/>
			<point x="35" y="-116" type="curve" smooth="yes"/>
			<point x="35" y="-96"/>
			<point x="22" y="-81"/>
			<point x="1" y="-81" type="curve" smooth="yes"/>
			<point x="-18" y="-81"/>
			<point x="-34" y="-96"/>
			<point x="-34" y="-116" type="curve" smooth="yes"/>
			<point x="-34" y="-136"/>
			<point x="-18" y="-150"/>
		</contour>
		<contour>
			<point x="-60" y="-274" type="curve" smooth="yes"/>
			<point x="-42" y="-274"/>
			<point x="-28" y="-258"/>
			<point x="-28" y="-238" type="curve" smooth="yes"/>
			<point x="-28" y="-218"/>
			<point x="-42" y="-204"/>
			<point x="-60" y="-204" type="curve" smooth="yes"/>
			<point x="-81" y="-204"/>
			<point x="-96" y="-218"/>
			<point x="-96" y="-238" type="curve" smooth="yes"/>
			<point x="-96" y="-258"/>
			<point x="-81" y="-274"/>
		</contour>
		<contour>
			<point x="-124" y="-150" type="curve" smooth="yes"/>
			<point x="-104" y="-150"/>
			<point x="-91" y="-136"/>
			<point x="-91" y="-116" type="curve" smooth="yes"/>
			<point x="-91" y="-96"/>
			<point x="-104" y="-81"/>
			<point x="-124" y="-81" type="curve" smooth="yes"/>
			<point x="-144" y="-81"/>
			<point x="-158" y="-96"/>
			<point x="-158" y="-116" type="curve" smooth="yes"/>
			<point x="-158" y="-136"/>
			<point x="-144" y="-150"/>
		</contour>
	</outline>
	<anchor name="_belowPrimaryHE" x="0" y="-30"/>
	<anchor name="_belowLeftHE" x="-141" y="-30"/>
	<anchor name="belowPrimaryHE" x="-229" y="-30"/>
	<anchor name="_belowSecondaryHE" x="70" y="-30"/>
</glyph>
<glyph name="heHatafPatah" format="2">
	<unicode hex="05B2"/>
	<outline>
		<contour>
			<point x="-130" y="-129" type="line"/>
			<point x="13" y="-129" type="line"/>
			<point x="13" y="-86" type="line"/>
			<point x="-130" y="-86" type="line"/>
		</contour>
		<contour>
			<point x="104" y="-157" type="curve" smooth="yes"/>
			<point x="125" y="-157"/>
			<point x="142" y="-142"/>
			<point x="142" y="-119" type="curve" smooth="yes"/>
			<point x="142" y="-97"/>
			<point x="125" y="-81"/>
			<point x="104" y="-81" type="curve" smooth="yes"/>
			<point x="83" y="-81"/>
			<point x="66" y="-97"/>
			<point x="66" y="-119" type="curve" smooth="yes"/>
			<point x="66" y="-141"/>
			<point x="83" y="-157"/>
		</contour>
		<contour>
			<point x="104" y="-280" type="curve" smooth="yes"/>
			<point x="125" y="-280"/>
			<point x="142" y="-265"/>
			<point x="142" y="-242" type="curve" smooth="yes"/>
			<point x="142" y="-220"/>
			<point x="125" y="-203"/>
			<point x="104" y="-203" type="curve" smooth="yes"/>
			<point x="83" y="-203"/>
			<point x="66" y="-220"/>
			<point x="66" y="-242" type="curve" smooth="yes"/>
			<point x="66" y="-264"/>
			<point x="83" y="-280"/>
		</contour>
	</outline>
	<anchor name="_belowPrimaryHE" x="0" y="-30"/>
	<anchor name="_belowLeftHE" x="-127" y="-30"/>
	<anchor name="belowPrimaryHE" x="-191" y="-30"/>
	<anchor name="_belowSecondaryHE" x="50" y="-30"/>
</glyph>
<glyph name="heHiriq" format="2">
	<unicode hex="05B4"/>
	<outline>
		<contour>
			<point x="0" y="-157" type="curve" smooth="yes"/>
			<point x="21" y="-157"/>
			<point x="38" y="-142"/>
			<point x="38" y="-119" type="curve" smooth="yes"/>
			<point x="38" y="-97"/>
			<point x="21" y="-81"/>
			<point x="0" y="-81" type="curve" smooth="yes"/>
			<point x="-21" y="-81"/>
			<point x="-38" y="-97"/>
			<point x="-38" y="-119" type="curve" smooth="yes"/>
			<point x="-38" y="-141"/>
			<point x="-21" y="-157"/>
		</contour>
	</outline>
	<anchor name="_belowPrimaryHE" x="0" y="-30"/>
	<anchor name="_belowLeftHE" x="-29" y="-30"/>
	<anchor name="_belowRightHE" x="29" y="-30"/>
	<anchor name="belowPrimaryHE" x="-104" y="-30"/>
	<anchor name="_belowSecondaryHE" x="0" y="-30"/>
	<guideline y="-133" identifier="4QcKMXi29o"/>
</glyph>
<glyph name="hePatah" format="2">
	<unicode hex="05B7"/>
	<outline>
		<contour>
			<point x="-105" y="-129" type="line"/>
			<point x="105" y="-129" type="line"/>
			<point x="105" y="-86" type="line"/>
			<point x="-105" y="-86" type="line"/>
		</contour>
	</outline>
	<anchor name="_belowPrimaryHE" x="0" y="-30"/>
	<anchor name="_belowLeftHE" x="-104" y="-30"/>
	<anchor name="_belowRightHE" x="104" y="-30"/>
	<anchor name="belowPrimaryHE" x="-167" y="-30"/>
	<anchor name="_belowSecondaryHE" x="16" y="-30"/>
	<guideline x="-157" identifier="QGO5vhQEkK"/>
</glyph>
<glyph name="heQamats" format="2">
	<unicode hex="05B8"/>
	<outline>
		<contour>
			<point x="-21" y="-241" type="line"/>
			<point x="21" y="-241" type="line"/>
			<point x="21" y="-139" type="line"/>
			<point x="95" y="-139" type="line"/>
			<point x="95" y="-96" type="line"/>
			<point x="-95" y="-96" type="line"/>
			<point x="-95" y="-139" type="line"/>
			<point x="-21" y="-139" type="line"/>
		</contour>
	</outline>
	<anchor name="_belowPrimaryHE" x="0" y="-27"/>
	<anchor name="_belowLeftHE" x="-101" y="-27"/>
	<anchor name="_belowRightHE" x="101" y="-27"/>
	<anchor name="belowPrimaryHE" x="-167" y="-27"/>
	<anchor name="_belowSecondaryHE" x="0" y="-27"/>
	<guideline y="46" identifier="Ota23jXeoc"/>
	<guideline x="-87" identifier="sFmUGK18RC"/>
	<guideline x="-167" identifier="prZ02GHauW"/>
</glyph>
<glyph name="heHolam" format="2">
	<unicode hex="05B9"/>
	<outline>
		<contour>
			<point x="0" y="612" type="curve" smooth="yes"/>
			<point x="21" y="612"/>
			<point x="38" y="627"/>
			<point x="38" y="650" type="curve" smooth="yes"/>
			<point x="38" y="672"/>
			<point x="21" y="688"/>
			<point x="0" y="688" type="curve" smooth="yes"/>
			<point x="-21" y="688"/>
			<point x="-38" y="672"/>
			<point x="-38" y="650" type="curve" smooth="yes"/>
			<point x="-38" y="627"/>
			<point x="-21" y="612"/>
		</contour>
	</outline>
	<anchor name="_aboveLeftHE" x="0" y="568"/>
</glyph>
<glyph name="heQubuts" format="2">
	<unicode hex="05BB"/>
	<outline>
		<contour>
			<point x="-76" y="-148" type="curve" smooth="yes"/>
			<point x="-55" y="-148"/>
			<point x="-39" y="-134"/>
			<point x="-39" y="-112" type="curve" smooth="yes"/>
			<point x="-39" y="-91"/>
			<point x="-55" y="-75"/>
			<point x="-76" y="-75" type="curve" smooth="yes"/>
			<point x="-97" y="-75"/>
			<point x="-112" y="-92"/>
			<point x="-112" y="-112" type="curve" smooth="yes"/>
			<point x="-112" y="-134"/>
			<point x="-97" y="-148"/>
		</contour>
		<contour>
			<point x="0" y="-236" type="curve" smooth="yes"/>
			<point x="21" y="-236"/>
			<point x="37" y="-219"/>
			<point x="37" y="-199" type="curve" smooth="yes"/>
			<point x="37" y="-178"/>
			<point x="21" y="-163"/>
			<point x="0" y="-163" type="curve" smooth="yes"/>
			<point x="-21" y="-163"/>
			<point x="-37" y="-178"/>
			<point x="-37" y="-199" type="curve" smooth="yes"/>
			<point x="-37" y="-219"/>
			<point x="-21" y="-236"/>
		</contour>
		<contour>
			<point x="76" y="-324" type="curve" smooth="yes"/>
			<point x="94" y="-324"/>
			<point x="111" y="-310"/>
			<point x="111" y="-288" type="curve" smooth="yes"/>
			<point x="111" y="-268"/>
			<point x="94" y="-252"/>
			<point x="76" y="-252" type="curve" smooth="yes"/>
			<point x="54" y="-252"/>
			<point x="39" y="-268"/>
			<point x="39" y="-288" type="curve" smooth="yes"/>
			<point x="39" y="-310"/>
			<point x="54" y="-324"/>
		</contour>
	</outline>
	<anchor name="_belowPrimaryHE" x="0" y="-30"/>
	<anchor name="_belowLeftHE" x="-113" y="-30"/>
	<anchor name="_belowRightHE" x="65" y="-30"/>
	<anchor name="belowPrimaryHE" x="-177" y="-30"/>
	<anchor name="_belowSecondaryHE" x="0" y="-30"/>
	<guideline x="-181" identifier="q1OXs8zNLH"/>
</glyph>
<glyph name="heDagesh" format="2">
	<unicode hex="05BC"/>
	<outline>
		<contour>
			<point x="0" y="234" type="curve" smooth="yes"/>
			<point x="21" y="234"/>
			<point x="38" y="249"/>
			<point x="38" y="272" type="curve" smooth="yes"/>
			<point x="38" y="294"/>
			<point x="21" y="310"/>
			<point x="0" y="310" type="curve" smooth="yes"/>
			<point x="-21" y="310"/>
			<point x="-38" y="294"/>
			<point x="-38" y="272" type="curve" smooth="yes"/>
			<point x="-38" y="250"/>
			<point x="-21" y="234"/>
		</contour>
	</outline>
	<anchor name="_centerHE" x="0" y="272"/>
	<anchor name="centerSecondaryHE" x="0" y="218"/>
	<anchor name="_centerSecondaryHE" x="0" y="360"/>
	<guideline y="285" identifier="znpAucETLd"/>
</glyph>
<glyph name="heMeteg" format="2">
	<unicode hex="05BD"/>
	<outline>
		<contour>
			<point x="-17" y="-267" type="line"/>
			<point x="17" y="-267" type="line"/>
			<point x="17" y="-89" type="line"/>
			<point x="-17" y="-89" type="line"/>
		</contour>
	</outline>
	<anchor name="_belowPrimaryHE" x="0" y="-30"/>
	<anchor name="_belowLeftHE" x="-22" y="-30"/>
	<anchor name="_belowRightHE" x="22" y="-30"/>
	<anchor name="_belowSecondaryHE" x="0" y="-30"/>
</glyph>
<glyph name="heMaqaf" format="2">
	<unicode hex="05BE"/>
	<advance width="330"/>
	<outline>
		<contour>
			<point x="36" y="449" type="line"/>
			<point x="294" y="449" type="line"/>
			<point x="294" y="537" type="line"/>
			<point x="36" y="537" type="line"/>
		</contour>
	</outline>
</glyph>
<glyph name="heRafe" format="2">
	<unicode hex="05BF"/>
	<outline>
		<contour>
			<point x="-105" y="621" type="line"/>
			<point x="105" y="621" type="line"/>
			<point x="105" y="665" type="line"/>
			<point x="-105" y="665" type="line"/>
		</contour>
	</outline>
	<anchor name="_aboveHE" x="0" y="566"/>
</glyph>
<glyph name="hePaseq" format="2">
	<unicode hex="05C0"/>
	<advance width="264"/>
	<outline>
		<contour>
			<point x="100" y="-106" type="line"/>
			<point x="159" y="-106" type="line"/>
			<point x="159" y="648" type="line"/>
			<point x="100" y="648" type="line"/>
		</contour>
	</outline>
</glyph>
<glyph name="heSofPasuq" format="2">
	<unicode hex="05C3"/>
	<advance width="270"/>
	<outline>
		<contour>
			<point x="135" y="380" type="curve" smooth="yes"/>
			<point x="171" y="380"/>
			<point x="194" y="408"/>
			<point x="194" y="442" type="curve" smooth="yes"/>
			<point x="194" y="479"/>
			<point x="171" y="504"/>
			<point x="136" y="504" type="curve" smooth="yes"/>
			<point x="101" y="504"/>
			<point x="77" y="478"/>
			<point x="77" y="442" type="curve" smooth="yes"/>
			<point x="76" y="408"/>
			<point x="101" y="380"/>
		</contour>
		<contour>
			<point x="135" y="-11" type="curve" smooth="yes"/>
			<point x="171" y="-11"/>
			<point x="194" y="16"/>
			<point x="194" y="50" type="curve" smooth="yes"/>
			<point x="194" y="88"/>
			<point x="171" y="113"/>
			<point x="136" y="113" type="curve" smooth="yes"/>
			<point x="101" y="113"/>
			<point x="77" y="87"/>
			<point x="77" y="50" type="curve" smooth="yes"/>
			<point x="76" y="16"/>
			<point x="101" y="-11"/>
		</contour>
	</outline>
</glyph>
<glyph name="heQamatsQatan" format="2">
	<unicode hex="05C7"/>
	<outline>
		<contour>
			<point x="-24" y="-298" type="line"/>
			<point x="24" y="-298" type="line"/>
			<point x="19" y="-129" type="line"/>
			<point x="91" y="-129" type="line"/>
			<point x="91" y="-86" type="line"/>
			<point x="-93" y="-86" type="line"/>
			<point x="-93" y="-129" type="line"/>
			<point x="-19" y="-129" type="line"/>
		</contour>
	</outline>
	<anchor name="_belowPrimaryHE" x="0" y="-30"/>
	<anchor name="_belowLeftHE" x="-101" y="-30"/>
	<anchor name="_belowRightHE" x="101" y="-30"/>
	<anchor name="belowPrimaryHE" x="-151" y="-30"/>
	<anchor name="_belowSecondaryHE" x="0" y="-30"/>
	<guideline y="46" identifier="0QQY0Nsl6b"/>
</glyph>
<glyph name="heAlef" format="2">
	<unicode hex="05D0"/>
	<advance width="608"/>
	<outline>
		<contour>
			<point x="430" y="176" type="line"/>
			<point x="513" y="271"/>
			<point x="563" y="357"/>
			<point x="563" y="439" type="curve" smooth="yes"/>
			<point x="563" y="522"/>
			<point x="523" y="554"/>
			<point x="435" y="554" type="curve" smooth="yes"/>
			<point x="360" y="554" type="line"/>
			<point x="360" y="482" type="line"/>
			<point x="398" y="482" type="line" smooth="yes"/>
			<point x="455" y="482"/>
			<point x="478" y="465"/>
			<point x="478" y="417" type="curve" smooth="yes"/>
			<point x="478" y="365"/>
			<point x="444" y="291"/>
			<point x="384" y="219" type="curve"/>
		</contour>
		<contour>
			<point x="84" y="0" type="curve"/>
			<point x="172" y="0" type="line"/>
			<point x="169" y="28"/>
			<point x="166" y="55"/>
			<point x="166" y="80" type="curve" smooth="yes"/>
			<point x="166" y="201"/>
			<point x="185" y="285"/>
			<point x="226" y="375" type="curve"/>
			<point x="174" y="397" type="line"/>
			<point x="119" y="308"/>
			<point x="82" y="203"/>
			<point x="82" y="57" type="curve" smooth="yes"/>
			<point x="82" y="37"/>
			<point x="82" y="20"/>
		</contour>
		<contour>
			<point x="505" y="-7" type="curve"/>
			<point x="592" y="13" type="line"/>
			<point x="430" y="175"/>
			<point x="248" y="376"/>
			<point x="147" y="560" type="curve"/>
			<point x="61" y="544" type="line"/>
			<point x="179" y="354"/>
			<point x="358" y="139"/>
		</contour>
	</outline>
	<anchor name="aboveHE" x="317" y="590"/>
	<anchor name="belowPrimaryHE" x="316" y="-27"/>
	<anchor name="aboveLeftHE" x="33" y="590"/>
	<anchor name="centerHE" x="260" y="109"/>
</glyph>
<glyph name="heBet" format="2">
	<unicode hex="05D1"/>
	<advance width="534"/>
	<outline>
		<contour>
			<point x="50" y="0" type="line"/>
			<point x="493" y="0" type="line"/>
			<point x="493" y="79" type="line"/>
			<point x="50" y="79" type="line"/>
		</contour>
		<contour>
			<point x="430" y="0" type="line"/>
			<point x="437" y="106"/>
			<point x="443" y="190"/>
			<point x="443" y="301" type="curve" smooth="yes"/>
			<point x="443" y="482"/>
			<point x="369" y="554"/>
			<point x="224" y="554" type="curve" smooth="yes"/>
			<point x="70" y="554" type="line"/>
			<point x="70" y="472" type="line"/>
			<point x="191" y="472" type="line" smooth="yes"/>
			<point x="317" y="472"/>
			<point x="370" y="420"/>
			<point x="370" y="259" type="curve" smooth="yes"/>
			<point x="370" y="192"/>
			<point x="368" y="144"/>
			<point x="365" y="79" type="curve"/>
		</contour>
	</outline>
	<anchor name="aboveHE" x="223" y="568"/>
	<anchor name="belowPrimaryHE" x="214" y="-30"/>
	<anchor name="centerHE" x="199" y="272"/>
	<anchor name="aboveLeftHE" x="-2" y="568"/>
</glyph>
<glyph name="heGimel" format="2">
	<unicode hex="05D2"/>
	<advance width="392"/>
	<outline>
		<contour>
			<point x="245" y="0" type="line"/>
			<point x="327" y="0" type="line"/>
			<point x="292" y="408" type="line" smooth="yes"/>
			<point x="284" y="503"/>
			<point x="241" y="554"/>
			<point x="146" y="554" type="curve" smooth="yes"/>
			<point x="70" y="554" type="line"/>
			<point x="70" y="482" type="line"/>
			<point x="118" y="482" type="line" smooth="yes"/>
			<point x="180" y="482"/>
			<point x="210" y="454"/>
			<point x="216" y="382" type="curve" smooth="yes"/>
		</contour>
		<contour>
			<point x="50" y="-8" type="line"/>
			<point x="160" y="-2"/>
			<point x="250" y="83"/>
			<point x="257" y="157" type="curve"/>
			<point x="244" y="209" type="line"/>
			<point x="230" y="130"/>
			<point x="145" y="75"/>
			<point x="50" y="69" type="curve"/>
		</contour>
	</outline>
	<anchor name="aboveHE" x="182" y="590"/>
	<anchor name="belowPrimaryHE" x="185" y="-27"/>
	<anchor name="centerHE" x="138" y="296"/>
	<anchor name="aboveLeftHE" x="41" y="590"/>
	<anchor name="belowPrimaryHECXT" x="211" y="-27"/>
</glyph>
<glyph name="heDalet" format="2">
	<unicode hex="05D3"/>
	<advance width="495"/>
	<outline>
		<contour>
			<point x="8" y="482" type="line"/>
			<point x="455" y="482" type="line"/>
			<point x="455" y="554" type="line"/>
			<point x="8" y="554" type="line"/>
		</contour>
		<contour>
			<point x="279" y="0" type="line"/>
			<point x="361" y="0" type="line"/>
			<point x="361" y="482" type="line"/>
			<point x="299" y="482" type="line"/>
			<point x="286" y="450"/>
			<point x="279" y="406"/>
			<point x="279" y="362" type="curve" smooth="yes"/>
		</contour>
	</outline>
	<anchor name="aboveHE" x="217" y="590"/>
	<anchor name="belowSecondaryHE" x="327" y="-27"/>
	<anchor name="centerHE" x="153" y="245"/>
	<anchor name="aboveLeftHE" x="-4" y="590"/>
</glyph>
<glyph name="heHe" format="2">
	<unicode hex="05D4"/>
	<advance width="664"/>
	<outline>
		<contour>
			<point x="501" y="0" type="line"/>
			<point x="573" y="0" type="line"/>
			<point x="573" y="351" type="line" smooth="yes"/>
			<point x="573" y="499"/>
			<point x="499" y="554"/>
			<point x="386" y="554" type="curve" smooth="yes"/>
			<point x="79" y="554" type="line"/>
			<point x="79" y="472" type="line"/>
			<point x="356" y="472" type="line" smooth="yes"/>
			<point x="445" y="472"/>
			<point x="501" y="436"/>
			<point x="501" y="317" type="curve" smooth="yes"/>
		</contour>
		<contour>
			<point x="110" y="0" type="line"/>
			<point x="182" y="0" type="line"/>
			<point x="182" y="329" type="line"/>
			<point x="123" y="329" type="line"/>
			<point x="114" y="296"/>
			<point x="110" y="261"/>
			<point x="110" y="217" type="curve" smooth="yes"/>
		</contour>
	</outline>
</glyph>
<glyph name="heVav" format="2">
	<unicode hex="05D5"/>
	<advance width="315"/>
	<outline>
		<contour>
			<point x="143" y="0" type="line"/>
			<point x="226" y="0" type="line"/>
			<point x="226" y="383" type="line" smooth="yes"/>
			<point x="226" y="514"/>
			<point x="170" y="554"/>
			<point x="71" y="554" type="curve" smooth="yes"/>
			<point x="11" y="554" type="line"/>
			<point x="11" y="482" type="line"/>
			<point x="31" y="482" type="line" smooth="yes"/>
			<point x="105" y="482"/>
			<point x="143" y="460"/>
			<point x="143" y="360" type="curve" smooth="yes"/>
		</contour>
	</outline>
	<anchor name="aboveHE" x="119" y="590"/>
	<anchor name="belowSecondaryHE" x="182" y="-27"/>
	<anchor name="centerHE" x="44" y="245"/>
	<anchor name="holamHE" x="0" y="590"/>
	<anchor name="aboveLeftHE" x="119" y="590"/>
</glyph>
<glyph name="heZayin" format="2">
	<unicode hex="05D6"/>
	<advance width="318"/>
	<outline>
		<contour>
			<point x="8" y="472" type="line"/>
			<point x="278" y="472" type="line"/>
			<point x="278" y="554" type="line"/>
			<point x="8" y="554" type="line"/>
		</contour>
		<contour>
			<point x="133" y="0" type="curve"/>
			<point x="206" y="0" type="line"/>
			<point x="186" y="173"/>
			<point x="175" y="298"/>
			<point x="175" y="377" type="curve" smooth="yes"/>
			<point x="175" y="413"/>
			<point x="175" y="440"/>
			<point x="181" y="472" type="curve"/>
			<point x="122" y="472" type="line"/>
			<point x="111" y="443"/>
			<point x="104" y="412"/>
			<point x="104" y="372" type="curve" smooth="yes"/>
			<point x="104" y="298"/>
			<point x="117" y="162"/>
		</contour>
	</outline>
	<anchor name="aboveHE" x="124" y="562"/>
	<anchor name="belowPrimaryHE" x="125" y="-30"/>
	<anchor name="centerHE" x="-8" y="234"/>
	<anchor name="aboveLeftHE" x="-36" y="568"/>
</glyph>
<glyph name="heHet" format="2">
	<unicode hex="05D7"/>
	<advance width="649"/>
	<outline>
		<contour>
			<point x="486" y="0" type="line"/>
			<point x="558" y="0" type="line"/>
			<point x="558" y="351" type="line" smooth="yes"/>
			<point x="558" y="499"/>
			<point x="484" y="554"/>
			<point x="371" y="554" type="curve" smooth="yes"/>
			<point x="45" y="554" type="line"/>
			<point x="45" y="472" type="line"/>
			<point x="341" y="472" type="line" smooth="yes"/>
			<point x="430" y="472"/>
			<point x="486" y="436"/>
			<point x="486" y="317" type="curve" smooth="yes"/>
		</contour>
		<contour>
			<point x="107" y="0" type="line"/>
			<point x="179" y="0" type="line"/>
			<point x="179" y="472" type="line"/>
			<point x="119" y="472" type="line"/>
			<point x="110" y="439"/>
			<point x="107" y="405"/>
			<point x="107" y="360" type="curve" smooth="yes"/>
		</contour>
	</outline>
	<anchor name="aboveHE" x="292" y="568"/>
	<anchor name="belowPrimaryHE" x="302" y="-30"/>
	<anchor name="centerHE" x="305" y="231"/>
	<anchor name="aboveLeftHE" x="-6" y="568"/>
</glyph>
<glyph name="heTet" format="2">
	<unicode hex="05D8"/>
	<advance width="599"/>
	<outline>
		<contour>
			<point x="309" y="-12" type="curve" smooth="yes"/>
			<point x="448" y="-12"/>
			<point x="552" y="142"/>
			<point x="552" y="380" type="curve" smooth="yes"/>
			<point x="552" y="507"/>
			<point x="514" y="554"/>
			<point x="417" y="554" type="curve" smooth="yes"/>
			<point x="294" y="554" type="line"/>
			<point x="294" y="472" type="line"/>
			<point x="399" y="472" type="line" smooth="yes"/>
			<point x="457" y="472"/>
			<point x="482" y="445"/>
			<point x="482" y="366" type="curve" smooth="yes"/>
			<point x="482" y="183"/>
			<point x="405" y="71"/>
			<point x="316" y="71" type="curve" smooth="yes"/>
			<point x="217" y="71"/>
			<point x="147" y="173"/>
			<point x="137" y="559" type="curve"/>
			<point x="49" y="537" type="line"/>
			<point x="69" y="122"/>
			<point x="169" y="-12"/>
		</contour>
	</outline>
	<anchor name="aboveHE" x="309" y="568"/>
	<anchor name="belowPrimaryHE" x="319" y="-30"/>
	<anchor name="centerHE" x="309" y="285"/>
	<anchor name="aboveLeftHE" x="2" y="568"/>
</glyph>
<glyph name="heYod" format="2">
	<unicode hex="05D9"/>
	<advance width="269"/>
	<outline>
		<contour>
			<point x="122" y="216" type="line"/>
			<point x="180" y="292"/>
			<point x="218" y="370"/>
			<point x="218" y="432" type="curve" smooth="yes"/>
			<point x="218" y="517"/>
			<point x="185" y="554"/>
			<point x="87" y="554" type="curve" smooth="yes"/>
			<point x="11" y="554" type="line"/>
			<point x="11" y="482" type="line"/>
			<point x="54" y="482" type="line" smooth="yes"/>
			<point x="116" y="482"/>
			<point x="132" y="460"/>
			<point x="132" y="412" type="curve" smooth="yes"/>
			<point x="132" y="367"/>
			<point x="106" y="304"/>
			<point x="65" y="246" type="curve"/>
		</contour>
	</outline>
	<anchor name="aboveHE" x="109" y="590"/>
	<anchor name="belowPrimaryHE" x="135" y="-27"/>
	<anchor name="centerHE" x="44" y="373"/>
	<anchor name="aboveLeftHE" x="-6" y="590"/>
</glyph>
<glyph name="heKafFin" format="2">
	<unicode hex="05DA"/>
	<advance width="519"/>
	<outline>
		<contour>
			<point x="356" y="-200" type="line"/>
			<point x="428" y="-200" type="line"/>
			<point x="428" y="351" type="line" smooth="yes"/>
			<point x="428" y="499"/>
			<point x="354" y="554"/>
			<point x="241" y="554" type="curve" smooth="yes"/>
			<point x="8" y="554" type="line"/>
			<point x="8" y="472" type="line"/>
			<point x="211" y="472" type="line" smooth="yes"/>
			<point x="300" y="472"/>
			<point x="356" y="436"/>
			<point x="356" y="317" type="curve" smooth="yes"/>
		</contour>
	</outline>
</glyph>
<glyph name="heKaf" format="2">
	<unicode hex="05DB"/>
	<advance width="575"/>
	<outline>
		<contour>
			<point x="54" y="0" type="line"/>
			<point x="470" y="0" type="line"/>
			<point x="482" y="99"/>
			<point x="491" y="190"/>
			<point x="491" y="301" type="curve" smooth="yes"/>
			<point x="491" y="482"/>
			<point x="399" y="554"/>
			<point x="253" y="554" type="curve" smooth="yes"/>
			<point x="77" y="554" type="line"/>
			<point x="77" y="472" type="line"/>
			<point x="219" y="472" type="line" smooth="yes"/>
			<point x="348" y="472"/>
			<point x="419" y="419"/>
			<point x="419" y="259" type="curve" smooth="yes"/>
			<point x="419" y="194"/>
			<point x="413" y="140"/>
			<point x="406" y="82" type="curve"/>
			<point x="54" y="82" type="line"/>
		</contour>
	</outline>
</glyph>
<glyph name="heLamed" format="2">
	<unicode hex="05DC"/>
	<advance width="471"/>
	<outline>
		<contour>
			<point x="112" y="-12" type="line"/>
			<point x="330" y="115"/>
			<point x="421" y="261"/>
			<point x="421" y="400" type="curve" smooth="yes"/>
			<point x="421" y="505"/>
			<point x="376" y="554"/>
			<point x="240" y="554" type="curve" smooth="yes"/>
			<point x="115" y="554" type="line"/>
			<point x="115" y="728" type="line"/>
			<point x="43" y="728" type="line"/>
			<point x="43" y="472" type="line"/>
			<point x="231" y="472" type="line" smooth="yes"/>
			<point x="315" y="472"/>
			<point x="349" y="452"/>
			<point x="349" y="379" type="curve" smooth="yes"/>
			<point x="349" y="274"/>
			<point x="271" y="168"/>
			<point x="81" y="60" type="curve"/>
		</contour>
	</outline>
	<anchor name="aboveHE" x="224" y="568"/>
	<anchor name="belowLeftHE" x="117" y="-30"/>
	<anchor name="centerHE" x="169" y="300"/>
	<anchor name="aboveLeftHE" x="-74" y="568"/>
</glyph>
<glyph name="heMemFin" format="2">
	<unicode hex="05DD"/>
	<advance width="680"/>
	<outline>
		<contour>
			<point x="145" y="0" type="line"/>
			<point x="589" y="0" type="line"/>
			<point x="589" y="351" type="line" smooth="yes"/>
			<point x="589" y="499"/>
			<point x="515" y="554"/>
			<point x="402" y="554" type="curve" smooth="yes"/>
			<point x="38" y="554" type="line"/>
			<point x="38" y="472" type="line"/>
			<point x="372" y="472" type="line" smooth="yes"/>
			<point x="461" y="472"/>
			<point x="517" y="436"/>
			<point x="517" y="317" type="curve" smooth="yes"/>
			<point x="517" y="82" type="line"/>
			<point x="145" y="82" type="line"/>
		</contour>
		<contour>
			<point x="110" y="0" type="line"/>
			<point x="182" y="0" type="line"/>
			<point x="182" y="472" type="line"/>
			<point x="123" y="472" type="line"/>
			<point x="114" y="439"/>
			<point x="110" y="405"/>
			<point x="110" y="360" type="curve" smooth="yes"/>
		</contour>
	</outline>
</glyph>
<glyph name="heMem" format="2">
	<unicode hex="05DE"/>
	<advance width="674"/>
	<outline>
		<contour>
			<point x="133" y="278" type="curve"/>
			<point x="170" y="274" type="line"/>
			<point x="183" y="327"/>
			<point x="199" y="408"/>
			<point x="199" y="437" type="curve" smooth="yes"/>
			<point x="199" y="513"/>
			<point x="163" y="554"/>
			<point x="81" y="554" type="curve" smooth="yes"/>
			<point x="37" y="554" type="line"/>
			<point x="37" y="482" type="line"/>
			<point x="65" y="482" type="line" smooth="yes"/>
			<point x="126" y="482"/>
			<point x="149" y="457"/>
			<point x="149" y="414" type="curve" smooth="yes"/>
			<point x="149" y="381"/>
			<point x="143" y="318"/>
		</contour>
		<contour>
			<point x="311" y="0" type="line"/>
			<point x="564" y="0" type="line"/>
			<point x="592" y="116"/>
			<point x="600" y="201"/>
			<point x="600" y="288" type="curve" smooth="yes"/>
			<point x="600" y="490"/>
			<point x="532" y="566"/>
			<point x="400" y="566" type="curve" smooth="yes"/>
			<point x="215" y="566"/>
			<point x="95" y="290"/>
			<point x="95" y="0" type="curve"/>
			<point x="179" y="0" type="line"/>
			<point x="179" y="259"/>
			<point x="265" y="494"/>
			<point x="391" y="494" type="curve" smooth="yes"/>
			<point x="475" y="494"/>
			<point x="514" y="437"/>
			<point x="514" y="279" type="curve" smooth="yes"/>
			<point x="514" y="208"/>
			<point x="511" y="154"/>
			<point x="496" y="71" type="curve"/>
			<point x="311" y="72" type="line"/>
		</contour>
	</outline>
	<anchor name="aboveHE" x="358" y="584"/>
	<anchor name="belowPrimaryHE" x="355" y="-27"/>
	<anchor name="centerHE" x="369" y="280"/>
	<anchor name="aboveLeftHE" x="10" y="590"/>
</glyph>
<glyph name="heNunFin" format="2">
	<unicode hex="05DF"/>
	<advance width="309"/>
	<outline>
		<contour>
			<point x="146" y="-200" type="line"/>
			<point x="218" y="-200" type="line"/>
			<point x="218" y="383" type="line" smooth="yes"/>
			<point x="218" y="514"/>
			<point x="162" y="554"/>
			<point x="64" y="554" type="curve" smooth="yes"/>
			<point x="8" y="554" type="line"/>
			<point x="8" y="472" type="line"/>
			<point x="33" y="472" type="line" smooth="yes"/>
			<point x="108" y="472"/>
			<point x="146" y="450"/>
			<point x="146" y="349" type="curve" smooth="yes"/>
		</contour>
	</outline>
</glyph>
<glyph name="heNun" format="2">
	<unicode hex="05E0"/>
	<advance width="421"/>
	<outline>
		<contour>
			<point x="54" y="0" type="line"/>
			<point x="327" y="0" type="line"/>
			<point x="327" y="383" type="line" smooth="yes"/>
			<point x="327" y="514"/>
			<point x="271" y="554"/>
			<point x="172" y="554" type="curve" smooth="yes"/>
			<point x="83" y="554" type="line"/>
			<point x="83" y="472" type="line"/>
			<point x="142" y="472" type="line" smooth="yes"/>
			<point x="216" y="472"/>
			<point x="255" y="450"/>
			<point x="255" y="349" type="curve" smooth="yes"/>
			<point x="255" y="82" type="line"/>
			<point x="54" y="82" type="line"/>
		</contour>
	</outline>
</glyph>
<glyph name="heSamekh" format="2">
	<unicode hex="05E1"/>
	<advance width="618"/>
	<outline>
		<contour>
			<point x="330" y="-12" type="curve" smooth="yes"/>
			<point x="465" y="-12"/>
			<point x="571" y="119"/>
			<point x="571" y="320" type="curve" smooth="yes"/>
			<point x="571" y="478"/>
			<point x="484" y="554"/>
			<point x="311" y="554" type="curve" smooth="yes"/>
			<point x="87" y="554" type="line"/>
			<point x="87" y="472" type="line"/>
			<point x="316" y="472" type="line" smooth="yes"/>
			<point x="434" y="472"/>
			<point x="499" y="424"/>
			<point x="499" y="312" type="curve" smooth="yes"/>
			<point x="499" y="163"/>
			<point x="423" y="71"/>
			<point x="331" y="71" type="curve" smooth="yes"/>
			<point x="248" y="71"/>
			<point x="166" y="152"/>
			<point x="166" y="291" type="curve" smooth="yes"/>
			<point x="166" y="388"/>
			<point x="220" y="472"/>
			<point x="309" y="472" type="curve"/>
			<point x="309" y="511" type="line"/>
			<point x="178" y="511"/>
			<point x="94" y="402"/>
			<point x="94" y="275" type="curve" smooth="yes"/>
			<point x="94" y="99"/>
			<point x="208" y="-12"/>
		</contour>
	</outline>
	<anchor name="aboveHE" x="288" y="568"/>
	<anchor name="belowPrimaryHE" x="297" y="-30"/>
	<anchor name="centerHE" x="307" y="285"/>
	<anchor name="aboveLeftHE" x="-7" y="568"/>
</glyph>
<glyph name="heAyin" format="2">
	<unicode hex="05E2"/>
	<advance width="568"/>
	<outline>
		<contour>
			<point x="212" y="24" type="curve"/>
			<point x="275" y="41" type="line"/>
			<point x="251" y="231"/>
			<point x="189" y="437"/>
			<point x="131" y="561" type="curve"/>
			<point x="43" y="533" type="line"/>
			<point x="111" y="404"/>
			<point x="189" y="201"/>
		</contour>
		<contour>
			<point x="50" y="0" type="line"/>
			<point x="111" y="0" type="line" smooth="yes"/>
			<point x="378" y="0"/>
			<point x="521" y="246"/>
			<point x="521" y="414" type="curve" smooth="yes"/>
			<point x="521" y="516"/>
			<point x="478" y="554"/>
			<point x="372" y="554" type="curve" smooth="yes"/>
			<point x="305" y="554" type="line"/>
			<point x="305" y="472" type="line"/>
			<point x="354" y="472" type="line" smooth="yes"/>
			<point x="421" y="472"/>
			<point x="449" y="450"/>
			<point x="449" y="388" type="curve" smooth="yes"/>
			<point x="449" y="264"/>
			<point x="336" y="78"/>
			<point x="129" y="78" type="curve" smooth="yes"/>
			<point x="50" y="78" type="line"/>
		</contour>
	</outline>
	<anchor name="aboveHE" x="256" y="568"/>
	<anchor name="belowPrimaryHE" x="305" y="-30"/>
	<anchor name="aboveLeftHE" x="-14" y="568"/>
</glyph>
<glyph name="hePeFin" format="2">
	<unicode hex="05E3"/>
	<advance width="554"/>
	<outline>
		<contour>
			<point x="381" y="-185" type="curve"/>
			<point x="463" y="-185" type="line"/>
			<point x="469" y="-9"/>
			<point x="470" y="151"/>
			<point x="470" y="313" type="curve" smooth="yes"/>
			<point x="470" y="503"/>
			<point x="382" y="566"/>
			<point x="251" y="566" type="curve" smooth="yes"/>
			<point x="137" y="566"/>
			<point x="45" y="493"/>
			<point x="45" y="366" type="curve" smooth="yes"/>
			<point x="45" y="257"/>
			<point x="104" y="210"/>
			<point x="199" y="210" type="curve" smooth="yes"/>
			<point x="231" y="210" type="line"/>
			<point x="231" y="283" type="line"/>
			<point x="214" y="283" type="line" smooth="yes"/>
			<point x="164" y="283"/>
			<point x="127" y="305"/>
			<point x="127" y="373" type="curve" smooth="yes"/>
			<point x="127" y="451"/>
			<point x="178" y="494"/>
			<point x="250" y="494" type="curve" smooth="yes"/>
			<point x="335" y="494"/>
			<point x="387" y="457"/>
			<point x="387" y="299" type="curve" smooth="yes"/>
			<point x="387" y="141"/>
			<point x="387" y="-10"/>
		</contour>
	</outline>
	<anchor name="aboveHE" x="250" y="590"/>
	<anchor name="belowRightHE" x="299" y="-27"/>
	<anchor name="centerHE" x="307" y="246"/>
	<anchor name="aboveLeftHE" x="34" y="590"/>
</glyph>
<glyph name="hePe" format="2">
	<unicode hex="05E4"/>
	<advance width="578"/>
	<outline>
		<contour>
			<point x="58" y="0" type="line"/>
			<point x="454" y="0" type="line"/>
			<point x="486" y="106"/>
			<point x="503" y="203"/>
			<point x="503" y="317" type="curve" smooth="yes"/>
			<point x="503" y="497"/>
			<point x="416" y="566"/>
			<point x="264" y="566" type="curve" smooth="yes"/>
			<point x="148" y="566"/>
			<point x="55" y="495"/>
			<point x="55" y="374" type="curve" smooth="yes"/>
			<point x="55" y="270"/>
			<point x="114" y="226"/>
			<point x="209" y="226" type="curve" smooth="yes"/>
			<point x="239" y="226" type="line"/>
			<point x="239" y="298" type="line"/>
			<point x="221" y="298" type="line" smooth="yes"/>
			<point x="174" y="298"/>
			<point x="137" y="318"/>
			<point x="137" y="382" type="curve" smooth="yes"/>
			<point x="137" y="454"/>
			<point x="186" y="494"/>
			<point x="261" y="494" type="curve" smooth="yes"/>
			<point x="367" y="494"/>
			<point x="419" y="444"/>
			<point x="419" y="304" type="curve" smooth="yes"/>
			<point x="419" y="222"/>
			<point x="408" y="145"/>
			<point x="392" y="72" type="curve"/>
			<point x="58" y="72" type="line"/>
		</contour>
	</outline>
	<anchor name="aboveHE" x="275" y="590"/>
	<anchor name="belowPrimaryHE" x="255" y="-27"/>
	<anchor name="centerHE" x="324" y="261"/>
	<anchor name="aboveLeftHE" x="44" y="590"/>
</glyph>
<glyph name="heTsadiFin" format="2">
	<unicode hex="05E5"/>
	<advance width="511"/>
	<outline>
		<contour>
			<point x="189" y="80" type="line"/>
			<point x="372" y="192"/>
			<point x="461" y="321"/>
			<point x="461" y="439" type="curve" smooth="yes"/>
			<point x="461" y="519"/>
			<point x="426" y="554"/>
			<point x="333" y="554" type="curve" smooth="yes"/>
			<point x="273" y="554" type="line"/>
			<point x="273" y="472" type="line"/>
			<point x="308" y="472" type="line" smooth="yes"/>
			<point x="373" y="472"/>
			<point x="389" y="452"/>
			<point x="389" y="411" type="curve" smooth="yes"/>
			<point x="389" y="327"/>
			<point x="326" y="231"/>
			<point x="167" y="140" type="curve"/>
		</contour>
		<contour>
			<point x="118" y="-200" type="line"/>
			<point x="190" y="-200" type="line"/>
			<point x="190" y="108" type="line" smooth="yes"/>
			<point x="190" y="306"/>
			<point x="158" y="454"/>
			<point x="90" y="561" type="curve"/>
			<point x="3" y="533" type="line"/>
			<point x="82" y="419"/>
			<point x="118" y="275"/>
			<point x="118" y="91" type="curve" smooth="yes"/>
		</contour>
	</outline>
	<anchor name="aboveHE" x="230" y="568"/>
	<anchor name="belowLeftHE" x="313" y="-30"/>
	<anchor name="aboveLeftHE" x="-1" y="568"/>
</glyph>
<glyph name="heTsadi" format="2">
	<unicode hex="05E6"/>
	<advance width="540"/>
	<outline>
		<contour>
			<point x="48" y="0" type="line"/>
			<point x="488" y="0" type="line"/>
			<point x="503" y="78" type="line"/>
			<point x="48" y="78" type="line"/>
		</contour>
		<contour>
			<point x="441" y="39" type="curve"/>
			<point x="503" y="78" type="line"/>
			<point x="312" y="209"/>
			<point x="176" y="363"/>
			<point x="93" y="556" type="curve"/>
			<point x="26" y="516" type="line"/>
			<point x="113" y="321"/>
			<point x="257" y="162"/>
		</contour>
		<contour>
			<point x="342" y="201" type="line"/>
			<point x="442" y="288"/>
			<point x="493" y="372"/>
			<point x="493" y="435" type="curve" smooth="yes"/>
			<point x="493" y="518"/>
			<point x="458" y="554"/>
			<point x="366" y="554" type="curve" smooth="yes"/>
			<point x="287" y="554" type="line"/>
			<point x="287" y="472" type="line"/>
			<point x="333" y="472" type="line" smooth="yes"/>
			<point x="404" y="472"/>
			<point x="421" y="452"/>
			<point x="421" y="411" type="curve" smooth="yes"/>
			<point x="421" y="364"/>
			<point x="377" y="307"/>
			<point x="277" y="236" type="curve"/>
		</contour>
	</outline>
	<anchor name="aboveHE" x="236" y="568"/>
	<anchor name="belowPrimaryHE" x="246" y="-30"/>
	<anchor name="centerHE" x="117" y="194"/>
	<anchor name="aboveLeftHE" x="-5" y="568"/>
</glyph>
<glyph name="heQof" format="2">
	<unicode hex="05E7"/>
	<advance width="580"/>
	<outline>
		<contour>
			<point x="269" y="-12" type="line"/>
			<point x="473" y="101"/>
			<point x="533" y="263"/>
			<point x="533" y="408" type="curve" smooth="yes"/>
			<point x="533" y="510"/>
			<point x="488" y="554"/>
			<point x="352" y="554" type="curve" smooth="yes"/>
			<point x="83" y="554" type="line"/>
			<point x="83" y="472" type="line"/>
			<point x="335" y="472" type="line" smooth="yes"/>
			<point x="420" y="472"/>
			<point x="453" y="452"/>
			<point x="453" y="379" type="curve" smooth="yes"/>
			<point x="453" y="274"/>
			<point x="404" y="161"/>
			<point x="239" y="69" type="curve"/>
		</contour>
		<contour>
			<point x="107" y="-200" type="line"/>
			<point x="179" y="-200" type="line"/>
			<point x="179" y="329" type="line"/>
			<point x="119" y="329" type="line"/>
			<point x="110" y="296"/>
			<point x="107" y="261"/>
			<point x="107" y="217" type="curve" smooth="yes"/>
		</contour>
	</outline>
	<anchor name="aboveHE" x="281" y="568"/>
	<anchor name="belowLeftHE" x="240" y="-30"/>
	<anchor name="centerHE" x="276" y="290"/>
	<anchor name="aboveLeftHE" x="0" y="568"/>
	<anchor name="belowLeftHECXT" x="312" y="-30"/>
</glyph>
<glyph name="heResh" format="2">
	<unicode hex="05E8"/>
	<advance width="475"/>
	<outline>
		<contour>
			<point x="312" y="0" type="line"/>
			<point x="384" y="0" type="line"/>
			<point x="384" y="351" type="line" smooth="yes"/>
			<point x="384" y="499"/>
			<point x="310" y="554"/>
			<point x="197" y="554" type="curve" smooth="yes"/>
			<point x="8" y="554" type="line"/>
			<point x="8" y="472" type="line"/>
			<point x="167" y="472" type="line" smooth="yes"/>
			<point x="256" y="472"/>
			<point x="312" y="436"/>
			<point x="312" y="317" type="curve" smooth="yes"/>
		</contour>
	</outline>
	<anchor name="aboveHE" x="174" y="568"/>
	<anchor name="belowSecondaryHE" x="339" y="-30"/>
	<anchor name="centerHE" x="156" y="231"/>
	<anchor name="aboveLeftHE" x="-11" y="568"/>
</glyph>
<glyph name="heShin" format="2">
	<unicode hex="05E9"/>
	<advance width="715"/>
	<outline>
		<contour>
			<point x="260" y="91" type="line"/>
			<point x="365" y="184"/>
			<point x="432" y="310"/>
			<point x="432" y="423" type="curve" smooth="yes"/>
			<point x="432" y="514"/>
			<point x="403" y="554"/>
			<point x="316" y="554" type="curve" smooth="yes"/>
			<point x="280" y="554" type="line"/>
			<point x="280" y="472" type="line"/>
			<point x="294" y="472" type="line" smooth="yes"/>
			<point x="355" y="472"/>
			<point x="369" y="447"/>
			<point x="369" y="395" type="curve" smooth="yes"/>
			<point x="369" y="312"/>
			<point x="309" y="196"/>
			<point x="212" y="125" type="curve"/>
		</contour>
		<contour>
			<point x="359" y="-12" type="curve" smooth="yes"/>
			<point x="531" y="-12"/>
			<point x="668" y="149"/>
			<point x="668" y="361" type="curve" smooth="yes"/>
			<point x="668" y="502"/>
			<point x="627" y="554"/>
			<point x="523" y="554" type="curve" smooth="yes"/>
			<point x="496" y="554" type="line"/>
			<point x="496" y="471" type="line"/>
			<point x="519" y="471" type="line" smooth="yes"/>
			<point x="574" y="471"/>
			<point x="597" y="440"/>
			<point x="597" y="347" type="curve" smooth="yes"/>
			<point x="597" y="189"/>
			<point x="487" y="69"/>
			<point x="366" y="69" type="curve" smooth="yes"/>
			<point x="246" y="69"/>
			<point x="173" y="149"/>
			<point x="173" y="321" type="curve" smooth="yes"/>
			<point x="173" y="354"/>
			<point x="176" y="387"/>
			<point x="176" y="420" type="curve" smooth="yes"/>
			<point x="176" y="525"/>
			<point x="133" y="554"/>
			<point x="52" y="554" type="curve" smooth="yes"/>
			<point x="24" y="554" type="line"/>
			<point x="24" y="472" type="line"/>
			<point x="37" y="472" type="line" smooth="yes"/>
			<point x="85" y="472"/>
			<point x="106" y="459"/>
			<point x="106" y="386" type="curve" smooth="yes"/>
			<point x="106" y="357"/>
			<point x="102" y="327"/>
			<point x="102" y="298" type="curve" smooth="yes"/>
			<point x="102" y="93"/>
			<point x="207" y="-12"/>
		</contour>
	</outline>
	<anchor name="aboveHE" x="329" y="568"/>
	<anchor name="belowPrimaryHE" x="358" y="-30"/>
	<anchor name="sinHE" x="68" y="538"/>
	<anchor name="centerHE" x="423" y="257"/>
	<anchor name="shinHE" x="518" y="538"/>
	<anchor name="aboveLeftHE" x="-32" y="568"/>
</glyph>
<glyph name="heTav" format="2">
	<unicode hex="05EA"/>
	<advance width="672"/>
	<outline>
		<contour>
			<point x="509" y="0" type="line"/>
			<point x="581" y="0" type="line"/>
			<point x="581" y="351" type="line" smooth="yes"/>
			<point x="581" y="499"/>
			<point x="506" y="554"/>
			<point x="394" y="554" type="curve" smooth="yes"/>
			<point x="78" y="554" type="line"/>
			<point x="78" y="472" type="line"/>
			<point x="363" y="472" type="line" smooth="yes"/>
			<point x="452" y="472"/>
			<point x="509" y="436"/>
			<point x="509" y="317" type="curve" smooth="yes"/>
		</contour>
		<contour>
			<point x="50" y="0" type="line"/>
			<point x="223" y="0" type="line"/>
			<point x="233" y="59" type="line"/>
			<point x="218" y="188"/>
			<point x="211" y="299"/>
			<point x="211" y="399" type="curve" smooth="yes"/>
			<point x="211" y="472" type="line"/>
			<point x="152" y="472" type="line"/>
			<point x="144" y="445"/>
			<point x="141" y="414"/>
			<point x="141" y="375" type="curve" smooth="yes"/>
			<point x="141" y="289"/>
			<point x="147" y="192"/>
			<point x="157" y="78" type="curve"/>
			<point x="50" y="78" type="line"/>
		</contour>
	</outline>
	<anchor name="aboveHE" x="312" y="568"/>
	<anchor name="belowPrimaryHE" x="329" y="-30"/>
	<anchor name="centerHE" x="339" y="231"/>
	<anchor name="aboveLeftHE" x="0" y="568"/>
</glyph>
<glyph name="heGeresh" format="2">
	<unicode hex="05F3"/>
	<advance width="235"/>
	<outline>
		<contour>
			<point x="37" y="382" type="line"/>
			<point x="102" y="385" type="line"/>
			<point x="204" y="620" type="line"/>
			<point x="114" y="614" type="line"/>
		</contour>
	</outline>
</glyph>
<glyph name="heGershayim" format="2">
	<unicode hex="05F4"/>
	<advance width="413"/>
	<outline>
		<contour>
			<point x="215" y="382" type="line"/>
			<point x="279" y="385" type="line"/>
			<point x="382" y="620" type="line"/>
			<point x="292" y="614" type="line"/>
		</contour>
		<contour>
			<point x="37" y="382" type="line"/>
			<point x="102" y="385" type="line"/>
			<point x="204" y="620" type="line"/>
			<point x="114" y="614" type="line"/>
		</contour>
	</outline>
</glyph>
<glyph name="fraction.S" format="2">
	<unicode hex="2044"/>
	<advance width="86"/>
	<outline>
		<contour>
			<point x="-156" y="-12" type="line"/>
			<point x="-100" y="-12" type="line"/>
			<point x="242" y="566" type="line"/>
			<point x="186" y="566" type="line"/>
		</contour>
	</outline>
</glyph>
<glyph name="fraction" format="2">
	<unicode hex="2044"/>
	<advance width="86"/>
	<outline>
		<contour>
			<point x="-166" y="-12" type="line"/>
			<point x="-110" y="-12" type="line"/>
			<point x="252" y="668" type="line"/>
			<point x="196" y="668" type="line"/>
		</contour>
	</outline>
</glyph>
<glyph name="newsheqel.S" format="2">
	<unicode hex="20AA"/>
	<advance width="497"/>
	<outline>
		<contour>
			<point x="28" y="0" type="line"/>
			<point x="94" y="0" type="line"/>
			<point x="94" y="482" type="line"/>
			<point x="177" y="482" type="line" smooth="yes"/>
			<point x="243" y="482"/>
			<point x="285" y="456"/>
			<point x="285" y="371" type="curve" smooth="yes"/>
			<point x="285" y="183" type="line"/>
			<point x="333" y="183" type="line"/>
			<point x="333" y="400" type="line" smooth="yes"/>
			<point x="333" y="513"/>
			<point x="274" y="554"/>
			<point x="182" y="554" type="curve" smooth="yes"/>
			<point x="28" y="554" type="line"/>
		</contour>
		<contour>
			<point x="164" y="0" type="line"/>
			<point x="311" y="0" type="line" smooth="yes"/>
			<point x="408" y="0"/>
			<point x="469" y="41"/>
			<point x="469" y="154" type="curve" smooth="yes"/>
			<point x="469" y="554" type="line"/>
			<point x="403" y="554" type="line"/>
			<point x="403" y="183" type="line" smooth="yes"/>
			<point x="403" y="98"/>
			<point x="359" y="72"/>
			<point x="289" y="72" type="curve" smooth="yes"/>
			<point x="212" y="72" type="line"/>
			<point x="212" y="371" type="line"/>
			<point x="164" y="371" type="line"/>
		</contour>
	</outline>
	<guideline x="249" y="276" angle="90" identifier="51LWLohGsJ"/>
</glyph>
<glyph name="newsheqel" format="2">
	<unicode hex="20AA"/>
	<advance width="497"/>
	<outline>
		<contour>
			<point x="28" y="0" type="line"/>
			<point x="95" y="0" type="line"/>
			<point x="95" y="577" type="line"/>
			<point x="176" y="577" type="line" smooth="yes"/>
			<point x="242" y="577"/>
			<point x="283" y="550"/>
			<point x="283" y="466" type="curve" smooth="yes"/>
			<point x="283" y="173" type="line"/>
			<point x="333" y="173" type="line"/>
			<point x="333" y="484" type="line" smooth="yes"/>
			<point x="333" y="597"/>
			<point x="274" y="638"/>
			<point x="182" y="638" type="curve" smooth="yes"/>
			<point x="28" y="638" type="line"/>
		</contour>
		<contour>
			<point x="164" y="0" type="line"/>
			<point x="311" y="0" type="line" smooth="yes"/>
			<point x="408" y="0"/>
			<point x="469" y="41"/>
			<point x="469" y="154" type="curve" smooth="yes"/>
			<point x="469" y="638" type="line"/>
			<point x="402" y="638" type="line"/>
			<point x="402" y="172" type="line" smooth="yes"/>
			<point x="402" y="88"/>
			<point x="358" y="61"/>
			<point x="288" y="61" type="curve" smooth="yes"/>
			<point x="214" y="61" type="line"/>
			<point x="214" y="465" type="line"/>
			<point x="164" y="465" type="line"/>
		</contour>
	</outline>
	<guideline x="249" y="276" angle="90" identifier="51LWLohGsJ"/>
</glyph>
<glyph name="Euro.S" format="2">
	<unicode hex="20AC"/>
	<advance width="497"/>
	<outline>
		<contour>
			<point x="325" y="-12" type="curve" smooth="yes"/>
			<point x="385" y="-12"/>
			<point x="435" y="12"/>
			<point x="476" y="46" type="curve"/>
			<point x="439" y="101" type="line"/>
			<point x="408" y="77"/>
			<point x="369" y="58"/>
			<point x="327" y="58" type="curve" smooth="yes"/>
			<point x="230" y="58"/>
			<point x="157" y="129"/>
			<point x="157" y="279" type="curve" smooth="yes"/>
			<point x="157" y="428"/>
			<point x="233" y="496"/>
			<point x="318" y="496" type="curve" smooth="yes"/>
			<point x="360" y="496"/>
			<point x="389" y="483"/>
			<point x="425" y="457" type="curve"/>
			<point x="462" y="512" type="line"/>
			<point x="419" y="549"/>
			<point x="375" y="566"/>
			<point x="316" y="566" type="curve" smooth="yes"/>
			<point x="191" y="566"/>
			<point x="87" y="474"/>
			<point x="87" y="277" type="curve" smooth="yes"/>
			<point x="87" y="80"/>
			<point x="188" y="-12"/>
		</contour>
		<contour>
			<point x="23" y="194" type="line"/>
			<point x="385" y="194" type="line"/>
			<point x="385" y="243" type="line"/>
			<point x="92" y="243" type="line"/>
			<point x="23" y="238" type="line"/>
		</contour>
		<contour>
			<point x="23" y="311" type="line"/>
			<point x="425" y="311" type="line"/>
			<point x="425" y="360" type="line"/>
			<point x="93" y="360" type="line"/>
			<point x="23" y="355" type="line"/>
		</contour>
	</outline>
</glyph>
<glyph name="ruble" format="2">
	<unicode hex="20BD"/>
	<advance width="497"/>
	<outline>
		<contour>
			<point x="126" y="0" type="line"/>
			<point x="208" y="0" type="line"/>
			<point x="208" y="275" type="line"/>
			<point x="249" y="275" type="line" smooth="yes"/>
			<point x="369" y="275"/>
			<point x="462" y="333"/>
			<point x="462" y="464" type="curve" smooth="yes"/>
			<point x="462" y="588"/>
			<point x="372" y="638"/>
			<point x="249" y="638" type="curve" smooth="yes"/>
			<point x="126" y="638" type="line"/>
		</contour>
		<contour>
			<point x="208" y="323" type="line"/>
			<point x="208" y="572" type="line"/>
			<point x="240" y="572" type="line" smooth="yes"/>
			<point x="332" y="572"/>
			<point x="384" y="541"/>
			<point x="384" y="455" type="curve" smooth="yes"/>
			<point x="384" y="368"/>
			<point x="332" y="323"/>
			<point x="240" y="323" type="curve" smooth="yes"/>
		</contour>
		<contour>
			<point x="46" y="159" type="line"/>
			<point x="403" y="159" type="line"/>
			<point x="403" y="208" type="line"/>
			<point x="126" y="208" type="line"/>
			<point x="46" y="203" type="line"/>
		</contour>
		<contour>
			<point x="46" y="275" type="line"/>
			<point x="161" y="275" type="line"/>
			<point x="161" y="323" type="line"/>
			<point x="126" y="323" type="line"/>
			<point x="46" y="319" type="line"/>
		</contour>
	</outline>
</glyph>
<glyph name="arrowleft.S" format="2">
	<unicode hex="2190"/>
	<advance width="619"/>
	<outline>
		<contour>
			<point x="299" y="9" type="line"/>
			<point x="341" y="55" type="line"/>
			<point x="140" y="243" type="line"/>
			<point x="579" y="243" type="line"/>
			<point x="579" y="310" type="line"/>
			<point x="140" y="310" type="line"/>
			<point x="341" y="497" type="line"/>
			<point x="299" y="544" type="line"/>
			<point x="26" y="278" type="line"/>
			<point x="26" y="274" type="line"/>
		</contour>
	</outline>
</glyph>
<glyph name="arrowup.S" format="2">
	<unicode hex="2191"/>
	<advance width="619"/>
	<outline>
		<contour>
			<point x="275" y="0" type="line"/>
			<point x="343" y="0" type="line"/>
			<point x="343" y="438" type="line"/>
			<point x="530" y="237" type="line"/>
			<point x="577" y="279" type="line"/>
			<point x="311" y="552" type="line"/>
			<point x="307" y="552" type="line"/>
			<point x="42" y="279" type="line"/>
			<point x="88" y="237" type="line"/>
			<point x="275" y="438" type="line"/>
		</contour>
	</outline>
</glyph>
<glyph name="arrowright.S" format="2">
	<unicode hex="2192"/>
	<advance width="619"/>
	<outline>
		<contour>
			<point x="319" y="9" type="line"/>
			<point x="591" y="274" type="line"/>
			<point x="591" y="278" type="line"/>
			<point x="319" y="544" type="line"/>
			<point x="276" y="497" type="line"/>
			<point x="477" y="310" type="line"/>
			<point x="39" y="310" type="line"/>
			<point x="39" y="243" type="line"/>
			<point x="477" y="243" type="line"/>
			<point x="276" y="55" type="line"/>
		</contour>
	</outline>
</glyph>
<glyph name="arrowdown.S" format="2">
	<unicode hex="2193"/>
	<advance width="619"/>
	<outline>
		<contour>
			<point x="307" y="0" type="line"/>
			<point x="311" y="0" type="line"/>
			<point x="577" y="272" type="line"/>
			<point x="530" y="314" type="line"/>
			<point x="343" y="113" type="line"/>
			<point x="343" y="552" type="line"/>
			<point x="275" y="552" type="line"/>
			<point x="275" y="113" type="line"/>
			<point x="88" y="314" type="line"/>
			<point x="42" y="272" type="line"/>
		</contour>
	</outline>
</glyph>
<glyph name="arrowupleft.S" format="2">
	<unicode hex="2196"/>
	<advance width="619"/>
	<outline>
		<contour>
			<point x="474" y="57" type="line"/>
			<point x="522" y="105" type="line"/>
			<point x="212" y="415" type="line"/>
			<point x="486" y="406" type="line"/>
			<point x="489" y="468" type="line"/>
			<point x="109" y="473" type="line"/>
			<point x="106" y="470" type="line"/>
			<point x="111" y="90" type="line"/>
			<point x="173" y="93" type="line"/>
			<point x="164" y="367" type="line"/>
		</contour>
	</outline>
</glyph>
<glyph name="arrowupright.S" format="2">
	<unicode hex="2197"/>
	<advance width="619"/>
	<outline>
		<contour>
			<point x="138" y="57" type="line"/>
			<point x="448" y="367" type="line"/>
			<point x="439" y="92" type="line"/>
			<point x="501" y="89" type="line"/>
			<point x="506" y="470" type="line"/>
			<point x="503" y="473" type="line"/>
			<point x="123" y="468" type="line"/>
			<point x="126" y="405" type="line"/>
			<point x="400" y="415" type="line"/>
			<point x="90" y="104" type="line"/>
		</contour>
	</outline>
</glyph>
<glyph name="arrowdownright.S" format="2">
	<unicode hex="2198"/>
	<advance width="619"/>
	<outline>
		<contour>
			<point x="509" y="80" type="line"/>
			<point x="512" y="83" type="line"/>
			<point x="507" y="463" type="line"/>
			<point x="444" y="460" type="line"/>
			<point x="454" y="186" type="line"/>
			<point x="143" y="496" type="line"/>
			<point x="96" y="448" type="line"/>
			<point x="406" y="138" type="line"/>
			<point x="131" y="147" type="line"/>
			<point x="129" y="85" type="line"/>
		</contour>
	</outline>
</glyph>
<glyph name="arrowdownleft.S" format="2">
	<unicode hex="2199"/>
	<advance width="619"/>
	<outline>
		<contour>
			<point x="116" y="79" type="line"/>
			<point x="496" y="84" type="line"/>
			<point x="493" y="146" type="line"/>
			<point x="218" y="137" type="line"/>
			<point x="528" y="447" type="line"/>
			<point x="481" y="495" type="line"/>
			<point x="170" y="185" type="line"/>
			<point x="180" y="459" type="line"/>
			<point x="117" y="462" type="line"/>
			<point x="113" y="82" type="line"/>
		</contour>
	</outline>
</glyph>
<glyph name="arrowdblleft.S" format="2">
	<unicode hex="21D0"/>
	<advance width="619"/>
	<outline>
		<contour>
			<point x="299" y="9" type="line"/>
			<point x="341" y="55" type="line"/>
			<point x="104" y="274" type="line"/>
			<point x="104" y="278" type="line"/>
			<point x="341" y="497" type="line"/>
			<point x="299" y="544" type="line"/>
			<point x="26" y="278" type="line"/>
			<point x="26" y="274" type="line"/>
		</contour>
		<contour>
			<point x="155" y="340" type="line"/>
			<point x="579" y="340" type="line"/>
			<point x="579" y="394" type="line"/>
			<point x="155" y="394" type="line"/>
		</contour>
		<contour>
			<point x="155" y="159" type="line"/>
			<point x="579" y="159" type="line"/>
			<point x="579" y="212" type="line"/>
			<point x="155" y="212" type="line"/>
		</contour>
	</outline>
</glyph>
<glyph name="arrowdblup.S" format="2">
	<unicode hex="21D1"/>
	<advance width="619"/>
	<outline>
		<contour>
			<point x="88" y="237" type="line"/>
			<point x="307" y="474" type="line"/>
			<point x="311" y="474" type="line"/>
			<point x="530" y="237" type="line"/>
			<point x="577" y="279" type="line"/>
			<point x="311" y="552" type="line"/>
			<point x="307" y="552" type="line"/>
			<point x="42" y="279" type="line"/>
		</contour>
		<contour>
			<point x="373" y="0" type="line"/>
			<point x="427" y="0" type="line"/>
			<point x="427" y="423" type="line"/>
			<point x="373" y="423" type="line"/>
		</contour>
		<contour>
			<point x="192" y="0" type="line"/>
			<point x="245" y="0" type="line"/>
			<point x="245" y="423" type="line"/>
			<point x="192" y="423" type="line"/>
		</contour>
	</outline>
</glyph>
<glyph name="arrowdblright.S" format="2">
	<unicode hex="21D2"/>
	<advance width="619"/>
	<outline>
		<contour>
			<point x="319" y="9" type="line"/>
			<point x="591" y="274" type="line"/>
			<point x="591" y="278" type="line"/>
			<point x="319" y="544" type="line"/>
			<point x="276" y="497" type="line"/>
			<point x="514" y="278" type="line"/>
			<point x="514" y="274" type="line"/>
			<point x="276" y="55" type="line"/>
		</contour>
		<contour>
			<point x="39" y="159" type="line"/>
			<point x="462" y="159" type="line"/>
			<point x="462" y="212" type="line"/>
			<point x="39" y="212" type="line"/>
		</contour>
		<contour>
			<point x="39" y="340" type="line"/>
			<point x="462" y="340" type="line"/>
			<point x="462" y="394" type="line"/>
			<point x="39" y="394" type="line"/>
		</contour>
	</outline>
</glyph>
<glyph name="arrowdbldown.S" format="2">
	<unicode hex="21D3"/>
	<advance width="619"/>
	<outline>
		<contour>
			<point x="307" y="0" type="line"/>
			<point x="311" y="0" type="line"/>
			<point x="577" y="272" type="line"/>
			<point x="530" y="314" type="line"/>
			<point x="311" y="77" type="line"/>
			<point x="307" y="77" type="line"/>
			<point x="88" y="314" type="line"/>
			<point x="42" y="272" type="line"/>
		</contour>
		<contour>
			<point x="192" y="128" type="line"/>
			<point x="245" y="128" type="line"/>
			<point x="245" y="552" type="line"/>
			<point x="192" y="552" type="line"/>
		</contour>
		<contour>
			<point x="373" y="128" type="line"/>
			<point x="427" y="128" type="line"/>
			<point x="427" y="552" type="line"/>
			<point x="373" y="552" type="line"/>
		</contour>
	</outline>
</glyph>
<glyph name="heVarikaJud" format="2">
	<unicode hex="FB1E"/>
	<outline>
		<contour>
			<point x="0" y="612" type="curve" smooth="yes"/>
			<point x="75" y="612"/>
			<point x="122" y="660"/>
			<point x="128" y="734" type="curve"/>
			<point x="74" y="734" type="line"/>
			<point x="68" y="702"/>
			<point x="52" y="668"/>
			<point x="0" y="668" type="curve" smooth="yes"/>
			<point x="-43" y="668"/>
			<point x="-65" y="697"/>
			<point x="-73" y="734" type="curve"/>
			<point x="-129" y="734" type="line"/>
			<point x="-125" y="674"/>
			<point x="-86" y="612"/>
		</contour>
	</outline>
	<anchor name="_aboveHE" x="0" y="566"/>
	<guideline y="629" identifier="004QOttTDm"/>
</glyph>
<glyph name="heAlefWide" format="2">
	<unicode hex="FB21"/>
	<advance width="1408"/>
	<outline>
		<contour>
			<point x="1162" y="81" type="line"/>
			<point x="1313" y="248"/>
			<point x="1363" y="336"/>
			<point x="1363" y="439" type="curve" smooth="yes"/>
			<point x="1363" y="522"/>
			<point x="1323" y="554"/>
			<point x="1235" y="554" type="curve" smooth="yes"/>
			<point x="1160" y="554" type="line"/>
			<point x="1160" y="472" type="line"/>
			<point x="1202" y="472" type="line" smooth="yes"/>
			<point x="1266" y="472"/>
			<point x="1291" y="456"/>
			<point x="1291" y="412" type="curve" smooth="yes"/>
			<point x="1291" y="352"/>
			<point x="1254" y="266"/>
			<point x="1125" y="122" type="curve"/>
		</contour>
		<contour>
			<point x="84" y="0" type="curve"/>
			<point x="168" y="0" type="line"/>
			<point x="165" y="28"/>
			<point x="162" y="55"/>
			<point x="162" y="80" type="curve" smooth="yes"/>
			<point x="162" y="225"/>
			<point x="185" y="328"/>
			<point x="256" y="447" type="curve"/>
			<point x="208" y="467" type="line"/>
			<point x="123" y="357"/>
			<point x="82" y="230"/>
			<point x="82" y="57" type="curve" smooth="yes"/>
			<point x="82" y="37"/>
			<point x="82" y="20"/>
		</contour>
		<contour>
			<point x="1291" y="-7" type="curve"/>
			<point x="1394" y="20" type="line"/>
			<point x="797" y="248"/>
			<point x="589" y="340"/>
			<point x="163" y="560" type="curve"/>
			<point x="62" y="536" type="line"/>
			<point x="530" y="285"/>
			<point x="764" y="176"/>
		</contour>
	</outline>
	<anchor name="aboveHE" x="570" y="590"/>
	<anchor name="belowPrimaryHE" x="569" y="-27"/>
	<anchor name="aboveLeftHE" x="33" y="590"/>
	<anchor name="centerHE" x="386" y="109"/>
</glyph>
<glyph name="heDaletWide" format="2">
	<unicode hex="FB22"/>
	<advance width="1295"/>
	<outline>
		<contour>
			<point x="8" y="472" type="line"/>
			<point x="1255" y="472" type="line"/>
			<point x="1255" y="554" type="line"/>
			<point x="8" y="554" type="line"/>
		</contour>
		<contour>
			<point x="1089" y="0" type="line"/>
			<point x="1161" y="0" type="line"/>
			<point x="1161" y="472" type="line"/>
			<point x="1102" y="472" type="line"/>
			<point x="1093" y="439"/>
			<point x="1089" y="405"/>
			<point x="1089" y="360" type="curve" smooth="yes"/>
		</contour>
	</outline>
	<anchor name="aboveHE" x="617" y="590"/>
	<anchor name="belowSecondaryHE" x="1127" y="-27"/>
	<anchor name="centerHE" x="553" y="245"/>
	<anchor name="aboveLeftHE" x="-4" y="590"/>
</glyph>
<glyph name="heHeWide" format="2">
	<unicode hex="FB23"/>
	<advance width="1439"/>
	<outline>
		<contour>
			<point x="1277" y="0" type="line"/>
			<point x="1349" y="0" type="line"/>
			<point x="1349" y="351" type="line" smooth="yes"/>
			<point x="1349" y="499"/>
			<point x="1275" y="554"/>
			<point x="1162" y="554" type="curve" smooth="yes"/>
			<point x="83" y="554" type="line"/>
			<point x="83" y="472" type="line"/>
			<point x="1132" y="472" type="line" smooth="yes"/>
			<point x="1221" y="472"/>
			<point x="1277" y="436"/>
			<point x="1277" y="317" type="curve" smooth="yes"/>
		</contour>
		<contour>
			<point x="107" y="0" type="line"/>
			<point x="179" y="0" type="line"/>
			<point x="179" y="329" type="line"/>
			<point x="119" y="329" type="line"/>
			<point x="110" y="296"/>
			<point x="107" y="261"/>
			<point x="107" y="217" type="curve" smooth="yes"/>
		</contour>
	</outline>
	<anchor name="aboveHE" x="711" y="590"/>
	<anchor name="belowPrimaryHE" x="721" y="-27"/>
	<anchor name="centerHE" x="721" y="245"/>
	<anchor name="aboveLeftHE" x="27" y="590"/>
</glyph>
<glyph name="heKafWide" format="2">
	<unicode hex="FB24"/>
	<advance width="1333"/>
	<outline>
		<contour>
			<point x="50" y="0" type="line"/>
			<point x="1227" y="0" type="line"/>
			<point x="1239" y="99"/>
			<point x="1249" y="190"/>
			<point x="1249" y="301" type="curve" smooth="yes"/>
			<point x="1249" y="482"/>
			<point x="1174" y="554"/>
			<point x="1030" y="554" type="curve" smooth="yes"/>
			<point x="70" y="554" type="line"/>
			<point x="70" y="472" type="line"/>
			<point x="997" y="472" type="line" smooth="yes"/>
			<point x="1123" y="472"/>
			<point x="1177" y="420"/>
			<point x="1177" y="259" type="curve" smooth="yes"/>
			<point x="1177" y="192"/>
			<point x="1171" y="138"/>
			<point x="1164" y="79" type="curve"/>
			<point x="50" y="79" type="line"/>
		</contour>
	</outline>
	<anchor name="aboveHE" x="635" y="590"/>
	<anchor name="belowPrimaryHE" x="635" y="-27"/>
	<anchor name="centerHE" x="610" y="280"/>
	<anchor name="aboveLeftHE" x="34" y="590"/>
</glyph>
<glyph name="heLamedWide" format="2">
	<unicode hex="FB25"/>
	<advance width="1282"/>
	<outline>
		<contour>
			<point x="561" y="-12" type="line"/>
			<point x="1009" y="115"/>
			<point x="1232" y="236"/>
			<point x="1232" y="400" type="curve" smooth="yes"/>
			<point x="1232" y="505"/>
			<point x="1187" y="554"/>
			<point x="1051" y="554" type="curve" smooth="yes"/>
			<point x="126" y="554" type="line"/>
			<point x="126" y="731" type="line"/>
			<point x="54" y="731" type="line"/>
			<point x="54" y="472" type="line"/>
			<point x="1042" y="472" type="line" smooth="yes"/>
			<point x="1126" y="472"/>
			<point x="1160" y="452"/>
			<point x="1160" y="379" type="curve" smooth="yes"/>
			<point x="1160" y="272"/>
			<point x="959" y="166"/>
			<point x="530" y="60" type="curve"/>
		</contour>
	</outline>
	<anchor name="aboveHE" x="682" y="590"/>
	<anchor name="belowLeftHE" x="566" y="-27"/>
	<anchor name="centerHE" x="581" y="305"/>
	<anchor name="aboveLeftHE" x="-58" y="590"/>
</glyph>
<glyph name="heMemFinWide" format="2">
	<unicode hex="FB26"/>
	<advance width="1446"/>
	<outline>
		<contour>
			<point x="142" y="0" type="line"/>
			<point x="1357" y="0" type="line"/>
			<point x="1357" y="351" type="line" smooth="yes"/>
			<point x="1357" y="499"/>
			<point x="1282" y="554"/>
			<point x="1170" y="554" type="curve" smooth="yes"/>
			<point x="45" y="554" type="line"/>
			<point x="45" y="472" type="line"/>
			<point x="1139" y="472" type="line" smooth="yes"/>
			<point x="1228" y="472"/>
			<point x="1285" y="436"/>
			<point x="1285" y="317" type="curve" smooth="yes"/>
			<point x="1285" y="78" type="line"/>
			<point x="142" y="78" type="line"/>
		</contour>
		<contour>
			<point x="107" y="0" type="line"/>
			<point x="179" y="0" type="line"/>
			<point x="179" y="472" type="line"/>
			<point x="119" y="472" type="line"/>
			<point x="110" y="439"/>
			<point x="107" y="405"/>
			<point x="107" y="360" type="curve" smooth="yes"/>
		</contour>
	</outline>
	<anchor name="aboveHE" x="727" y="590"/>
	<anchor name="belowPrimaryHE" x="734" y="-27"/>
	<anchor name="centerHE" x="734" y="280"/>
	<anchor name="aboveLeftHE" x="15" y="590"/>
</glyph>
<glyph name="heReshWide" format="2">
	<unicode hex="FB27"/>
	<advance width="1274"/>
	<outline>
		<contour>
			<point x="1112" y="0" type="line"/>
			<point x="1184" y="0" type="line"/>
			<point x="1184" y="351" type="line" smooth="yes"/>
			<point x="1184" y="499"/>
			<point x="1110" y="554"/>
			<point x="997" y="554" type="curve" smooth="yes"/>
			<point x="8" y="554" type="line"/>
			<point x="8" y="472" type="line"/>
			<point x="967" y="472" type="line" smooth="yes"/>
			<point x="1056" y="472"/>
			<point x="1112" y="436"/>
			<point x="1112" y="317" type="curve" smooth="yes"/>
		</contour>
	</outline>
	<anchor name="aboveHE" x="592" y="590"/>
	<anchor name="belowSecondaryHE" x="1151" y="-27"/>
	<anchor name="centerHE" x="550" y="245"/>
	<anchor name="aboveLeftHE" x="-4" y="590"/>
</glyph>
<glyph name="heTavWide" format="2">
	<unicode hex="FB28"/>
	<advance width="1471"/>
	<outline>
		<contour>
			<point x="1309" y="0" type="line"/>
			<point x="1381" y="0" type="line"/>
			<point x="1381" y="351" type="line" smooth="yes"/>
			<point x="1381" y="499"/>
			<point x="1306" y="554"/>
			<point x="1194" y="554" type="curve" smooth="yes"/>
			<point x="78" y="554" type="line"/>
			<point x="78" y="472" type="line"/>
			<point x="1163" y="472" type="line" smooth="yes"/>
			<point x="1252" y="472"/>
			<point x="1309" y="436"/>
			<point x="1309" y="317" type="curve" smooth="yes"/>
		</contour>
		<contour>
			<point x="50" y="0" type="line"/>
			<point x="223" y="0" type="line"/>
			<point x="233" y="59" type="line"/>
			<point x="218" y="188"/>
			<point x="211" y="299"/>
			<point x="211" y="399" type="curve" smooth="yes"/>
			<point x="211" y="472" type="line"/>
			<point x="152" y="472" type="line"/>
			<point x="144" y="445"/>
			<point x="141" y="414"/>
			<point x="141" y="375" type="curve" smooth="yes"/>
			<point x="141" y="289"/>
			<point x="147" y="192"/>
			<point x="157" y="78" type="curve"/>
			<point x="50" y="78" type="line"/>
		</contour>
	</outline>
	<anchor name="aboveHE" x="737" y="590"/>
	<anchor name="belowPrimaryHE" x="754" y="-27"/>
	<anchor name="centerHE" x="754" y="245"/>
	<anchor name="aboveLeftHE" x="35" y="590"/>
</glyph>
<glyph name="heAlefLamed" format="2">
	<unicode hex="FB4F"/>
	<advance width="524"/>
	<outline>
		<contour>
			<point x="342" y="0" type="curve" smooth="yes"/>
			<point x="463" y="0" type="line"/>
			<point x="463" y="82" type="line"/>
			<point x="350" y="82" type="line" smooth="yes"/>
			<point x="250" y="82"/>
			<point x="167" y="144"/>
			<point x="167" y="281" type="curve"/>
			<point x="167" y="413"/>
			<point x="232" y="472"/>
			<point x="373" y="472" type="curve" smooth="yes"/>
			<point x="443" y="472" type="line"/>
			<point x="443" y="554" type="line"/>
			<point x="357" y="554" type="line" smooth="yes"/>
			<point x="262" y="554"/>
			<point x="188" y="519"/>
			<point x="154" y="429" type="curve"/>
			<point x="166" y="422" type="line"/>
			<point x="166" y="731" type="line"/>
			<point x="94" y="731" type="line"/>
			<point x="94" y="277" type="line" smooth="yes"/>
			<point x="94" y="89"/>
			<point x="202" y="0"/>
		</contour>
	</outline>
</glyph>
<glyph name="ugAlpa" format="2">
	<unicode hex="10380"/>
	<advance width="695"/>
	<outline>
		<contour>
			<point x="34" y="210" type="line"/>
			<point x="101" y="249"/>
			<point x="248" y="257"/>
			<point x="475" y="257" type="curve"/>
			<point x="475" y="298" type="line"/>
			<point x="248" y="298"/>
			<point x="101" y="306"/>
			<point x="34" y="345" type="curve"/>
		</contour>
		<contour>
			<point x="306" y="210" type="line"/>
			<point x="363" y="246"/>
			<point x="483" y="257"/>
			<point x="668" y="257" type="curve"/>
			<point x="668" y="298" type="line"/>
			<point x="483" y="298"/>
			<point x="363" y="309"/>
			<point x="306" y="345" type="curve"/>
		</contour>
	</outline>
</glyph>
<glyph name="ugBeta" format="2">
	<unicode hex="10381"/>
	<advance width="695"/>
	<outline>
		<contour>
			<point x="142" y="231" type="curve"/>
			<point x="184" y="231" type="line"/>
			<point x="184" y="425"/>
			<point x="195" y="550"/>
			<point x="232" y="610" type="curve"/>
			<point x="95" y="610" type="line"/>
			<point x="131" y="550"/>
			<point x="142" y="425"/>
		</contour>
		<contour>
			<point x="414" y="231" type="curve"/>
			<point x="456" y="231" type="line"/>
			<point x="456" y="425"/>
			<point x="467" y="550"/>
			<point x="504" y="610" type="curve"/>
			<point x="366" y="610" type="line"/>
			<point x="403" y="550"/>
			<point x="414" y="425"/>
		</contour>
		<component base="ugAlpa" yOffset="-37"/>
	</outline>
</glyph>
<glyph name="ugGamla" format="2">
	<unicode hex="10382"/>
	<advance width="308"/>
	<outline>
		<contour>
			<point x="132" y="-56" type="curve"/>
			<point x="177" y="-56" type="line"/>
			<point x="177" y="287"/>
			<point x="177" y="519"/>
			<point x="224" y="610" type="curve"/>
			<point x="84" y="610" type="line"/>
			<point x="132" y="519"/>
			<point x="132" y="287"/>
		</contour>
	</outline>
</glyph>
<glyph name="ugKha" format="2">
	<unicode hex="10383"/>
	<advance width="308"/>
	<outline>
		<contour>
			<point x="132" y="-56" type="curve"/>
			<point x="177" y="-56" type="line"/>
			<point x="177" y="51"/>
			<point x="194" y="154"/>
			<point x="224" y="197" type="curve"/>
			<point x="84" y="197" type="line"/>
			<point x="114" y="154"/>
			<point x="132" y="51"/>
		</contour>
		<contour>
			<point x="132" y="364" type="curve"/>
			<point x="177" y="364" type="line"/>
			<point x="177" y="467"/>
			<point x="194" y="567"/>
			<point x="224" y="610" type="curve"/>
			<point x="84" y="610" type="line"/>
			<point x="114" y="567"/>
			<point x="132" y="467"/>
		</contour>
		<contour>
			<point x="132" y="156" type="curve"/>
			<point x="177" y="156" type="line"/>
			<point x="177" y="259"/>
			<point x="194" y="359"/>
			<point x="224" y="401" type="curve"/>
			<point x="84" y="401" type="line"/>
			<point x="114" y="359"/>
			<point x="132" y="259"/>
		</contour>
	</outline>
</glyph>
<glyph name="ugDelta" format="2">
	<unicode hex="10384"/>
	<advance width="708"/>
	<outline>
		<contour>
			<point x="117" y="231" type="curve"/>
			<point x="160" y="231" type="line"/>
			<point x="160" y="425"/>
			<point x="171" y="550"/>
			<point x="203" y="610" type="curve"/>
			<point x="70" y="610" type="line"/>
			<point x="107" y="549"/>
			<point x="117" y="425"/>
		</contour>
		<contour>
			<point x="316" y="231" type="curve"/>
			<point x="358" y="231" type="line"/>
			<point x="358" y="425"/>
			<point x="370" y="550"/>
			<point x="402" y="610" type="curve"/>
			<point x="273" y="610" type="line"/>
			<point x="305" y="550"/>
			<point x="316" y="425"/>
		</contour>
		<contour>
			<point x="515" y="231" type="curve"/>
			<point x="557" y="231" type="line"/>
			<point x="557" y="425"/>
			<point x="567" y="549"/>
			<point x="605" y="610" type="curve"/>
			<point x="472" y="610" type="line"/>
			<point x="503" y="550"/>
			<point x="515" y="425"/>
		</contour>
		<component base="ugNun" yOffset="-37"/>
	</outline>
</glyph>
<glyph name="ugZeta" format="2">
	<unicode hex="10387"/>
	<advance width="308"/>
	<outline>
		<contour>
			<point x="132" y="183" type="curve"/>
			<point x="177" y="183" type="line"/>
			<point x="177" y="402"/>
			<point x="184" y="543"/>
			<point x="225" y="610" type="curve"/>
			<point x="84" y="610" type="line"/>
			<point x="125" y="543"/>
			<point x="132" y="402"/>
		</contour>
		<contour>
			<point x="132" y="-56" type="curve"/>
			<point x="177" y="-56" type="line"/>
			<point x="177" y="154"/>
			<point x="186" y="290"/>
			<point x="225" y="353" type="curve"/>
			<point x="84" y="353" type="line"/>
			<point x="123" y="290"/>
			<point x="132" y="154"/>
		</contour>
	</outline>
</glyph>
<glyph name="ugHota" format="2">
	<unicode hex="10388"/>
	<advance width="678"/>
	<outline>
		<contour>
			<point x="315" y="277" type="curve"/>
			<point x="360" y="277" type="line"/>
			<point x="360" y="448"/>
			<point x="373" y="555"/>
			<point x="408" y="610" type="curve"/>
			<point x="268" y="610" type="line"/>
			<point x="302" y="555"/>
			<point x="315" y="448"/>
		</contour>
		<contour>
			<point x="268" y="-57" type="curve"/>
			<point x="408" y="-57" type="line"/>
			<point x="373" y="-2"/>
			<point x="360" y="105"/>
			<point x="360" y="277" type="curve"/>
			<point x="315" y="277" type="line"/>
			<point x="315" y="105"/>
			<point x="302" y="-2"/>
		</contour>
		<contour>
			<point x="34" y="209" type="line"/>
			<point x="86" y="242"/>
			<point x="183" y="257"/>
			<point x="338" y="257" type="curve"/>
			<point x="338" y="297" type="line"/>
			<point x="183" y="297"/>
			<point x="86" y="311"/>
			<point x="34" y="344" type="curve"/>
		</contour>
		<contour>
			<point x="644" y="209" type="curve"/>
			<point x="644" y="344" type="line"/>
			<point x="593" y="311"/>
			<point x="495" y="297"/>
			<point x="338" y="297" type="curve"/>
			<point x="338" y="257" type="line"/>
			<point x="495" y="257"/>
			<point x="593" y="242"/>
		</contour>
	</outline>
</glyph>
<glyph name="ugTet" format="2">
	<unicode hex="10389"/>
	<advance width="679"/>
	<outline>
		<contour>
			<point x="315" y="183" type="curve"/>
			<point x="360" y="183" type="line"/>
			<point x="360" y="402"/>
			<point x="366" y="542"/>
			<point x="408" y="610" type="curve"/>
			<point x="268" y="610" type="line"/>
			<point x="310" y="542"/>
			<point x="315" y="402"/>
		</contour>
		<contour>
			<point x="34" y="210" type="line"/>
			<point x="86" y="243"/>
			<point x="183" y="258"/>
			<point x="338" y="258" type="curve"/>
			<point x="338" y="298" type="line"/>
			<point x="183" y="298"/>
			<point x="86" y="312"/>
			<point x="34" y="345" type="curve"/>
		</contour>
		<contour>
			<point x="645" y="210" type="curve"/>
			<point x="645" y="345" type="line"/>
			<point x="594" y="312"/>
			<point x="495" y="298"/>
			<point x="338" y="298" type="curve"/>
			<point x="338" y="258" type="line"/>
			<point x="495" y="258"/>
			<point x="594" y="243"/>
		</contour>
	</outline>
</glyph>
<glyph name="ugKaf" format="2">
	<unicode hex="1038B"/>
	<advance width="695"/>
	<outline>
		<contour>
			<point x="34" y="94" type="line"/>
			<point x="87" y="125"/>
			<point x="201" y="141"/>
			<point x="331" y="141" type="curve"/>
			<point x="331" y="182" type="line"/>
			<point x="201" y="182"/>
			<point x="87" y="198"/>
			<point x="34" y="229" type="curve"/>
		</contour>
		<contour>
			<point x="34" y="330" type="line"/>
			<point x="87" y="361"/>
			<point x="201" y="377"/>
			<point x="331" y="377" type="curve"/>
			<point x="331" y="418" type="line"/>
			<point x="201" y="418"/>
			<point x="87" y="434"/>
			<point x="34" y="465" type="curve"/>
		</contour>
		<contour>
			<point x="349" y="210" type="line"/>
			<point x="404" y="243"/>
			<point x="529" y="257"/>
			<point x="668" y="257" type="curve"/>
			<point x="668" y="298" type="line"/>
			<point x="529" y="298"/>
			<point x="404" y="312"/>
			<point x="349" y="345" type="curve"/>
		</contour>
	</outline>
</glyph>
<glyph name="ugMem" format="2">
	<unicode hex="1038E"/>
	<advance width="615"/>
	<outline>
		<contour>
			<point x="34" y="210" type="line"/>
			<point x="102" y="251"/>
			<point x="249" y="258"/>
			<point x="475" y="258" type="curve"/>
			<point x="475" y="298" type="line"/>
			<point x="249" y="298"/>
			<point x="102" y="306"/>
			<point x="34" y="346" type="curve"/>
		</contour>
		<component base="ugGamla" xOffset="306"/>
	</outline>
</glyph>
<glyph name="ugDhal" format="2">
	<unicode hex="1038F"/>
	<advance width="813"/>
	<outline>
		<contour>
			<point x="388" y="-55" type="curve"/>
			<point x="433" y="-55" type="line"/>
			<point x="613" y="211"/>
			<point x="750" y="408"/>
			<point x="836" y="450" type="curve"/>
			<point x="725" y="535" type="line"/>
			<point x="709" y="439"/>
			<point x="582" y="246"/>
			<point x="411" y="-8" type="curve"/>
			<point x="240" y="246"/>
			<point x="113" y="438"/>
			<point x="96" y="535" type="curve"/>
			<point x="-15" y="449" type="line"/>
			<point x="71" y="408"/>
			<point x="209" y="210"/>
		</contour>
	</outline>
</glyph>
<glyph name="ugNun" format="2">
	<unicode hex="10390"/>
	<advance width="708"/>
	<outline>
		<contour>
			<point x="425" y="210" type="line"/>
			<point x="492" y="241"/>
			<point x="595" y="257"/>
			<point x="681" y="257" type="curve"/>
			<point x="681" y="298" type="line"/>
			<point x="595" y="298"/>
			<point x="492" y="314"/>
			<point x="425" y="345" type="curve"/>
		</contour>
		<contour>
			<point x="34" y="210" type="line"/>
			<point x="100" y="241"/>
			<point x="201" y="257"/>
			<point x="283" y="257" type="curve"/>
			<point x="283" y="298" type="line"/>
			<point x="201" y="298"/>
			<point x="100" y="314"/>
			<point x="34" y="345" type="curve"/>
		</contour>
		<contour>
			<point x="232" y="210" type="line"/>
			<point x="297" y="241"/>
			<point x="398" y="257"/>
			<point x="481" y="257" type="curve"/>
			<point x="481" y="298" type="line"/>
			<point x="398" y="298"/>
			<point x="297" y="314"/>
			<point x="232" y="345" type="curve"/>
		</contour>
	</outline>
</glyph>
<glyph name="ugZu" format="2">
	<unicode hex="10391"/>
	<advance width="557"/>
	<outline>
		<contour>
			<point x="34" y="330" type="line"/>
			<point x="104" y="369"/>
			<point x="256" y="378"/>
			<point x="469" y="378" type="curve"/>
			<point x="469" y="418" type="line"/>
			<point x="256" y="418"/>
			<point x="104" y="427"/>
			<point x="34" y="465" type="curve"/>
		</contour>
		<contour>
			<point x="34" y="94" type="line"/>
			<point x="104" y="133"/>
			<point x="256" y="142"/>
			<point x="469" y="142" type="curve"/>
			<point x="469" y="182" type="line"/>
			<point x="256" y="182"/>
			<point x="104" y="191"/>
			<point x="34" y="229" type="curve"/>
		</contour>
		<contour>
			<point x="525" y="68" type="line"/>
			<point x="530" y="71" type="line"/>
			<point x="489" y="132"/>
			<point x="464" y="200"/>
			<point x="464" y="278" type="curve" smooth="yes"/>
			<point x="464" y="356"/>
			<point x="489" y="424"/>
			<point x="530" y="485" type="curve"/>
			<point x="525" y="487" type="line"/>
			<point x="302" y="278" type="line"/>
		</contour>
	</outline>
</glyph>
<glyph name="ugSamka" format="2">
	<unicode hex="10392"/>
	<advance width="492"/>
	<outline>
		<contour>
			<point x="132" y="298" type="curve"/>
			<point x="177" y="298" type="line"/>
			<point x="177" y="459"/>
			<point x="192" y="559"/>
			<point x="225" y="610" type="curve"/>
			<point x="84" y="610" type="line"/>
			<point x="118" y="559"/>
			<point x="132" y="459"/>
		</contour>
		<contour>
			<point x="247" y="-56" type="curve"/>
			<point x="293" y="-56" type="line"/>
			<point x="293" y="117"/>
			<point x="305" y="226"/>
			<point x="341" y="281" type="curve"/>
			<point x="200" y="281" type="line"/>
			<point x="235" y="226"/>
			<point x="247" y="117"/>
		</contour>
		<contour>
			<point x="363" y="298" type="curve"/>
			<point x="409" y="298" type="line"/>
			<point x="409" y="459"/>
			<point x="423" y="559"/>
			<point x="457" y="610" type="curve"/>
			<point x="316" y="610" type="line"/>
			<point x="349" y="559"/>
			<point x="363" y="459"/>
		</contour>
	</outline>
	<guideline x="234" y="276" angle="90" identifier="n037E1FBxO"/>
</glyph>
<glyph name="ugAin" format="2">
	<unicode hex="10393"/>
	<advance width="466"/>
	<outline>
		<contour>
			<point x="24" y="173" type="line"/>
			<point x="27" y="168" type="line"/>
			<point x="96" y="218"/>
			<point x="164" y="243"/>
			<point x="233" y="243" type="curve" smooth="yes"/>
			<point x="302" y="243"/>
			<point x="370" y="218"/>
			<point x="440" y="168" type="curve"/>
			<point x="443" y="173" type="line"/>
			<point x="233" y="408" type="line"/>
		</contour>
	</outline>
</glyph>
<glyph name="ugQopa" format="2">
	<unicode hex="10396"/>
	<advance width="567"/>
	<outline>
		<contour>
			<point x="34" y="210" type="line"/>
			<point x="83" y="243"/>
			<point x="167" y="257"/>
			<point x="283" y="257" type="curve"/>
			<point x="283" y="298" type="line"/>
			<point x="167" y="298"/>
			<point x="83" y="312"/>
			<point x="34" y="345" type="curve"/>
		</contour>
		<contour>
			<point x="533" y="210" type="curve"/>
			<point x="533" y="345" type="line"/>
			<point x="487" y="314"/>
			<point x="399" y="298"/>
			<point x="283" y="298" type="curve"/>
			<point x="283" y="257" type="line"/>
			<point x="399" y="257"/>
			<point x="487" y="241"/>
		</contour>
	</outline>
	<guideline x="244" y="277" angle="90" identifier="VFyrfB9JO7"/>
</glyph>
<glyph name="ugRasha" format="2">
	<unicode hex="10397"/>
	<advance width="938"/>
	<outline>
		<contour>
			<point x="34" y="327" type="line"/>
			<point x="82" y="355"/>
			<point x="169" y="370"/>
			<point x="309" y="370" type="curve"/>
			<point x="309" y="410" type="line"/>
			<point x="169" y="410"/>
			<point x="84" y="424"/>
			<point x="34" y="458" type="curve"/>
		</contour>
		<contour>
			<point x="268" y="327" type="line"/>
			<point x="314" y="354"/>
			<point x="405" y="370"/>
			<point x="549" y="370" type="curve"/>
			<point x="549" y="410" type="line"/>
			<point x="405" y="410"/>
			<point x="316" y="426"/>
			<point x="268" y="458" type="curve"/>
		</contour>
		<contour>
			<point x="34" y="98" type="line"/>
			<point x="84" y="132"/>
			<point x="169" y="145"/>
			<point x="309" y="145" type="curve"/>
			<point x="309" y="186" type="line"/>
			<point x="169" y="186"/>
			<point x="82" y="200"/>
			<point x="34" y="228" type="curve"/>
		</contour>
		<contour>
			<point x="557" y="210" type="line"/>
			<point x="614" y="249"/>
			<point x="731" y="257"/>
			<point x="911" y="257" type="curve"/>
			<point x="911" y="298" type="line"/>
			<point x="731" y="298"/>
			<point x="614" y="307"/>
			<point x="557" y="345" type="curve"/>
		</contour>
		<contour>
			<point x="268" y="98" type="line"/>
			<point x="316" y="129"/>
			<point x="405" y="145"/>
			<point x="549" y="145" type="curve"/>
			<point x="549" y="186" type="line"/>
			<point x="405" y="186"/>
			<point x="314" y="202"/>
			<point x="268" y="228" type="curve"/>
		</contour>
	</outline>
</glyph>
<glyph name="ugThanna" format="2">
	<unicode hex="10398"/>
	<advance width="308"/>
	<outline>
		<contour>
			<point x="132" y="51" type="curve"/>
			<point x="177" y="51" type="line"/>
			<point x="177" y="227"/>
			<point x="186" y="331"/>
			<point x="224" y="386" type="curve"/>
			<point x="84" y="386" type="line"/>
			<point x="122" y="331"/>
			<point x="132" y="227"/>
		</contour>
		<contour>
			<point x="84" y="168" type="curve"/>
			<point x="224" y="168" type="line"/>
			<point x="188" y="220"/>
			<point x="177" y="335"/>
			<point x="177" y="503" type="curve"/>
			<point x="132" y="503" type="line"/>
			<point x="132" y="335"/>
			<point x="120" y="220"/>
		</contour>
	</outline>
</glyph>
<glyph name="ugTo" format="2">
	<unicode hex="1039A"/>
	<advance width="695"/>
	<outline>
		<contour>
			<point x="34" y="210" type="line"/>
			<point x="125" y="257"/>
			<point x="343" y="257"/>
			<point x="668" y="257" type="curve"/>
			<point x="668" y="298" type="line"/>
			<point x="343" y="298"/>
			<point x="125" y="298"/>
			<point x="34" y="345" type="curve"/>
		</contour>
	</outline>
</glyph>
<glyph name="ugI" format="2">
	<unicode hex="1039B"/>
	<advance width="695"/>
	<outline>
		<contour>
			<point x="175" y="-281" type="curve"/>
			<point x="217" y="-281" type="line"/>
			<point x="217" y="-168"/>
			<point x="235" y="-87"/>
			<point x="266" y="-51" type="curve"/>
			<point x="125" y="-51" type="line"/>
			<point x="156" y="-87"/>
			<point x="175" y="-168"/>
		</contour>
		<component base="ugHo"/>
	</outline>
</glyph>
<glyph name="ugSsu" format="2">
	<unicode hex="1039D"/>
	<advance width="685"/>
	<outline>
		<contour>
			<point x="85" y="441" type="curve"/>
			<point x="224" y="441" type="line"/>
			<point x="190" y="481"/>
			<point x="171" y="546"/>
			<point x="171" y="609" type="curve"/>
			<point x="138" y="609" type="line"/>
			<point x="138" y="546"/>
			<point x="119" y="481"/>
		</contour>
		<contour>
			<point x="84" y="-56" type="curve"/>
			<point x="224" y="-56" type="line"/>
			<point x="190" y="-18"/>
			<point x="171" y="47"/>
			<point x="171" y="105" type="curve"/>
			<point x="138" y="105" type="line"/>
			<point x="138" y="47"/>
			<point x="118" y="-18"/>
		</contour>
		<contour>
			<point x="85" y="192" type="curve"/>
			<point x="224" y="192" type="line"/>
			<point x="190" y="231"/>
			<point x="171" y="295"/>
			<point x="171" y="353" type="curve"/>
			<point x="138" y="353" type="line"/>
			<point x="138" y="295"/>
			<point x="119" y="231"/>
		</contour>
		<contour>
			<point x="461" y="441" type="curve"/>
			<point x="601" y="441" type="line"/>
			<point x="567" y="481"/>
			<point x="548" y="546"/>
			<point x="548" y="609" type="curve"/>
			<point x="515" y="609" type="line"/>
			<point x="515" y="546"/>
			<point x="495" y="481"/>
		</contour>
		<contour>
			<point x="461" y="-56" type="curve"/>
			<point x="601" y="-56" type="line"/>
			<point x="567" y="-18"/>
			<point x="548" y="47"/>
			<point x="548" y="105" type="curve"/>
			<point x="515" y="105" type="line"/>
			<point x="515" y="47"/>
			<point x="495" y="-18"/>
		</contour>
		<contour>
			<point x="461" y="192" type="curve"/>
			<point x="601" y="192" type="line"/>
			<point x="567" y="231"/>
			<point x="548" y="295"/>
			<point x="548" y="353" type="curve"/>
			<point x="515" y="353" type="line"/>
			<point x="515" y="295"/>
			<point x="495" y="231"/>
		</contour>
		<component base="ugGamla" xOffset="188"/>
	</outline>
</glyph>
<glyph name="aiAleph" format="2">
	<unicode hex="10840"/>
	<advance width="608"/>
	<outline>
		<contour>
			<point x="510" y="-7" type="curve"/>
			<point x="601" y="15" type="line"/>
			<point x="440" y="175"/>
			<point x="257" y="377"/>
			<point x="156" y="560" type="curve"/>
			<point x="67" y="542" type="line"/>
			<point x="184" y="355"/>
			<point x="364" y="139"/>
		</contour>
		<contour>
			<point x="58" y="0" type="line"/>
			<point x="118" y="0" type="line" smooth="yes"/>
			<point x="391" y="0"/>
			<point x="532" y="257"/>
			<point x="532" y="490" type="curve" smooth="yes"/>
			<point x="532" y="512"/>
			<point x="533" y="532"/>
			<point x="530" y="554" type="curve"/>
			<point x="443" y="554" type="line"/>
			<point x="446" y="526"/>
			<point x="449" y="499"/>
			<point x="449" y="453" type="curve" smooth="yes"/>
			<point x="449" y="243"/>
			<point x="349" y="78"/>
			<point x="136" y="78" type="curve" smooth="yes"/>
			<point x="58" y="78" type="line"/>
		</contour>
	</outline>
</glyph>
<glyph name="aiBeth" format="2">
	<unicode hex="10841"/>
	<advance width="488"/>
	<outline>
		<contour>
			<point x="50" y="0" type="line"/>
			<point x="144" y="0" type="line" smooth="yes"/>
			<point x="331" y="0"/>
			<point x="441" y="122"/>
			<point x="441" y="319" type="curve" smooth="yes"/>
			<point x="441" y="488"/>
			<point x="370" y="554"/>
			<point x="230" y="554" type="curve" smooth="yes"/>
			<point x="186" y="554" type="line" smooth="yes"/>
			<point x="139" y="554"/>
			<point x="125" y="569"/>
			<point x="125" y="602" type="curve" smooth="yes"/>
			<point x="125" y="643"/>
			<point x="132" y="682"/>
			<point x="142" y="734" type="curve"/>
			<point x="72" y="727" type="line"/>
			<point x="58" y="671"/>
			<point x="52" y="622"/>
			<point x="52" y="575" type="curve" smooth="yes"/>
			<point x="52" y="507"/>
			<point x="93" y="472"/>
			<point x="157" y="472" type="curve" smooth="yes"/>
			<point x="205" y="472" type="line" smooth="yes"/>
			<point x="315" y="472"/>
			<point x="368" y="429"/>
			<point x="368" y="293" type="curve" smooth="yes"/>
			<point x="368" y="155"/>
			<point x="293" y="79"/>
			<point x="150" y="79" type="curve" smooth="yes"/>
			<point x="50" y="79" type="line"/>
		</contour>
	</outline>
</glyph>
<glyph name="aiGimel" format="2">
	<unicode hex="10842"/>
	<advance width="570"/>
	<outline>
		<contour>
			<point x="0" y="0" type="curve"/>
			<point x="89" y="0" type="line"/>
			<point x="151" y="113"/>
			<point x="239" y="303"/>
			<point x="302" y="478" type="curve"/>
			<point x="243" y="509" type="line"/>
			<point x="175" y="324"/>
			<point x="82" y="140"/>
		</contour>
		<contour>
			<point x="452" y="-7" type="curve"/>
			<point x="540" y="1" type="line"/>
			<point x="494" y="345"/>
			<point x="344" y="508"/>
			<point x="167" y="565" type="curve"/>
			<point x="97" y="521" type="line"/>
			<point x="288" y="450"/>
			<point x="419" y="299"/>
		</contour>
	</outline>
</glyph>
<glyph name="aiZayin" format="2">
	<unicode hex="10846"/>
	<advance width="270"/>
	<outline>
		<contour>
			<point x="107" y="0" type="line"/>
			<point x="179" y="0" type="line"/>
			<point x="179" y="554" type="line"/>
			<point x="107" y="554" type="line"/>
		</contour>
	</outline>
</glyph>
<glyph name="aiTeth" format="2">
	<unicode hex="10848"/>
	<advance width="597"/>
	<outline>
		<contour>
			<point x="307" y="-12" type="curve" smooth="yes"/>
			<point x="444" y="-12"/>
			<point x="550" y="129"/>
			<point x="550" y="311" type="curve" smooth="yes"/>
			<point x="550" y="435"/>
			<point x="506" y="481"/>
			<point x="405" y="481" type="curve" smooth="yes"/>
			<point x="334" y="481"/>
			<point x="228" y="460"/>
			<point x="120" y="439" type="curve"/>
			<point x="120" y="357" type="line"/>
			<point x="223" y="380"/>
			<point x="331" y="399"/>
			<point x="391" y="399" type="curve" smooth="yes"/>
			<point x="452" y="399"/>
			<point x="479" y="373"/>
			<point x="479" y="297" type="curve" smooth="yes"/>
			<point x="479" y="169"/>
			<point x="405" y="71"/>
			<point x="313" y="71" type="curve" smooth="yes"/>
			<point x="247" y="71"/>
			<point x="146" y="134"/>
			<point x="146" y="361" type="curve" smooth="yes"/>
			<point x="146" y="459"/>
			<point x="153" y="583"/>
			<point x="178" y="735" type="curve"/>
			<point x="95" y="726" type="line"/>
			<point x="73" y="589"/>
			<point x="64" y="472"/>
			<point x="64" y="373" type="curve" smooth="yes"/>
			<point x="64" y="80"/>
			<point x="203" y="-12"/>
		</contour>
	</outline>
</glyph>
<glyph name="aiLamedh" format="2">
	<unicode hex="1084B"/>
	<advance width="474"/>
	<outline>
		<contour>
			<point x="285" y="-12" type="curve" smooth="yes"/>
			<point x="337" y="-12"/>
			<point x="389" y="-4"/>
			<point x="441" y="4" type="curve"/>
			<point x="441" y="86" type="line"/>
			<point x="393" y="78"/>
			<point x="343" y="70"/>
			<point x="295" y="70" type="curve" smooth="yes"/>
			<point x="184" y="70"/>
			<point x="140" y="118"/>
			<point x="140" y="249" type="curve" smooth="yes"/>
			<point x="140" y="389"/>
			<point x="189" y="600"/>
			<point x="227" y="735" type="curve"/>
			<point x="145" y="726" type="line"/>
			<point x="113" y="601"/>
			<point x="68" y="398"/>
			<point x="68" y="231" type="curve" smooth="yes"/>
			<point x="68" y="70"/>
			<point x="130" y="-12"/>
		</contour>
	</outline>
</glyph>
<glyph name="aiMem" format="2">
	<unicode hex="1084C"/>
	<advance width="508"/>
	<outline>
		<contour>
			<point x="102" y="209" type="line"/>
			<point x="262" y="308"/>
			<point x="307" y="484"/>
			<point x="307" y="622" type="curve" smooth="yes"/>
			<point x="307" y="660"/>
			<point x="306" y="694"/>
			<point x="303" y="734" type="curve"/>
			<point x="229" y="727" type="line"/>
			<point x="235" y="682"/>
			<point x="237" y="641"/>
			<point x="237" y="570" type="curve" smooth="yes"/>
			<point x="237" y="466"/>
			<point x="198" y="354"/>
			<point x="58" y="271" type="curve"/>
		</contour>
		<contour>
			<point x="116" y="-196" type="line"/>
			<point x="335" y="-11"/>
			<point x="458" y="222"/>
			<point x="458" y="400" type="curve" smooth="yes"/>
			<point x="458" y="505"/>
			<point x="413" y="554"/>
			<point x="277" y="554" type="curve" smooth="yes"/>
			<point x="167" y="554" type="line" smooth="yes"/>
			<point x="120" y="554"/>
			<point x="106" y="569"/>
			<point x="106" y="602" type="curve" smooth="yes"/>
			<point x="106" y="643"/>
			<point x="113" y="682"/>
			<point x="123" y="734" type="curve"/>
			<point x="53" y="727" type="line"/>
			<point x="39" y="671"/>
			<point x="33" y="622"/>
			<point x="33" y="575" type="curve" smooth="yes"/>
			<point x="33" y="507"/>
			<point x="74" y="472"/>
			<point x="138" y="472" type="curve" smooth="yes"/>
			<point x="268" y="472" type="line" smooth="yes"/>
			<point x="352" y="472"/>
			<point x="385" y="452"/>
			<point x="385" y="379" type="curve" smooth="yes"/>
			<point x="385" y="242"/>
			<point x="274" y="22"/>
			<point x="69" y="-133" type="curve"/>
		</contour>
	</outline>
</glyph>
<glyph name="aiNun" format="2">
	<unicode hex="1084D"/>
	<advance width="304"/>
	<outline>
		<contour>
			<point x="-7" y="-196" type="line"/>
			<point x="163" y="-21"/>
			<point x="252" y="179"/>
			<point x="253" y="302" type="curve" smooth="yes"/>
			<point x="255" y="512"/>
			<point x="106" y="478"/>
			<point x="106" y="617" type="curve" smooth="yes"/>
			<point x="106" y="654"/>
			<point x="114" y="690"/>
			<point x="123" y="734" type="curve"/>
			<point x="53" y="727" type="line"/>
			<point x="40" y="676"/>
			<point x="33" y="633"/>
			<point x="33" y="590" type="curve" smooth="yes"/>
			<point x="33" y="445"/>
			<point x="181" y="486"/>
			<point x="181" y="278" type="curve" smooth="yes"/>
			<point x="181" y="172"/>
			<point x="102" y="22"/>
			<point x="-61" y="-136" type="curve"/>
		</contour>
	</outline>
</glyph>
<glyph name="aiSamekh" format="2">
	<unicode hex="1084E"/>
	<advance width="501"/>
	<outline>
		<contour>
			<point x="95" y="209" type="line"/>
			<point x="255" y="308"/>
			<point x="300" y="484"/>
			<point x="300" y="622" type="curve" smooth="yes"/>
			<point x="300" y="660"/>
			<point x="299" y="694"/>
			<point x="295" y="734" type="curve"/>
			<point x="222" y="727" type="line"/>
			<point x="227" y="682"/>
			<point x="230" y="641"/>
			<point x="230" y="570" type="curve" smooth="yes"/>
			<point x="230" y="466"/>
			<point x="191" y="354"/>
			<point x="51" y="271" type="curve"/>
		</contour>
		<contour>
			<point x="108" y="-196" type="line"/>
			<point x="327" y="-11"/>
			<point x="450" y="222"/>
			<point x="450" y="400" type="curve" smooth="yes"/>
			<point x="450" y="505"/>
			<point x="406" y="554"/>
			<point x="270" y="554" type="curve" smooth="yes"/>
			<point x="8" y="554" type="line"/>
			<point x="8" y="472" type="line"/>
			<point x="260" y="472" type="line" smooth="yes"/>
			<point x="345" y="472"/>
			<point x="378" y="452"/>
			<point x="378" y="379" type="curve" smooth="yes"/>
			<point x="378" y="242"/>
			<point x="267" y="22"/>
			<point x="62" y="-133" type="curve"/>
		</contour>
	</outline>
</glyph>
<glyph name="aiAyin" format="2">
	<unicode hex="1084F"/>
	<advance width="545"/>
	<outline>
		<contour>
			<point x="275" y="204" type="curve" smooth="yes"/>
			<point x="413" y="204"/>
			<point x="501" y="302"/>
			<point x="503" y="554" type="curve"/>
			<point x="431" y="554" type="line"/>
			<point x="431" y="358"/>
			<point x="376" y="287"/>
			<point x="281" y="287" type="curve" smooth="yes"/>
			<point x="187" y="287"/>
			<point x="134" y="357"/>
			<point x="134" y="560" type="curve"/>
			<point x="49" y="551" type="line"/>
			<point x="51" y="295"/>
			<point x="139" y="204"/>
		</contour>
	</outline>
</glyph>
<glyph name="aiPe" format="2">
	<unicode hex="10850"/>
	<advance width="527"/>
	<outline>
		<contour>
			<point x="109" y="-196" type="line"/>
			<point x="345" y="-17"/>
			<point x="480" y="186"/>
			<point x="480" y="350" type="curve" smooth="yes"/>
			<point x="480" y="474"/>
			<point x="419" y="565"/>
			<point x="290" y="565" type="curve" smooth="yes"/>
			<point x="149" y="565"/>
			<point x="57" y="476"/>
			<point x="57" y="237" type="curve"/>
			<point x="127" y="237" type="line"/>
			<point x="130" y="419"/>
			<point x="184" y="482"/>
			<point x="284" y="482" type="curve" smooth="yes"/>
			<point x="362" y="482"/>
			<point x="408" y="431"/>
			<point x="408" y="340" type="curve" smooth="yes"/>
			<point x="408" y="210"/>
			<point x="287" y="17"/>
			<point x="63" y="-132" type="curve"/>
		</contour>
	</outline>
</glyph>
<glyph name="aiSadhe" format="2">
	<unicode hex="10851"/>
	<advance width="529"/>
	<outline>
		<contour>
			<point x="283" y="88" type="line"/>
			<point x="414" y="194"/>
			<point x="479" y="297"/>
			<point x="479" y="400" type="curve" smooth="yes"/>
			<point x="479" y="505"/>
			<point x="434" y="554"/>
			<point x="298" y="554" type="curve" smooth="yes"/>
			<point x="148" y="554" type="line"/>
			<point x="127" y="472" type="line"/>
			<point x="289" y="472" type="line" smooth="yes"/>
			<point x="373" y="472"/>
			<point x="407" y="452"/>
			<point x="407" y="379" type="curve" smooth="yes"/>
			<point x="407" y="301"/>
			<point x="351" y="224"/>
			<point x="233" y="138" type="curve"/>
		</contour>
		<contour>
			<point x="107" y="-185" type="line"/>
			<point x="179" y="-185" type="line"/>
			<point x="179" y="731" type="line"/>
			<point x="107" y="731" type="line"/>
		</contour>
	</outline>
</glyph>
<glyph name="aiQoph" format="2">
	<unicode hex="10852"/>
	<advance width="563"/>
	<outline>
		<contour>
			<point x="316" y="88" type="line"/>
			<point x="448" y="194"/>
			<point x="512" y="297"/>
			<point x="512" y="400" type="curve" smooth="yes"/>
			<point x="512" y="505"/>
			<point x="468" y="554"/>
			<point x="332" y="554" type="curve" smooth="yes"/>
			<point x="159" y="554" type="line" smooth="yes"/>
			<point x="112" y="554"/>
			<point x="99" y="569"/>
			<point x="99" y="602" type="curve" smooth="yes"/>
			<point x="99" y="642"/>
			<point x="105" y="681"/>
			<point x="116" y="731" type="curve"/>
			<point x="45" y="728" type="line"/>
			<point x="31" y="672"/>
			<point x="26" y="623"/>
			<point x="26" y="575" type="curve" smooth="yes"/>
			<point x="26" y="507"/>
			<point x="66" y="472"/>
			<point x="130" y="472" type="curve" smooth="yes"/>
			<point x="322" y="472" type="line" smooth="yes"/>
			<point x="406" y="472"/>
			<point x="440" y="452"/>
			<point x="440" y="379" type="curve" smooth="yes"/>
			<point x="440" y="301"/>
			<point x="385" y="224"/>
			<point x="267" y="138" type="curve"/>
		</contour>
		<contour>
			<point x="141" y="-184" type="line"/>
			<point x="213" y="-184" type="line"/>
			<point x="213" y="553" type="line"/>
			<point x="153" y="553" type="line"/>
			<point x="144" y="521"/>
			<point x="141" y="486"/>
			<point x="141" y="441" type="curve" smooth="yes"/>
		</contour>
	</outline>
</glyph>
<glyph name="aiShin" format="2">
	<unicode hex="10854"/>
	<advance width="709"/>
	<outline>
		<contour>
			<point x="342" y="-12" type="curve" smooth="yes"/>
			<point x="515" y="-12"/>
			<point x="660" y="178"/>
			<point x="679" y="554" type="curve"/>
			<point x="604" y="554" type="line"/>
			<point x="591" y="222"/>
			<point x="482" y="70"/>
			<point x="350" y="70" type="curve" smooth="yes"/>
			<point x="216" y="70"/>
			<point x="138" y="186"/>
			<point x="137" y="560" type="curve"/>
			<point x="49" y="551" type="line"/>
			<point x="58" y="133"/>
			<point x="164" y="-12"/>
		</contour>
		<contour>
			<point x="194" y="121" type="line"/>
			<point x="360" y="273"/>
			<point x="420" y="342"/>
			<point x="439" y="558" type="curve"/>
			<point x="363" y="553" type="line"/>
			<point x="344" y="370"/>
			<point x="301" y="304"/>
			<point x="168" y="172" type="curve"/>
		</contour>
	</outline>
</glyph>
<glyph name="aiTaw" format="2">
	<unicode hex="10855"/>
	<advance width="649"/>
	<outline>
		<contour>
			<point x="486" y="0" type="line"/>
			<point x="558" y="0" type="line"/>
			<point x="558" y="351" type="line" smooth="yes"/>
			<point x="558" y="499"/>
			<point x="484" y="554"/>
			<point x="371" y="554" type="curve" smooth="yes"/>
			<point x="139" y="554" type="line"/>
			<point x="139" y="472" type="line"/>
			<point x="341" y="472" type="line" smooth="yes"/>
			<point x="430" y="472"/>
			<point x="486" y="436"/>
			<point x="486" y="317" type="curve" smooth="yes"/>
		</contour>
		<contour>
			<point x="107" y="-185" type="line"/>
			<point x="179" y="-185" type="line"/>
			<point x="179" y="731" type="line"/>
			<point x="107" y="731" type="line"/>
		</contour>
	</outline>
</glyph>
<glyph name="pmAleph" format="2">
	<unicode hex="10860"/>
	<advance width="610"/>
	<outline>
		<contour>
			<point x="202" y="0" type="curve" smooth="yes"/>
			<point x="277" y="0" type="line"/>
			<point x="277" y="82" type="line"/>
			<point x="235" y="82" type="line" smooth="yes"/>
			<point x="171" y="82"/>
			<point x="146" y="98"/>
			<point x="146" y="142" type="curve" smooth="yes"/>
			<point x="146" y="193"/>
			<point x="181" y="264"/>
			<point x="244" y="337" type="curve"/>
			<point x="207" y="378" type="line"/>
			<point x="122" y="283"/>
			<point x="74" y="201"/>
			<point x="74" y="115" type="curve" smooth="yes"/>
			<point x="74" y="32"/>
			<point x="114" y="0"/>
		</contour>
		<contour>
			<point x="463" y="157" type="line"/>
			<point x="519" y="246"/>
			<point x="556" y="351"/>
			<point x="556" y="497" type="curve" smooth="yes"/>
			<point x="556" y="517"/>
			<point x="556" y="534"/>
			<point x="554" y="554" type="curve"/>
			<point x="466" y="554" type="line"/>
			<point x="470" y="526"/>
			<point x="472" y="499"/>
			<point x="472" y="474" type="curve" smooth="yes"/>
			<point x="472" y="353"/>
			<point x="455" y="268"/>
			<point x="414" y="177" type="curve"/>
		</contour>
		<contour>
			<point x="517" y="-7" type="curve"/>
			<point x="608" y="15" type="line"/>
			<point x="447" y="175"/>
			<point x="264" y="377"/>
			<point x="164" y="560" type="curve"/>
			<point x="74" y="542" type="line"/>
			<point x="191" y="355"/>
			<point x="371" y="139"/>
		</contour>
	</outline>
</glyph>
<glyph name="pmGimel" format="2">
	<unicode hex="10862"/>
	<advance width="392"/>
	<outline>
		<contour>
			<point x="255" y="0" type="line"/>
			<point x="327" y="0" type="line"/>
			<point x="292" y="408" type="line" smooth="yes"/>
			<point x="284" y="503"/>
			<point x="241" y="554"/>
			<point x="146" y="554" type="curve" smooth="yes"/>
			<point x="78" y="554" type="line"/>
			<point x="78" y="472" type="line"/>
			<point x="129" y="472" type="line" smooth="yes"/>
			<point x="191" y="472"/>
			<point x="222" y="444"/>
			<point x="227" y="372" type="curve" smooth="yes"/>
		</contour>
		<contour>
			<point x="50" y="-8" type="line"/>
			<point x="160" y="-2"/>
			<point x="250" y="83"/>
			<point x="257" y="157" type="curve"/>
			<point x="244" y="215" type="line"/>
			<point x="230" y="136"/>
			<point x="145" y="83"/>
			<point x="50" y="76" type="curve"/>
		</contour>
	</outline>
</glyph>
<glyph name="pmDaleth" format="2">
	<unicode hex="10863"/>
	<advance width="495"/>
	<outline>
		<contour>
			<point x="8" y="472" type="line"/>
			<point x="455" y="472" type="line"/>
			<point x="455" y="554" type="line"/>
			<point x="8" y="554" type="line"/>
		</contour>
		<contour>
			<point x="289" y="0" type="line"/>
			<point x="361" y="0" type="line"/>
			<point x="361" y="472" type="line"/>
			<point x="302" y="472" type="line"/>
			<point x="293" y="439"/>
			<point x="289" y="405"/>
			<point x="289" y="360" type="curve" smooth="yes"/>
		</contour>
	</outline>
</glyph>
<glyph name="pmHe" format="2">
	<unicode hex="10864"/>
	<advance width="640"/>
	<outline>
		<contour>
			<point x="477" y="0" type="line"/>
			<point x="549" y="0" type="line"/>
			<point x="549" y="351" type="line" smooth="yes"/>
			<point x="549" y="499"/>
			<point x="475" y="554"/>
			<point x="362" y="554" type="curve" smooth="yes"/>
			<point x="83" y="554" type="line"/>
			<point x="83" y="472" type="line"/>
			<point x="332" y="472" type="line" smooth="yes"/>
			<point x="421" y="472"/>
			<point x="477" y="436"/>
			<point x="477" y="317" type="curve" smooth="yes"/>
		</contour>
		<contour>
			<point x="64" y="5" type="curve"/>
			<point x="154" y="-4" type="line"/>
			<point x="213" y="114"/>
			<point x="272" y="327"/>
			<point x="299" y="519" type="curve"/>
			<point x="236" y="535" type="line"/>
			<point x="212" y="350"/>
			<point x="137" y="140"/>
		</contour>
	</outline>
</glyph>
<glyph name="pmWaw" format="2">
	<unicode hex="10865"/>
	<advance width="305"/>
	<outline>
		<contour>
			<point x="142" y="0" type="line"/>
			<point x="214" y="0" type="line"/>
			<point x="214" y="383" type="line" smooth="yes"/>
			<point x="214" y="514"/>
			<point x="159" y="554"/>
			<point x="60" y="554" type="curve" smooth="yes"/>
			<point x="8" y="554" type="line"/>
			<point x="8" y="472" type="line"/>
			<point x="30" y="472" type="line" smooth="yes"/>
			<point x="104" y="472"/>
			<point x="142" y="450"/>
			<point x="142" y="349" type="curve" smooth="yes"/>
		</contour>
	</outline>
</glyph>
<glyph name="pmYodh" format="2">
	<unicode hex="10869"/>
	<advance width="570"/>
	<outline>
		<contour>
			<point x="49" y="214" type="curve"/>
			<point x="130" y="216" type="line"/>
			<point x="130" y="413"/>
			<point x="183" y="483"/>
			<point x="275" y="483" type="curve" smooth="yes"/>
			<point x="368" y="483"/>
			<point x="419" y="414"/>
			<point x="419" y="211" type="curve"/>
			<point x="507" y="219" type="line"/>
			<point x="505" y="476"/>
			<point x="417" y="566"/>
			<point x="282" y="566" type="curve" smooth="yes"/>
			<point x="141" y="566"/>
			<point x="51" y="467"/>
		</contour>
	</outline>
</glyph>
<glyph name="pmLamedh" format="2">
	<unicode hex="1086B"/>
	<advance width="443"/>
	<outline>
		<contour>
			<point x="225" y="193" type="curve" smooth="yes"/>
			<point x="376" y="193" type="line"/>
			<point x="394" y="275" type="line"/>
			<point x="234" y="275" type="line" smooth="yes"/>
			<point x="150" y="275"/>
			<point x="116" y="295"/>
			<point x="116" y="368" type="curve" smooth="yes"/>
			<point x="116" y="464"/>
			<point x="195" y="577"/>
			<point x="361" y="680" type="curve"/>
			<point x="323" y="740" type="line"/>
			<point x="135" y="623"/>
			<point x="44" y="482"/>
			<point x="44" y="343" type="curve" smooth="yes"/>
			<point x="44" y="238"/>
			<point x="89" y="193"/>
		</contour>
	</outline>
</glyph>
<glyph name="pmNun" format="2">
	<unicode hex="1086E"/>
	<advance width="414"/>
	<outline>
		<contour>
			<point x="50" y="0" type="line"/>
			<point x="323" y="0" type="line"/>
			<point x="323" y="377" type="line" smooth="yes"/>
			<point x="323" y="513"/>
			<point x="264" y="554"/>
			<point x="159" y="554" type="curve" smooth="yes"/>
			<point x="78" y="554" type="line"/>
			<point x="78" y="472" type="line"/>
			<point x="132" y="472" type="line" smooth="yes"/>
			<point x="211" y="472"/>
			<point x="251" y="449"/>
			<point x="251" y="343" type="curve" smooth="yes"/>
			<point x="251" y="78" type="line"/>
			<point x="50" y="78" type="line"/>
		</contour>
	</outline>
</glyph>
<glyph name="pmSamekh" format="2">
	<unicode hex="1086F"/>
	<advance width="593"/>
	<outline>
		<contour>
			<point x="308" y="-12" type="curve" smooth="yes"/>
			<point x="444" y="-12"/>
			<point x="546" y="141"/>
			<point x="546" y="380" type="curve" smooth="yes"/>
			<point x="546" y="507"/>
			<point x="501" y="554"/>
			<point x="393" y="554" type="curve" smooth="yes"/>
			<point x="4" y="554" type="line"/>
			<point x="4" y="472" type="line"/>
			<point x="380" y="472" type="line" smooth="yes"/>
			<point x="447" y="472"/>
			<point x="475" y="445"/>
			<point x="475" y="366" type="curve" smooth="yes"/>
			<point x="475" y="183"/>
			<point x="401" y="71"/>
			<point x="315" y="71" type="curve" smooth="yes"/>
			<point x="197" y="71"/>
			<point x="148" y="168"/>
			<point x="145" y="509" type="curve"/>
			<point x="74" y="487" type="line"/>
			<point x="76" y="117"/>
			<point x="150" y="-12"/>
		</contour>
	</outline>
</glyph>
<glyph name="pmPe" format="2">
	<unicode hex="10871"/>
	<advance width="580"/>
	<outline>
		<contour>
			<point x="50" y="-4" type="line"/>
			<point x="474" y="-4" type="line"/>
			<point x="487" y="100"/>
			<point x="495" y="197"/>
			<point x="495" y="313" type="curve" smooth="yes"/>
			<point x="495" y="503"/>
			<point x="416" y="566"/>
			<point x="264" y="566" type="curve" smooth="yes"/>
			<point x="150" y="566"/>
			<point x="58" y="495"/>
			<point x="58" y="374" type="curve" smooth="yes"/>
			<point x="58" y="270"/>
			<point x="117" y="225"/>
			<point x="212" y="225" type="curve" smooth="yes"/>
			<point x="250" y="225" type="line"/>
			<point x="250" y="301" type="line"/>
			<point x="224" y="301" type="line" smooth="yes"/>
			<point x="168" y="301"/>
			<point x="130" y="320"/>
			<point x="130" y="380" type="curve" smooth="yes"/>
			<point x="130" y="447"/>
			<point x="179" y="484"/>
			<point x="249" y="484" type="curve" smooth="yes"/>
			<point x="369" y="484"/>
			<point x="423" y="434"/>
			<point x="423" y="279" type="curve" smooth="yes"/>
			<point x="423" y="206"/>
			<point x="418" y="139"/>
			<point x="410" y="74" type="curve"/>
			<point x="50" y="74" type="line"/>
		</contour>
	</outline>
</glyph>
<glyph name="pmSadhe" format="2">
	<unicode hex="10872"/>
	<advance width="533"/>
	<outline>
		<contour>
			<point x="50" y="0" type="line"/>
			<point x="481" y="0" type="line"/>
			<point x="496" y="78" type="line"/>
			<point x="50" y="78" type="line"/>
		</contour>
		<contour>
			<point x="441" y="42" type="curve"/>
			<point x="496" y="78" type="line"/>
			<point x="308" y="208"/>
			<point x="170" y="368"/>
			<point x="103" y="560" type="curve"/>
			<point x="15" y="545" type="line"/>
			<point x="93" y="327"/>
			<point x="245" y="169"/>
		</contour>
		<contour>
			<point x="324" y="199" type="line"/>
			<point x="428" y="285"/>
			<point x="486" y="372"/>
			<point x="486" y="439" type="curve" smooth="yes"/>
			<point x="486" y="519"/>
			<point x="451" y="554"/>
			<point x="359" y="554" type="curve" smooth="yes"/>
			<point x="293" y="554" type="line"/>
			<point x="293" y="472" type="line"/>
			<point x="326" y="472" type="line" smooth="yes"/>
			<point x="397" y="472"/>
			<point x="414" y="453"/>
			<point x="414" y="412" type="curve" smooth="yes"/>
			<point x="414" y="368"/>
			<point x="370" y="308"/>
			<point x="285" y="241" type="curve"/>
		</contour>
	</outline>
</glyph>
<glyph name="pmResh" format="2">
	<unicode hex="10874"/>
	<advance width="475"/>
	<outline>
		<contour>
			<point x="312" y="0" type="line"/>
			<point x="384" y="0" type="line"/>
			<point x="384" y="351" type="line" smooth="yes"/>
			<point x="384" y="499"/>
			<point x="310" y="554"/>
			<point x="197" y="554" type="curve" smooth="yes"/>
			<point x="8" y="554" type="line"/>
			<point x="8" y="472" type="line"/>
			<point x="167" y="472" type="line" smooth="yes"/>
			<point x="256" y="472"/>
			<point x="312" y="436"/>
			<point x="312" y="317" type="curve" smooth="yes"/>
		</contour>
	</outline>
</glyph>
<glyph name="hrAleph" format="2">
	<unicode hex="108E0"/>
	<advance width="640"/>
	<outline>
		<contour>
			<point x="83" y="0" type="line"/>
			<point x="362" y="0" type="line" smooth="yes"/>
			<point x="475" y="0"/>
			<point x="549" y="55"/>
			<point x="549" y="203" type="curve" smooth="yes"/>
			<point x="549" y="554" type="line"/>
			<point x="477" y="554" type="line"/>
			<point x="477" y="237" type="line" smooth="yes"/>
			<point x="477" y="118"/>
			<point x="421" y="82"/>
			<point x="332" y="82" type="curve" smooth="yes"/>
			<point x="83" y="82" type="line"/>
		</contour>
		<contour>
			<point x="234" y="24" type="curve"/>
			<point x="297" y="38" type="line"/>
			<point x="273" y="229"/>
			<point x="211" y="442"/>
			<point x="153" y="560" type="curve"/>
			<point x="65" y="545" type="line"/>
			<point x="134" y="413"/>
			<point x="211" y="205"/>
		</contour>
	</outline>
</glyph>
<glyph name="hrGimel" format="2">
	<unicode hex="108E2"/>
	<advance width="533"/>
	<outline>
		<contour>
			<point x="50" y="0" type="line"/>
			<point x="481" y="0" type="line"/>
			<point x="494" y="68" type="line"/>
			<point x="306" y="203"/>
			<point x="170" y="364"/>
			<point x="103" y="560" type="curve"/>
			<point x="15" y="547" type="line"/>
			<point x="85" y="351"/>
			<point x="206" y="202"/>
			<point x="383" y="62" type="curve"/>
			<point x="400" y="78" type="line"/>
			<point x="50" y="78" type="line"/>
		</contour>
	</outline>
	<anchor name="aboveHE" x="255" y="590"/>
	<anchor name="belowPrimaryHE" x="258" y="-27"/>
	<anchor name="centerHE" x="112" y="189"/>
	<anchor name="aboveLeftHE" x="0" y="590"/>
</glyph>
<glyph name="hrHe" format="2">
	<unicode hex="108E4"/>
	<advance width="608"/>
	<outline>
		<contour>
			<point x="84" y="0" type="curve"/>
			<point x="168" y="0" type="line"/>
			<point x="165" y="28"/>
			<point x="162" y="55"/>
			<point x="162" y="80" type="curve" smooth="yes"/>
			<point x="162" y="201"/>
			<point x="181" y="286"/>
			<point x="222" y="377" type="curve"/>
			<point x="174" y="397" type="line"/>
			<point x="119" y="308"/>
			<point x="82" y="203"/>
			<point x="82" y="57" type="curve" smooth="yes"/>
			<point x="82" y="37"/>
			<point x="82" y="20"/>
		</contour>
		<contour>
			<point x="503" y="-7" type="curve"/>
			<point x="594" y="13" type="line"/>
			<point x="432" y="175"/>
			<point x="250" y="376"/>
			<point x="149" y="560" type="curve"/>
			<point x="59" y="544" type="line"/>
			<point x="177" y="354"/>
			<point x="356" y="139"/>
		</contour>
		<component base="aiZayin" xOffset="408"/>
	</outline>
	<anchor name="aboveHE" x="317" y="590"/>
	<anchor name="belowPrimaryHE" x="316" y="-27"/>
	<anchor name="aboveLeftHE" x="33" y="590"/>
	<anchor name="centerHE" x="260" y="109"/>
</glyph>
<glyph name="hrWaw" format="2">
	<unicode hex="108E5"/>
	<advance width="519"/>
	<outline>
		<contour>
			<point x="247" y="-12" type="line"/>
			<point x="391" y="84"/>
			<point x="442" y="191"/>
			<point x="442" y="297" type="curve" smooth="yes"/>
			<point x="442" y="450"/>
			<point x="339" y="543"/>
			<point x="198" y="564" type="curve"/>
			<point x="179" y="482" type="line"/>
			<point x="280" y="461"/>
			<point x="370" y="404"/>
			<point x="370" y="282" type="curve" smooth="yes"/>
			<point x="370" y="207"/>
			<point x="328" y="133"/>
			<point x="201" y="50" type="curve"/>
		</contour>
	</outline>
</glyph>
<glyph name="hrTeth" format="2">
	<unicode hex="108E8"/>
	<advance width="580"/>
	<outline>
		<contour>
			<point x="315" y="-12" type="curve" smooth="yes"/>
			<point x="430" y="-12"/>
			<point x="521" y="59"/>
			<point x="521" y="180" type="curve" smooth="yes"/>
			<point x="521" y="284"/>
			<point x="462" y="329"/>
			<point x="367" y="329" type="curve" smooth="yes"/>
			<point x="329" y="329" type="line"/>
			<point x="329" y="253" type="line"/>
			<point x="356" y="253" type="line" smooth="yes"/>
			<point x="411" y="253"/>
			<point x="449" y="234"/>
			<point x="449" y="174" type="curve" smooth="yes"/>
			<point x="449" y="108"/>
			<point x="401" y="70"/>
			<point x="330" y="70" type="curve" smooth="yes"/>
			<point x="229" y="70"/>
			<point x="178" y="115"/>
			<point x="178" y="236" type="curve" smooth="yes"/>
			<point x="178" y="362"/>
			<point x="248" y="493"/>
			<point x="534" y="550" type="curve"/>
			<point x="499" y="616" type="line"/>
			<point x="192" y="540"/>
			<point x="106" y="387"/>
			<point x="106" y="220" type="curve" smooth="yes"/>
			<point x="106" y="63"/>
			<point x="174" y="-12"/>
		</contour>
	</outline>
</glyph>
<glyph name="hrYodh" format="2">
	<unicode hex="108E9"/>
	<advance width="476"/>
	<outline>
		<contour>
			<point x="395" y="-12" type="curve"/>
			<point x="402" y="56" type="line"/>
			<point x="262" y="56"/>
			<point x="131" y="168"/>
			<point x="131" y="307" type="curve" smooth="yes"/>
			<point x="131" y="419"/>
			<point x="201" y="496"/>
			<point x="295" y="496" type="curve" smooth="yes"/>
			<point x="340" y="496"/>
			<point x="375" y="480"/>
			<point x="401" y="455" type="curve"/>
			<point x="442" y="507" type="line"/>
			<point x="408" y="540"/>
			<point x="359" y="564"/>
			<point x="292" y="564" type="curve" smooth="yes"/>
			<point x="160" y="564"/>
			<point x="46" y="470"/>
			<point x="46" y="307" type="curve" smooth="yes"/>
			<point x="46" y="118"/>
			<point x="216" y="-12"/>
		</contour>
	</outline>
</glyph>
<glyph name="hrNun" format="2">
	<unicode hex="108ED"/>
	<advance width="279"/>
	<outline>
		<contour>
			<point x="-21" y="-197" type="line"/>
			<point x="25" y="-197" type="line" smooth="yes"/>
			<point x="131" y="-197"/>
			<point x="189" y="-155"/>
			<point x="189" y="-20" type="curve" smooth="yes"/>
			<point x="189" y="554" type="line"/>
			<point x="117" y="554" type="line"/>
			<point x="117" y="14" type="line" smooth="yes"/>
			<point x="117" y="-92"/>
			<point x="77" y="-115"/>
			<point x="-2" y="-115" type="curve" smooth="yes"/>
			<point x="-21" y="-115" type="line"/>
		</contour>
	</outline>
</glyph>
<glyph name="hrAyn" format="2">
	<unicode hex="108EF"/>
	<advance width="581"/>
	<outline>
		<contour>
			<point x="289" y="181" type="curve" smooth="yes"/>
			<point x="435" y="181"/>
			<point x="527" y="273"/>
			<point x="531" y="560" type="curve"/>
			<point x="444" y="545" type="line"/>
			<point x="444" y="323"/>
			<point x="390" y="264"/>
			<point x="296" y="264" type="curve" smooth="yes"/>
			<point x="201" y="264"/>
			<point x="148" y="325"/>
			<point x="148" y="560" type="curve"/>
			<point x="60" y="545" type="line"/>
			<point x="64" y="270"/>
			<point x="152" y="181"/>
		</contour>
	</outline>
</glyph>
<glyph name="hrPe" format="2">
	<unicode hex="108F0"/>
	<advance width="566"/>
	<outline>
		<contour>
			<point x="405" y="-185" type="line"/>
			<point x="477" y="-185" type="line"/>
			<point x="477" y="341" type="line" smooth="yes"/>
			<point x="477" y="513"/>
			<point x="393" y="566"/>
			<point x="268" y="566" type="curve" smooth="yes"/>
			<point x="156" y="566"/>
			<point x="66" y="493"/>
			<point x="66" y="366" type="curve" smooth="yes"/>
			<point x="66" y="257"/>
			<point x="125" y="210"/>
			<point x="220" y="210" type="curve" smooth="yes"/>
			<point x="258" y="210" type="line"/>
			<point x="258" y="293" type="line"/>
			<point x="231" y="293" type="line" smooth="yes"/>
			<point x="176" y="293"/>
			<point x="138" y="312"/>
			<point x="138" y="374" type="curve" smooth="yes"/>
			<point x="138" y="444"/>
			<point x="188" y="484"/>
			<point x="258" y="484" type="curve" smooth="yes"/>
			<point x="349" y="484"/>
			<point x="405" y="454"/>
			<point x="405" y="310" type="curve" smooth="yes"/>
		</contour>
	</outline>
</glyph>
<glyph name="pnAlf" format="2">
	<unicode hex="10900"/>
	<advance width="553"/>
	<outline>
		<contour>
			<point x="82" y="316" type="line"/>
			<point x="477" y="316" type="line"/>
			<point x="477" y="379" type="line"/>
			<point x="82" y="379" type="line"/>
		</contour>
		<contour>
			<point x="279" y="-12" type="curve" smooth="yes"/>
			<point x="423" y="-12"/>
			<point x="515" y="132"/>
			<point x="517" y="518" type="curve"/>
			<point x="433" y="518" type="line"/>
			<point x="433" y="178"/>
			<point x="382" y="64"/>
			<point x="286" y="64" type="curve" smooth="yes"/>
			<point x="189" y="64"/>
			<point x="138" y="179"/>
			<point x="138" y="524" type="curve"/>
			<point x="46" y="515" type="line"/>
			<point x="47" y="127"/>
			<point x="141" y="-12"/>
		</contour>
	</outline>
</glyph>
<glyph name="pnBet" format="2">
	<unicode hex="10901"/>
	<advance width="529"/>
	<outline>
		<contour>
			<point x="88" y="0" type="line"/>
			<point x="440" y="0" type="line"/>
			<point x="440" y="519" type="line"/>
			<point x="262" y="519" type="line" smooth="yes"/>
			<point x="137" y="519"/>
			<point x="51" y="471"/>
			<point x="51" y="361" type="curve" smooth="yes"/>
			<point x="51" y="251"/>
			<point x="143" y="214"/>
			<point x="265" y="214" type="curve" smooth="yes"/>
			<point x="368" y="214" type="line"/>
			<point x="368" y="73" type="line"/>
			<point x="88" y="73" type="line"/>
		</contour>
		<contour>
			<point x="263" y="275" type="line" smooth="yes"/>
			<point x="175" y="275"/>
			<point x="129" y="299"/>
			<point x="129" y="360" type="curve" smooth="yes"/>
			<point x="129" y="418"/>
			<point x="173" y="446"/>
			<point x="261" y="446" type="curve" smooth="yes"/>
			<point x="368" y="446" type="line"/>
			<point x="368" y="275" type="line"/>
		</contour>
	</outline>
</glyph>
<glyph name="pnGaml" format="2">
	<unicode hex="10902"/>
	<advance width="437"/>
	<outline>
		<contour>
			<point x="275" y="0" type="line"/>
			<point x="348" y="0" type="line"/>
			<point x="348" y="554" type="line"/>
			<point x="27" y="554" type="line"/>
			<point x="27" y="472" type="line"/>
			<point x="275" y="472" type="line"/>
		</contour>
	</outline>
</glyph>
<glyph name="pnDelt" format="2">
	<unicode hex="10903"/>
	<advance width="551"/>
	<outline>
		<contour>
			<point x="313" y="0" type="curve" smooth="yes"/>
			<point x="461" y="0" type="line"/>
			<point x="461" y="555" type="line"/>
			<point x="317" y="555" type="line" smooth="yes"/>
			<point x="152" y="555"/>
			<point x="58" y="461"/>
			<point x="58" y="279" type="curve" smooth="yes"/>
			<point x="58" y="97"/>
			<point x="152" y="0"/>
		</contour>
		<contour>
			<point x="316" y="82" type="line" smooth="yes"/>
			<point x="190" y="82"/>
			<point x="132" y="151"/>
			<point x="132" y="279" type="curve" smooth="yes"/>
			<point x="132" y="400"/>
			<point x="190" y="472"/>
			<point x="316" y="472" type="curve" smooth="yes"/>
			<point x="389" y="472" type="line"/>
			<point x="389" y="82" type="line"/>
		</contour>
		<contour>
			<point x="389" y="-120" type="line"/>
			<point x="461" y="-120" type="line"/>
			<point x="461" y="184" type="line"/>
			<point x="389" y="121" type="line"/>
		</contour>
	</outline>
</glyph>
<glyph name="pnHe" format="2">
	<unicode hex="10904"/>
	<advance width="479"/>
	<outline>
		<contour>
			<point x="308" y="-185" type="line"/>
			<point x="389" y="-185" type="line"/>
			<point x="389" y="518" type="line"/>
			<point x="59" y="518" type="line"/>
			<point x="59" y="445" type="line"/>
			<point x="308" y="445" type="line"/>
			<point x="308" y="304" type="line"/>
			<point x="100" y="304" type="line"/>
			<point x="100" y="238" type="line"/>
			<point x="308" y="238" type="line"/>
			<point x="308" y="73" type="line"/>
			<point x="53" y="73" type="line"/>
			<point x="53" y="0" type="line"/>
			<point x="308" y="0" type="line"/>
		</contour>
	</outline>
</glyph>
<glyph name="pnZai" format="2">
	<unicode hex="10906"/>
	<advance width="487"/>
	<outline>
		<contour>
			<point x="58" y="0" type="line"/>
			<point x="446" y="0" type="line"/>
			<point x="446" y="82" type="line"/>
			<point x="158" y="82" type="line"/>
			<point x="443" y="468" type="line"/>
			<point x="433" y="518" type="line"/>
			<point x="76" y="518" type="line"/>
			<point x="76" y="436" type="line"/>
			<point x="334" y="436" type="line"/>
			<point x="48" y="50" type="line"/>
		</contour>
	</outline>
</glyph>
<glyph name="pnHet" format="2">
	<unicode hex="10907"/>
	<advance width="617"/>
	<outline>
		<contour>
			<point x="455" y="-185" type="line"/>
			<point x="527" y="-185" type="line"/>
			<point x="527" y="518" type="line"/>
			<point x="169" y="518" type="line"/>
			<point x="169" y="695" type="line"/>
			<point x="97" y="695" type="line"/>
			<point x="97" y="0" type="line"/>
			<point x="455" y="0" type="line"/>
		</contour>
		<contour>
			<point x="169" y="304" type="line"/>
			<point x="169" y="443" type="line"/>
			<point x="455" y="443" type="line"/>
			<point x="455" y="304" type="line"/>
		</contour>
		<contour>
			<point x="169" y="75" type="line"/>
			<point x="169" y="237" type="line"/>
			<point x="455" y="237" type="line"/>
			<point x="455" y="75" type="line"/>
		</contour>
	</outline>
</glyph>
<glyph name="pnYod" format="2">
	<unicode hex="10909"/>
	<advance width="498"/>
	<outline>
		<contour>
			<point x="90" y="256" type="line"/>
			<point x="262" y="256" type="line"/>
			<point x="262" y="321" type="line"/>
			<point x="90" y="321" type="line"/>
		</contour>
		<contour>
			<point x="99" y="0" type="line"/>
			<point x="439" y="0" type="line"/>
			<point x="439" y="82" type="line"/>
			<point x="195" y="82" type="line"/>
			<point x="436" y="504" type="line"/>
			<point x="436" y="554" type="line"/>
			<point x="72" y="554" type="line"/>
			<point x="72" y="472" type="line"/>
			<point x="340" y="472" type="line"/>
			<point x="99" y="50" type="line"/>
		</contour>
	</outline>
</glyph>
<glyph name="pnKaf" format="2">
	<unicode hex="1090A"/>
	<advance width="501"/>
	<outline>
		<contour>
			<point x="300" y="-185" type="line"/>
			<point x="372" y="-185" type="line"/>
			<point x="372" y="518" type="line"/>
			<point x="300" y="518" type="line"/>
			<point x="300" y="423" type="line"/>
			<point x="315" y="429" type="line"/>
			<point x="280" y="499"/>
			<point x="192" y="530"/>
			<point x="53" y="530" type="curve"/>
			<point x="53" y="449" type="line"/>
			<point x="241" y="449"/>
			<point x="300" y="410"/>
			<point x="300" y="342" type="curve" smooth="yes"/>
			<point x="300" y="265"/>
			<point x="241" y="228"/>
			<point x="53" y="228" type="curve"/>
			<point x="53" y="146" type="line"/>
			<point x="195" y="146"/>
			<point x="280" y="177"/>
			<point x="316" y="242" type="curve"/>
			<point x="300" y="246" type="line"/>
		</contour>
	</outline>
</glyph>
<glyph name="pnLamd" format="2">
	<unicode hex="1090B"/>
	<advance width="446"/>
	<outline>
		<contour>
			<point x="97" y="0" type="line"/>
			<point x="417" y="0" type="line"/>
			<point x="417" y="82" type="line"/>
			<point x="169" y="82" type="line"/>
			<point x="169" y="695" type="line"/>
			<point x="97" y="695" type="line"/>
		</contour>
	</outline>
</glyph>
<glyph name="pnMem" format="2">
	<unicode hex="1090C"/>
	<advance width="822"/>
	<outline>
		<contour>
			<point x="659" y="-185" type="line"/>
			<point x="732" y="-185" type="line"/>
			<point x="732" y="518" type="line"/>
			<point x="663" y="518" type="line"/>
			<point x="661" y="346"/>
			<point x="608" y="230"/>
			<point x="531" y="230" type="curve" smooth="yes"/>
			<point x="469" y="230"/>
			<point x="431" y="304"/>
			<point x="431" y="523" type="curve"/>
			<point x="358" y="514" type="line"/>
			<point x="356" y="342"/>
			<point x="304" y="230"/>
			<point x="230" y="230" type="curve" smooth="yes"/>
			<point x="164" y="230"/>
			<point x="127" y="297"/>
			<point x="127" y="524" type="curve"/>
			<point x="49" y="515" type="line"/>
			<point x="51" y="236"/>
			<point x="119" y="146"/>
			<point x="219" y="146" type="curve" smooth="yes"/>
			<point x="293" y="146"/>
			<point x="362" y="206"/>
			<point x="392" y="337" type="curve"/>
			<point x="377" y="337" type="line"/>
			<point x="396" y="205"/>
			<point x="450" y="146"/>
			<point x="521" y="146" type="curve" smooth="yes"/>
			<point x="588" y="146"/>
			<point x="643" y="201"/>
			<point x="673" y="279" type="curve"/>
			<point x="670" y="291" type="line"/>
			<point x="661" y="205"/>
			<point x="659" y="155"/>
			<point x="659" y="105" type="curve" smooth="yes"/>
		</contour>
	</outline>
</glyph>
<glyph name="pnNun" format="2">
	<unicode hex="1090D"/>
	<advance width="568"/>
	<outline>
		<contour>
			<point x="405" y="-185" type="line"/>
			<point x="478" y="-185" type="line"/>
			<point x="478" y="518" type="line"/>
			<point x="409" y="518" type="line"/>
			<point x="407" y="340"/>
			<point x="338" y="230"/>
			<point x="251" y="230" type="curve" smooth="yes"/>
			<point x="173" y="230"/>
			<point x="127" y="297"/>
			<point x="127" y="524" type="curve"/>
			<point x="49" y="515" type="line"/>
			<point x="51" y="236"/>
			<point x="128" y="146"/>
			<point x="241" y="146" type="curve" smooth="yes"/>
			<point x="315" y="146"/>
			<point x="382" y="204"/>
			<point x="419" y="288" type="curve"/>
			<point x="416" y="300" type="line"/>
			<point x="407" y="214"/>
			<point x="405" y="164"/>
			<point x="405" y="114" type="curve" smooth="yes"/>
		</contour>
	</outline>
</glyph>
<glyph name="pnSemk" format="2">
	<unicode hex="1090E"/>
	<advance width="555"/>
	<outline>
		<contour>
			<point x="241" y="-120" type="line"/>
			<point x="314" y="-120" type="line"/>
			<point x="314" y="111" type="line"/>
			<point x="516" y="111" type="line"/>
			<point x="516" y="193" type="line"/>
			<point x="314" y="193" type="line"/>
			<point x="314" y="298" type="line"/>
			<point x="481" y="298" type="line"/>
			<point x="481" y="373" type="line"/>
			<point x="314" y="373" type="line"/>
			<point x="314" y="472" type="line"/>
			<point x="516" y="472" type="line"/>
			<point x="516" y="554" type="line"/>
			<point x="39" y="554" type="line"/>
			<point x="39" y="472" type="line"/>
			<point x="241" y="472" type="line"/>
			<point x="241" y="373" type="line"/>
			<point x="74" y="373" type="line"/>
			<point x="74" y="298" type="line"/>
			<point x="241" y="298" type="line"/>
			<point x="241" y="193" type="line"/>
			<point x="39" y="193" type="line"/>
			<point x="39" y="111" type="line"/>
			<point x="241" y="111" type="line"/>
		</contour>
	</outline>
</glyph>
<glyph name="pnPe" format="2">
	<unicode hex="10910"/>
	<advance width="599"/>
	<outline>
		<contour>
			<point x="409" y="-120" type="line"/>
			<point x="481" y="-120" type="line"/>
			<point x="481" y="355" type="line" smooth="yes"/>
			<point x="481" y="521"/>
			<point x="380" y="566"/>
			<point x="282" y="566" type="curve" smooth="yes"/>
			<point x="183" y="566"/>
			<point x="83" y="521"/>
			<point x="83" y="355" type="curve" smooth="yes"/>
			<point x="83" y="269" type="line"/>
			<point x="155" y="269" type="line"/>
			<point x="155" y="335" type="line" smooth="yes"/>
			<point x="155" y="449"/>
			<point x="215" y="481"/>
			<point x="282" y="481" type="curve" smooth="yes"/>
			<point x="349" y="481"/>
			<point x="409" y="449"/>
			<point x="409" y="335" type="curve" smooth="yes"/>
		</contour>
	</outline>
</glyph>
<glyph name="pnRosh" format="2">
	<unicode hex="10913"/>
	<advance width="532"/>
	<outline>
		<contour>
			<point x="370" y="-185" type="line"/>
			<point x="442" y="-185" type="line"/>
			<point x="442" y="518" type="line"/>
			<point x="294" y="518" type="line" smooth="yes"/>
			<point x="152" y="518"/>
			<point x="53" y="463"/>
			<point x="53" y="333" type="curve" smooth="yes"/>
			<point x="53" y="197"/>
			<point x="159" y="146"/>
			<point x="292" y="146" type="curve" smooth="yes"/>
			<point x="370" y="146" type="line"/>
		</contour>
		<contour>
			<point x="294" y="228" type="line" smooth="yes"/>
			<point x="190" y="228"/>
			<point x="125" y="258"/>
			<point x="125" y="334" type="curve" smooth="yes"/>
			<point x="125" y="405"/>
			<point x="189" y="437"/>
			<point x="292" y="437" type="curve" smooth="yes"/>
			<point x="370" y="437" type="line"/>
			<point x="370" y="228" type="line"/>
		</contour>
	</outline>
</glyph>
<glyph name="pnShin" format="2">
	<unicode hex="10914"/>
	<advance width="773"/>
	<outline>
		<contour>
			<point x="219" y="146" type="curve" smooth="yes"/>
			<point x="293" y="146"/>
			<point x="362" y="206"/>
			<point x="392" y="337" type="curve"/>
			<point x="377" y="337" type="line"/>
			<point x="396" y="205"/>
			<point x="450" y="146"/>
			<point x="521" y="146" type="curve" smooth="yes"/>
			<point x="641" y="146"/>
			<point x="729" y="289"/>
			<point x="733" y="518" type="curve"/>
			<point x="664" y="518" type="line"/>
			<point x="662" y="346"/>
			<point x="608" y="230"/>
			<point x="531" y="230" type="curve" smooth="yes"/>
			<point x="469" y="230"/>
			<point x="431" y="304"/>
			<point x="431" y="523" type="curve"/>
			<point x="358" y="514" type="line"/>
			<point x="356" y="342"/>
			<point x="304" y="230"/>
			<point x="230" y="230" type="curve" smooth="yes"/>
			<point x="164" y="230"/>
			<point x="127" y="297"/>
			<point x="127" y="524" type="curve"/>
			<point x="49" y="515" type="line"/>
			<point x="51" y="236"/>
			<point x="119" y="146"/>
		</contour>
	</outline>
</glyph>
<glyph name="pnTau" format="2">
	<unicode hex="10915"/>
	<advance width="511"/>
	<outline>
		<contour>
			<point x="223" y="0" type="line"/>
			<point x="295" y="0" type="line"/>
			<point x="295" y="222" type="line"/>
			<point x="491" y="222" type="line"/>
			<point x="491" y="305" type="line"/>
			<point x="295" y="305" type="line"/>
			<point x="295" y="518" type="line"/>
			<point x="223" y="518" type="line"/>
			<point x="223" y="305" type="line"/>
			<point x="27" y="305" type="line"/>
			<point x="27" y="222" type="line"/>
			<point x="223" y="222" type="line"/>
		</contour>
	</outline>
</glyph>
<glyph name="ampersand.S" format="2">
	<advance width="598"/>
	<outline>
		<contour>
			<point x="561" y="-12" type="curve"/>
			<point x="583" y="56" type="line"/>
			<point x="545" y="69"/>
			<point x="491" y="94"/>
			<point x="439" y="134" type="curve" smooth="yes"/>
			<point x="319" y="225"/>
			<point x="172" y="346"/>
			<point x="172" y="449" type="curve" smooth="yes"/>
			<point x="172" y="498"/>
			<point x="210" y="536"/>
			<point x="270" y="536" type="curve" smooth="yes"/>
			<point x="316" y="536"/>
			<point x="346" y="527"/>
			<point x="393" y="492" type="curve"/>
			<point x="426" y="550" type="line"/>
			<point x="374" y="591"/>
			<point x="335" y="606"/>
			<point x="268" y="606" type="curve" smooth="yes"/>
			<point x="170" y="606"/>
			<point x="104" y="538"/>
			<point x="104" y="450" type="curve" smooth="yes"/>
			<point x="104" y="331"/>
			<point x="253" y="185"/>
			<point x="390" y="79" type="curve" smooth="yes"/>
			<point x="450" y="33"/>
			<point x="509" y="3"/>
		</contour>
		<contour>
			<point x="232" y="-12" type="curve" smooth="yes"/>
			<point x="322" y="-12"/>
			<point x="386" y="31"/>
			<point x="438" y="91" type="curve" smooth="yes"/>
			<point x="499" y="162"/>
			<point x="543" y="249"/>
			<point x="571" y="341" type="curve"/>
			<point x="495" y="341" type="line"/>
			<point x="469" y="257"/>
			<point x="431" y="186"/>
			<point x="381" y="131" type="curve" smooth="yes"/>
			<point x="341" y="88"/>
			<point x="290" y="58"/>
			<point x="238" y="58" type="curve" smooth="yes"/>
			<point x="162" y="58"/>
			<point x="103" y="101"/>
			<point x="103" y="171" type="curve" smooth="yes"/>
			<point x="103" y="228"/>
			<point x="144" y="269"/>
			<point x="203" y="309" type="curve"/>
			<point x="174" y="361" type="line"/>
			<point x="100" y="313"/>
			<point x="32" y="255"/>
			<point x="32" y="163" type="curve" smooth="yes"/>
			<point x="32" y="56"/>
			<point x="116" y="-12"/>
		</contour>
	</outline>
</glyph>
<glyph name="cedi.S" format="2">
	<advance width="497"/>
	<outline>
		<contour>
			<point x="307" y="-12" type="curve" smooth="yes"/>
			<point x="376" y="-12"/>
			<point x="428" y="17"/>
			<point x="470" y="70" type="curve"/>
			<point x="432" y="124" type="line"/>
			<point x="398" y="82"/>
			<point x="359" y="63"/>
			<point x="311" y="63" type="curve" smooth="yes"/>
			<point x="199" y="63"/>
			<point x="134" y="148"/>
			<point x="134" y="279" type="curve" smooth="yes"/>
			<point x="134" y="409"/>
			<point x="200" y="491"/>
			<point x="311" y="491" type="curve" smooth="yes"/>
			<point x="357" y="491"/>
			<point x="394" y="475"/>
			<point x="425" y="440" type="curve"/>
			<point x="462" y="495" type="line"/>
			<point x="428" y="540"/>
			<point x="372" y="566"/>
			<point x="308" y="566" type="curve" smooth="yes"/>
			<point x="161" y="566"/>
			<point x="63" y="455"/>
			<point x="63" y="277" type="curve" smooth="yes"/>
			<point x="63" y="100"/>
			<point x="160" y="-12"/>
		</contour>
		<contour>
			<point x="275" y="-110" type="line"/>
			<point x="326" y="-110" type="line"/>
			<point x="326" y="660" type="line"/>
			<point x="275" y="660" type="line"/>
		</contour>
	</outline>
</glyph>
<glyph name="dong.S" format="2">
	<advance width="497"/>
	<outline>
		<contour>
			<point x="225" y="110" type="curve" smooth="yes"/>
			<point x="272" y="110"/>
			<point x="310" y="133"/>
			<point x="339" y="163" type="curve"/>
			<point x="342" y="163" type="line"/>
			<point x="348" y="120" type="line"/>
			<point x="405" y="120" type="line"/>
			<point x="405" y="662" type="line"/>
			<point x="336" y="662" type="line"/>
			<point x="336" y="526" type="line"/>
			<point x="340" y="432" type="line"/>
			<point x="307" y="461"/>
			<point x="280" y="478"/>
			<point x="231" y="478" type="curve" smooth="yes"/>
			<point x="148" y="478"/>
			<point x="69" y="413"/>
			<point x="69" y="299" type="curve" smooth="yes"/>
			<point x="69" y="174"/>
			<point x="130" y="110"/>
		</contour>
		<contour>
			<point x="239" y="178" type="curve" smooth="yes"/>
			<point x="176" y="178"/>
			<point x="140" y="223"/>
			<point x="140" y="298" type="curve" smooth="yes"/>
			<point x="140" y="362"/>
			<point x="187" y="410"/>
			<point x="243" y="410" type="curve" smooth="yes"/>
			<point x="280" y="410"/>
			<point x="304" y="399"/>
			<point x="336" y="371" type="curve"/>
			<point x="336" y="228" type="line"/>
			<point x="304" y="192"/>
			<point x="273" y="178"/>
		</contour>
		<contour>
			<point x="190" y="553" type="line"/>
			<point x="405" y="553" type="line"/>
			<point x="483" y="558" type="line"/>
			<point x="483" y="602" type="line"/>
			<point x="190" y="602" type="line"/>
		</contour>
		<contour>
			<point x="79" y="0" type="line"/>
			<point x="438" y="0" type="line"/>
			<point x="438" y="50" type="line"/>
			<point x="79" y="50" type="line"/>
		</contour>
	</outline>
</glyph>
<glyph name="eight.Dnom" format="2">
	<advance width="367"/>
	<outline>
		<contour>
			<point x="182" y="-12" type="curve" smooth="yes"/>
			<point x="260" y="-12"/>
			<point x="315" y="33"/>
			<point x="315" y="93" type="curve" smooth="yes"/>
			<point x="315" y="139"/>
			<point x="293" y="165"/>
			<point x="247" y="185" type="curve"/>
			<point x="247" y="189" type="line"/>
			<point x="282" y="210"/>
			<point x="302" y="237"/>
			<point x="302" y="276" type="curve" smooth="yes"/>
			<point x="302" y="333"/>
			<point x="250" y="369"/>
			<point x="182" y="369" type="curve" smooth="yes"/>
			<point x="117" y="369"/>
			<point x="65" y="331"/>
			<point x="65" y="275" type="curve" smooth="yes"/>
			<point x="65" y="235"/>
			<point x="86" y="211"/>
			<point x="119" y="193" type="curve"/>
			<point x="119" y="189" type="line"/>
			<point x="80" y="173"/>
			<point x="50" y="139"/>
			<point x="50" y="89" type="curve" smooth="yes"/>
			<point x="50" y="33"/>
			<point x="101" y="-12"/>
		</contour>
		<contour>
			<point x="207" y="204" type="curve"/>
			<point x="158" y="221"/>
			<point x="118" y="236"/>
			<point x="118" y="271" type="curve" smooth="yes"/>
			<point x="118" y="299"/>
			<point x="145" y="318"/>
			<point x="181" y="318" type="curve" smooth="yes"/>
			<point x="220" y="318"/>
			<point x="249" y="298"/>
			<point x="249" y="270" type="curve" smooth="yes"/>
			<point x="249" y="244"/>
			<point x="237" y="224"/>
		</contour>
		<contour>
			<point x="185" y="39" type="curve" smooth="yes"/>
			<point x="134" y="39"/>
			<point x="103" y="66"/>
			<point x="103" y="96" type="curve" smooth="yes"/>
			<point x="103" y="129"/>
			<point x="121" y="151"/>
			<point x="157" y="168" type="curve"/>
			<point x="212" y="145"/>
			<point x="261" y="138"/>
			<point x="261" y="93" type="curve" smooth="yes"/>
			<point x="261" y="63"/>
			<point x="229" y="39"/>
		</contour>
	</outline>
</glyph>
<glyph name="five.ph" format="2">
	<advance width="497"/>
	<outline>
		<contour>
			<point x="234" y="-96" type="curve" smooth="yes"/>
			<point x="345" y="-96"/>
			<point x="449" y="-17"/>
			<point x="449" y="121" type="curve" smooth="yes"/>
			<point x="449" y="259"/>
			<point x="360" y="321"/>
			<point x="251" y="321" type="curve" smooth="yes"/>
			<point x="212" y="321"/>
			<point x="183" y="310"/>
			<point x="153" y="294" type="curve"/>
			<point x="170" y="483" type="line"/>
			<point x="417" y="483" type="line"/>
			<point x="417" y="554" type="line"/>
			<point x="98" y="554" type="line"/>
			<point x="77" y="247" type="line"/>
			<point x="121" y="219" type="line"/>
			<point x="159" y="245"/>
			<point x="186" y="258"/>
			<point x="230" y="258" type="curve" smooth="yes"/>
			<point x="312" y="258"/>
			<point x="366" y="206"/>
			<point x="366" y="118" type="curve" smooth="yes"/>
			<point x="366" y="29"/>
			<point x="304" y="-27"/>
			<point x="226" y="-27" type="curve" smooth="yes"/>
			<point x="151" y="-27"/>
			<point x="103" y="8"/>
			<point x="65" y="45" type="curve"/>
			<point x="25" y="-8" type="line"/>
			<point x="69" y="-53"/>
			<point x="132" y="-96"/>
		</contour>
	</outline>
</glyph>
<glyph name="four.Dnom" format="2">
	<advance width="367"/>
	<outline>
		<contour>
			<point x="217" y="0" type="line"/>
			<point x="274" y="0" type="line"/>
			<point x="274" y="390" type="line"/>
			<point x="202" y="390" type="line"/>
			<point x="38" y="145" type="line"/>
			<point x="38" y="100" type="line"/>
			<point x="332" y="100" type="line"/>
			<point x="332" y="157" type="line"/>
			<point x="105" y="157" type="line"/>
			<point x="165" y="248" type="line"/>
			<point x="218" y="331" type="line"/>
			<point x="222" y="331" type="line"/>
			<point x="217" y="223" type="line"/>
		</contour>
	</outline>
</glyph>
<glyph name="four.ph" format="2">
	<advance width="497"/>
	<outline>
		<contour>
			<point x="304" y="-84" type="line"/>
			<point x="382" y="-84" type="line"/>
			<point x="382" y="554" type="line"/>
			<point x="290" y="554" type="line"/>
			<point x="17" y="147" type="line"/>
			<point x="17" y="92" type="line"/>
			<point x="469" y="92" type="line"/>
			<point x="469" y="158" type="line"/>
			<point x="104" y="158" type="line"/>
			<point x="253" y="376" type="line"/>
			<point x="271" y="408"/>
			<point x="289" y="436"/>
			<point x="305" y="466" type="curve"/>
			<point x="309" y="466" type="line"/>
			<point x="307" y="432"/>
			<point x="304" y="377"/>
			<point x="304" y="344" type="curve" smooth="yes"/>
		</contour>
	</outline>
</glyph>
<glyph name="franc.S" format="2">
	<advance width="497"/>
	<outline>
		<contour>
			<point x="131" y="0" type="line"/>
			<point x="208" y="0" type="line"/>
			<point x="208" y="251" type="line"/>
			<point x="418" y="251" type="line"/>
			<point x="418" y="322" type="line"/>
			<point x="208" y="322" type="line"/>
			<point x="208" y="480" type="line"/>
			<point x="467" y="480" type="line"/>
			<point x="467" y="554" type="line"/>
			<point x="131" y="554" type="line"/>
		</contour>
		<contour>
			<point x="52" y="100" type="line"/>
			<point x="358" y="100" type="line"/>
			<point x="358" y="156" type="line"/>
			<point x="133" y="156" type="line"/>
			<point x="52" y="153" type="line"/>
		</contour>
	</outline>
</glyph>
<glyph name="guarani.S" format="2">
	<advance width="497"/>
	<outline>
		<contour>
			<point x="295" y="-12" type="curve" smooth="yes"/>
			<point x="358" y="-12"/>
			<point x="412" y="9"/>
			<point x="456" y="51" type="curve"/>
			<point x="456" y="305" type="line"/>
			<point x="280" y="305" type="line"/>
			<point x="280" y="232" type="line"/>
			<point x="387" y="232" type="line"/>
			<point x="387" y="95" type="line"/>
			<point x="369" y="77"/>
			<point x="335" y="62"/>
			<point x="297" y="62" type="curve" smooth="yes"/>
			<point x="198" y="62"/>
			<point x="124" y="131"/>
			<point x="124" y="279" type="curve" smooth="yes"/>
			<point x="124" y="426"/>
			<point x="205" y="492"/>
			<point x="298" y="492" type="curve" smooth="yes"/>
			<point x="340" y="492"/>
			<point x="369" y="479"/>
			<point x="405" y="453" type="curve"/>
			<point x="442" y="512" type="line"/>
			<point x="399" y="548"/>
			<point x="355" y="566"/>
			<point x="296" y="566" type="curve" smooth="yes"/>
			<point x="163" y="566"/>
			<point x="53" y="474"/>
			<point x="53" y="277" type="curve" smooth="yes"/>
			<point x="53" y="80"/>
			<point x="156" y="-12"/>
		</contour>
		<contour>
			<point x="257" y="-110" type="line"/>
			<point x="316" y="-110" type="line"/>
			<point x="316" y="22" type="line"/>
			<point x="257" y="22" type="line"/>
		</contour>
		<contour>
			<point x="257" y="539" type="line"/>
			<point x="316" y="539" type="line"/>
			<point x="316" y="664" type="line"/>
			<point x="257" y="664" type="line"/>
		</contour>
	</outline>
</glyph>
<glyph name="guillemotright.lat" format="2">
	<advance width="429"/>
	<outline>
		<contour>
			<point x="89" y="66" type="line"/>
			<point x="226" y="221" type="line"/>
			<point x="226" y="283" type="line"/>
			<point x="89" y="438" type="line"/>
			<point x="54" y="408" type="line"/>
			<point x="172" y="252" type="line"/>
			<point x="54" y="94" type="line"/>
		</contour>
		<contour>
			<point x="248" y="66" type="line"/>
			<point x="384" y="221" type="line"/>
			<point x="384" y="283" type="line"/>
			<point x="248" y="438" type="line"/>
			<point x="212" y="408" type="line"/>
			<point x="330" y="252" type="line"/>
			<point x="212" y="94" type="line"/>
		</contour>
	</outline>
</glyph>
<glyph name="heAyin.1" format="2">
	<advance width="568"/>
	<outline>
		<contour>
			<point x="50" y="0" type="line"/>
			<point x="111" y="0" type="line" smooth="yes"/>
			<point x="378" y="0"/>
			<point x="521" y="246"/>
			<point x="521" y="414" type="curve" smooth="yes"/>
			<point x="521" y="516"/>
			<point x="478" y="554"/>
			<point x="372" y="554" type="curve" smooth="yes"/>
			<point x="305" y="554" type="line"/>
			<point x="305" y="472" type="line"/>
			<point x="354" y="472" type="line" smooth="yes"/>
			<point x="421" y="472"/>
			<point x="449" y="450"/>
			<point x="449" y="388" type="curve" smooth="yes"/>
			<point x="449" y="264"/>
			<point x="336" y="78"/>
			<point x="129" y="78" type="curve" smooth="yes"/>
			<point x="50" y="78" type="line"/>
		</contour>
		<contour>
			<point x="202" y="74" type="curve"/>
			<point x="268" y="92" type="line"/>
			<point x="242" y="218"/>
			<point x="221" y="307"/>
			<point x="193" y="402" type="curve" smooth="yes"/>
			<point x="157" y="526"/>
			<point x="133" y="554"/>
			<point x="48" y="554" type="curve" smooth="yes"/>
			<point x="20" y="554" type="line"/>
			<point x="20" y="472" type="line"/>
			<point x="31" y="472" type="line" smooth="yes"/>
			<point x="87" y="472"/>
			<point x="95" y="457"/>
			<point x="129" y="354" type="curve" smooth="yes"/>
			<point x="155" y="270"/>
			<point x="177" y="186"/>
		</contour>
	</outline>
	<anchor name="aboveHE" x="256" y="568"/>
	<anchor name="belowPrimaryHE" x="305" y="-30"/>
	<anchor name="aboveLeftHE" x="-14" y="568"/>
</glyph>
<glyph name="heAyin.2" format="2">
	<advance width="568"/>
	<outline>
		<contour>
			<point x="50" y="0" type="line"/>
			<point x="111" y="0" type="line" smooth="yes"/>
			<point x="378" y="0"/>
			<point x="521" y="246"/>
			<point x="521" y="414" type="curve" smooth="yes"/>
			<point x="521" y="516"/>
			<point x="478" y="554"/>
			<point x="372" y="554" type="curve" smooth="yes"/>
			<point x="305" y="554" type="line"/>
			<point x="305" y="472" type="line"/>
			<point x="354" y="472" type="line" smooth="yes"/>
			<point x="421" y="472"/>
			<point x="449" y="450"/>
			<point x="449" y="388" type="curve" smooth="yes"/>
			<point x="449" y="264"/>
			<point x="336" y="78"/>
			<point x="129" y="78" type="curve" smooth="yes"/>
			<point x="50" y="78" type="line"/>
		</contour>
		<contour>
			<point x="202" y="74" type="curve"/>
			<point x="268" y="92" type="line"/>
			<point x="244" y="210"/>
			<point x="219" y="294"/>
			<point x="193" y="384" type="curve" smooth="yes"/>
			<point x="164" y="483"/>
			<point x="133" y="501"/>
			<point x="48" y="501" type="curve" smooth="yes"/>
			<point x="20" y="501" type="line"/>
			<point x="20" y="472" type="line"/>
			<point x="31" y="472" type="line" smooth="yes"/>
			<point x="87" y="472"/>
			<point x="95" y="457"/>
			<point x="129" y="354" type="curve" smooth="yes"/>
			<point x="155" y="270"/>
			<point x="177" y="186"/>
		</contour>
		<contour>
			<point x="20" y="472" type="line"/>
			<point x="213" y="472" type="line"/>
			<point x="213" y="554" type="line"/>
			<point x="20" y="554" type="line"/>
		</contour>
	</outline>
	<anchor name="aboveHE" x="256" y="568"/>
	<anchor name="belowPrimaryHE" x="305" y="-30"/>
	<anchor name="aboveLeftHE" x="-14" y="568"/>
</glyph>
<glyph name="heDagesh.shin" format="2">
	<outline>
		<contour>
			<point x="0" y="310" type="curve" smooth="yes"/>
			<point x="-21" y="310"/>
			<point x="-38" y="294"/>
			<point x="-38" y="272" type="curve" smooth="yes"/>
			<point x="-38" y="250"/>
			<point x="-21" y="234"/>
			<point x="0" y="234" type="curve" smooth="yes"/>
			<point x="21" y="234"/>
			<point x="38" y="249"/>
			<point x="38" y="272" type="curve" smooth="yes"/>
			<point x="38" y="294"/>
			<point x="21" y="310"/>
		</contour>
	</outline>
	<anchor name="_centerHE" x="0" y="272"/>
	<guideline y="285" identifier="0UuHlBomrk"/>
</glyph>
<glyph name="heQamats.kaf" format="2">
	<outline>
		<contour>
			<point x="79" y="-86" type="line"/>
			<point x="-80" y="-86" type="line"/>
			<point x="-80" y="-129" type="line"/>
			<point x="-18" y="-129" type="line"/>
			<point x="-27" y="-222" type="line"/>
			<point x="27" y="-222" type="line"/>
			<point x="18" y="-129" type="line"/>
			<point x="79" y="-129" type="line"/>
		</contour>
	</outline>
	<anchor name="_centerSecondaryHE" x="0" y="-30"/>
</glyph>
<glyph name="heQamats.short" format="2">
	<outline>
		<contour>
			<point x="-21" y="-241" type="line"/>
			<point x="21" y="-241" type="line"/>
			<point x="21" y="-139" type="line"/>
			<point x="81" y="-139" type="line"/>
			<point x="81" y="-96" type="line"/>
			<point x="-81" y="-96" type="line"/>
			<point x="-81" y="-139" type="line"/>
			<point x="-21" y="-139" type="line"/>
		</contour>
	</outline>
	<anchor name="_belowPrimaryHE" x="0" y="-27"/>
	<anchor name="_belowLeftHE" x="-79" y="-27"/>
	<anchor name="_belowRightHE" x="79" y="-27"/>
	<anchor name="belowPrimaryHE" x="-142" y="-27"/>
	<anchor name="_belowSecondaryHE" x="0" y="-27"/>
</glyph>
<glyph name="heQamatsQatan.short" format="2">
	<outline>
		<contour>
			<point x="79" y="-86" type="line"/>
			<point x="-81" y="-86" type="line"/>
			<point x="-81" y="-129" type="line"/>
			<point x="-19" y="-129" type="line"/>
			<point x="-24" y="-298" type="line"/>
			<point x="24" y="-298" type="line"/>
			<point x="19" y="-129" type="line"/>
			<point x="79" y="-129" type="line"/>
		</contour>
	</outline>
	<anchor name="_belowPrimaryHE" x="0" y="-30"/>
	<anchor name="_belowLeftHE" x="-79" y="-30"/>
	<anchor name="_belowRightHE" x="79" y="-30"/>
	<anchor name="belowPrimaryHE" x="-142" y="-30"/>
	<anchor name="_belowSecondaryHE" x="0" y="-30"/>
</glyph>
<glyph name="heSamekh.1" format="2">
	<advance width="607"/>
	<outline>
		<contour>
			<point x="306" y="-12" type="curve" smooth="yes"/>
			<point x="448" y="-12"/>
			<point x="556" y="129"/>
			<point x="556" y="380" type="curve" smooth="yes"/>
			<point x="556" y="507"/>
			<point x="517" y="554"/>
			<point x="421" y="554" type="curve" smooth="yes"/>
			<point x="8" y="554" type="line"/>
			<point x="8" y="472" type="line"/>
			<point x="402" y="472" type="line" smooth="yes"/>
			<point x="461" y="472"/>
			<point x="485" y="445"/>
			<point x="485" y="366" type="curve" smooth="yes"/>
			<point x="485" y="170"/>
			<point x="406" y="71"/>
			<point x="312" y="71" type="curve" smooth="yes"/>
			<point x="243" y="71"/>
			<point x="188" y="108"/>
			<point x="170" y="294" type="curve" smooth="yes"/>
			<point x="153" y="467"/>
			<point x="132" y="501"/>
			<point x="36" y="501" type="curve" smooth="yes"/>
			<point x="8" y="501" type="line"/>
			<point x="8" y="472" type="line"/>
			<point x="14" y="472" type="line" smooth="yes"/>
			<point x="77" y="472"/>
			<point x="84" y="444"/>
			<point x="97" y="284" type="curve" smooth="yes"/>
			<point x="115" y="54"/>
			<point x="205" y="-12"/>
		</contour>
	</outline>
	<anchor name="aboveHE" x="313" y="568"/>
	<anchor name="belowPrimaryHE" x="323" y="-30"/>
	<anchor name="centerHE" x="313" y="285"/>
	<anchor name="aboveLeftHE" x="6" y="568"/>
</glyph>
<glyph name="heSamekh.5" format="2">
	<advance width="608"/>
	<outline>
		<contour>
			<point x="309" y="-12" type="curve" smooth="yes"/>
			<point x="450" y="-12"/>
			<point x="558" y="118"/>
			<point x="558" y="380" type="curve" smooth="yes"/>
			<point x="558" y="507"/>
			<point x="519" y="554"/>
			<point x="423" y="554" type="curve" smooth="yes"/>
			<point x="24" y="554" type="line"/>
			<point x="24" y="472" type="line"/>
			<point x="404" y="472" type="line" smooth="yes"/>
			<point x="462" y="472"/>
			<point x="487" y="446"/>
			<point x="487" y="366" type="curve" smooth="yes"/>
			<point x="487" y="163"/>
			<point x="405" y="71"/>
			<point x="316" y="71" type="curve" smooth="yes"/>
			<point x="230" y="71"/>
			<point x="174" y="128"/>
			<point x="174" y="259" type="curve" smooth="yes"/>
			<point x="174" y="472" type="line"/>
			<point x="114" y="472" type="line"/>
			<point x="106" y="441"/>
			<point x="102" y="410"/>
			<point x="102" y="369" type="curve" smooth="yes"/>
			<point x="102" y="235" type="line" smooth="yes"/>
			<point x="102" y="68"/>
			<point x="188" y="-12"/>
		</contour>
	</outline>
	<anchor name="aboveHE" x="313" y="568"/>
	<anchor name="belowPrimaryHE" x="323" y="-30"/>
	<anchor name="centerHE" x="313" y="285"/>
	<anchor name="aboveLeftHE" x="6" y="568"/>
</glyph>
<glyph name="heShin.2" format="2">
	<advance width="719"/>
	<outline>
		<contour>
			<point x="346" y="-12" type="curve" smooth="yes"/>
			<point x="525" y="-12"/>
			<point x="668" y="177"/>
			<point x="668" y="393" type="curve" smooth="yes"/>
			<point x="668" y="521"/>
			<point x="630" y="554"/>
			<point x="533" y="554" type="curve" smooth="yes"/>
			<point x="496" y="554" type="line"/>
			<point x="496" y="472" type="line"/>
			<point x="522" y="472" type="line" smooth="yes"/>
			<point x="576" y="472"/>
			<point x="599" y="450"/>
			<point x="599" y="366" type="curve" smooth="yes"/>
			<point x="599" y="216"/>
			<point x="489" y="67"/>
			<point x="360" y="67" type="curve" smooth="yes"/>
			<point x="239" y="67"/>
			<point x="187" y="107"/>
			<point x="170" y="294" type="curve" smooth="yes"/>
			<point x="154" y="460"/>
			<point x="132" y="501"/>
			<point x="36" y="501" type="curve" smooth="yes"/>
			<point x="8" y="501" type="line"/>
			<point x="8" y="472" type="line"/>
			<point x="14" y="472" type="line" smooth="yes"/>
			<point x="77" y="472"/>
			<point x="84" y="444"/>
			<point x="97" y="284" type="curve" smooth="yes"/>
			<point x="115" y="53"/>
			<point x="201" y="-12"/>
		</contour>
		<contour>
			<point x="287" y="63" type="line"/>
			<point x="381" y="191"/>
			<point x="434" y="332"/>
			<point x="434" y="417" type="curve" smooth="yes"/>
			<point x="434" y="518"/>
			<point x="405" y="554"/>
			<point x="317" y="554" type="curve" smooth="yes"/>
			<point x="279" y="554" type="line"/>
			<point x="279" y="472" type="line"/>
			<point x="295" y="472" type="line" smooth="yes"/>
			<point x="353" y="472"/>
			<point x="365" y="447"/>
			<point x="365" y="392" type="curve" smooth="yes"/>
			<point x="365" y="323"/>
			<point x="317" y="202"/>
			<point x="236" y="93" type="curve"/>
		</contour>
		<contour>
			<point x="8" y="472" type="line"/>
			<point x="206" y="472" type="line"/>
			<point x="206" y="554" type="line"/>
			<point x="8" y="554" type="line"/>
		</contour>
	</outline>
	<anchor name="aboveHE" x="329" y="568"/>
	<anchor name="belowPrimaryHE" x="358" y="-30"/>
	<anchor name="sinHE" x="68" y="538"/>
	<anchor name="centerHE" x="423" y="257"/>
	<anchor name="shinHE" x="518" y="538"/>
	<anchor name="aboveLeftHE" x="-32" y="568"/>
</glyph>
<glyph name="heShin.3" format="2">
	<advance width="719"/>
	<outline>
		<contour>
			<point x="346" y="-12" type="curve" smooth="yes"/>
			<point x="525" y="-12"/>
			<point x="668" y="177"/>
			<point x="668" y="393" type="curve" smooth="yes"/>
			<point x="668" y="521"/>
			<point x="630" y="554"/>
			<point x="533" y="554" type="curve" smooth="yes"/>
			<point x="496" y="554" type="line"/>
			<point x="496" y="472" type="line"/>
			<point x="522" y="472" type="line" smooth="yes"/>
			<point x="576" y="472"/>
			<point x="599" y="450"/>
			<point x="599" y="366" type="curve" smooth="yes"/>
			<point x="599" y="216"/>
			<point x="489" y="67"/>
			<point x="360" y="67" type="curve" smooth="yes"/>
			<point x="239" y="67"/>
			<point x="168" y="122"/>
			<point x="166" y="285" type="curve" smooth="yes"/>
			<point x="166" y="417" type="line" smooth="yes"/>
			<point x="166" y="518"/>
			<point x="137" y="554"/>
			<point x="48" y="554" type="curve" smooth="yes"/>
			<point x="20" y="554" type="line"/>
			<point x="20" y="472" type="line"/>
			<point x="27" y="472" type="line" smooth="yes"/>
			<point x="83" y="472"/>
			<point x="94" y="449"/>
			<point x="94" y="396" type="curve" smooth="yes"/>
			<point x="94" y="262" type="line" smooth="yes"/>
			<point x="95" y="65"/>
			<point x="198" y="-12"/>
		</contour>
		<contour>
			<point x="286" y="62" type="line"/>
			<point x="381" y="190"/>
			<point x="434" y="332"/>
			<point x="434" y="417" type="curve" smooth="yes"/>
			<point x="434" y="518"/>
			<point x="405" y="554"/>
			<point x="317" y="554" type="curve" smooth="yes"/>
			<point x="279" y="554" type="line"/>
			<point x="279" y="472" type="line"/>
			<point x="295" y="472" type="line" smooth="yes"/>
			<point x="353" y="472"/>
			<point x="365" y="447"/>
			<point x="365" y="392" type="curve" smooth="yes"/>
			<point x="365" y="323"/>
			<point x="317" y="202"/>
			<point x="236" y="93" type="curve"/>
		</contour>
	</outline>
	<anchor name="aboveHE" x="329" y="568"/>
	<anchor name="belowPrimaryHE" x="358" y="-30"/>
	<anchor name="sinHE" x="68" y="538"/>
	<anchor name="centerHE" x="423" y="257"/>
	<anchor name="shinHE" x="518" y="538"/>
	<anchor name="aboveLeftHE" x="-32" y="568"/>
</glyph>
<glyph name="heTet.5" format="2">
	<advance width="607"/>
	<outline>
		<contour>
			<point x="306" y="-12" type="curve" smooth="yes"/>
			<point x="448" y="-12"/>
			<point x="556" y="129"/>
			<point x="556" y="380" type="curve" smooth="yes"/>
			<point x="556" y="507"/>
			<point x="517" y="554"/>
			<point x="421" y="554" type="curve" smooth="yes"/>
			<point x="298" y="554" type="line"/>
			<point x="298" y="472" type="line"/>
			<point x="402" y="472" type="line" smooth="yes"/>
			<point x="461" y="472"/>
			<point x="485" y="445"/>
			<point x="485" y="366" type="curve" smooth="yes"/>
			<point x="485" y="170"/>
			<point x="406" y="71"/>
			<point x="312" y="71" type="curve" smooth="yes"/>
			<point x="223" y="71"/>
			<point x="168" y="127"/>
			<point x="168" y="259" type="curve" smooth="yes"/>
			<point x="168" y="554" type="line"/>
			<point x="94" y="554" type="line"/>
			<point x="94" y="235" type="line" smooth="yes"/>
			<point x="94" y="68"/>
			<point x="185" y="-12"/>
		</contour>
	</outline>
	<anchor name="aboveHE" x="313" y="568"/>
	<anchor name="belowPrimaryHE" x="323" y="-30"/>
	<anchor name="centerHE" x="313" y="285"/>
	<anchor name="aboveLeftHE" x="6" y="568"/>
</glyph>
<glyph name="heTsadi.1" format="2">
	<advance width="537"/>
	<outline>
		<contour>
			<point x="50" y="0" type="line"/>
			<point x="484" y="0" type="line"/>
			<point x="499" y="78" type="line"/>
			<point x="50" y="78" type="line"/>
		</contour>
		<contour>
			<point x="327" y="199" type="line"/>
			<point x="432" y="285"/>
			<point x="490" y="372"/>
			<point x="490" y="439" type="curve" smooth="yes"/>
			<point x="490" y="519"/>
			<point x="455" y="554"/>
			<point x="362" y="554" type="curve" smooth="yes"/>
			<point x="293" y="554" type="line"/>
			<point x="293" y="472" type="line"/>
			<point x="330" y="472" type="line" smooth="yes"/>
			<point x="400" y="472"/>
			<point x="417" y="453"/>
			<point x="417" y="412" type="curve" smooth="yes"/>
			<point x="417" y="368"/>
			<point x="373" y="308"/>
			<point x="289" y="241" type="curve"/>
		</contour>
		<contour>
			<point x="445" y="42" type="curve"/>
			<point x="499" y="78" type="line"/>
			<point x="388" y="154"/>
			<point x="307" y="226"/>
			<point x="232" y="330" type="curve" smooth="yes"/>
			<point x="125" y="475"/>
			<point x="132" y="554"/>
			<point x="36" y="554" type="curve" smooth="yes"/>
			<point x="8" y="554" type="line"/>
			<point x="8" y="472" type="line"/>
			<point x="18" y="472" type="line" smooth="yes"/>
			<point x="69" y="472"/>
			<point x="74" y="413"/>
			<point x="168" y="290" type="curve" smooth="yes"/>
			<point x="256" y="175"/>
			<point x="330" y="115"/>
		</contour>
	</outline>
	<anchor name="aboveHE" x="236" y="568"/>
	<anchor name="belowPrimaryHE" x="246" y="-30"/>
	<anchor name="centerHE" x="117" y="194"/>
	<anchor name="aboveLeftHE" x="-5" y="568"/>
</glyph>
